{
   "accessors" : [
      {
         "bufferView" : 0,
         "byteOffset" : 0,
         "componentType" : 5123,
         "count" : 54,
         "max" : [ 17 ],
         "min" : [ 0 ],
         "type" : "SCALAR"
      },
      {
         "bufferView" : 1,
         "byteOffset" : 0,
         "componentType" : 5126,
         "count" : 18,
         "max" : [ 3.45237398147583, 2.577581882476807, 4.430482864379883 ],
         "min" : [ -3.323308944702148, 0, 4.092611789703369 ],
         "type" : "VEC3"
      },
      {
         "bufferView" : 2,
         "byteOffset" : 0,
         "componentType" : 5126,
         "count" : 18,
         "type" : "VEC3"
      },
      {
         "bufferView" : 3,
         "byteOffset" : 0,
         "componentType" : 5126,
         "count" : 18,
         "max" : [ 0.9894000291824341, 0.7225000262260437 ],
         "min" : [ 0.01059999968856573, 0.2883000075817108 ],
         "type" : "VEC2"
      },
      {
         "bufferView" : 4,
         "byteOffset" : 0,
         "componentType" : 5123,
         "count" : 66,
         "max" : [ 19 ],
         "min" : [ 0 ],
         "type" : "SCALAR"
      },
      {
         "bufferView" : 5,
         "byteOffset" : 0,
         "componentType" : 5126,
         "count" : 20,
         "max" : [ 3.45237398147583, 9.5367431640625e-007, 4.430481910705566 ],
         "min" : [ -3.323308944702148, 0, -2.345201015472412 ],
         "type" : "VEC3"
      },
      {
         "bufferView" : 6,
         "byteOffset" : 0,
         "componentType" : 5126,
         "count" : 20,
         "type" : "VEC3"
      },
      {
         "bufferView" : 7,
         "byteOffset" : 0,
         "componentType" : 5126,
         "count" : 20,
         "max" : [ 0.9969000220298767, 1.003100037574768 ],
         "min" : [ -0.003100000089034438, 0.003100000089034438 ],
         "type" : "VEC2"
      },
      {
         "bufferView" : 8,
         "byteOffset" : 0,
         "componentType" : 5123,
         "count" : 90,
         "max" : [ 25 ],
         "min" : [ 0 ],
         "type" : "SCALAR"
      },
      {
         "bufferView" : 9,
         "byteOffset" : 0,
         "componentType" : 5126,
         "count" : 26,
         "max" : [ 3.45237398147583, 2.577585935592651, -1.437258958816528 ],
         "min" : [ -3.323308944702148, 9.5367431640625e-007, -2.345201015472412 ],
         "type" : "VEC3"
      },
      {
         "bufferView" : 10,
         "byteOffset" : 0,
         "componentType" : 5126,
         "count" : 26,
         "type" : "VEC3"
      },
      {
         "bufferView" : 11,
         "byteOffset" : 0,
         "componentType" : 5126,
         "count" : 26,
         "max" : [ 1, 0.6877999901771545 ],
         "min" : [ 0, 0.3073999881744385 ],
         "type" : "VEC2"
      },
      {
         "bufferView" : 12,
         "byteOffset" : 0,
         "componentType" : 5123,
         "count" : 114,
         "max" : [ 27 ],
         "min" : [ 0 ],
         "type" : "SCALAR"
      },
      {
         "bufferView" : 13,
         "byteOffset" : 0,
         "componentType" : 5126,
         "count" : 28,
         "max" : [ 3.45237398147583, 2.577584981918335, 4.12692403793335 ],
         "min" : [ 3.366296052932739, 0, -2.051930904388428 ],
         "type" : "VEC3"
      },
      {
         "bufferView" : 14,
         "byteOffset" : 0,
         "componentType" : 5126,
         "count" : 28,
         "type" : "VEC3"
      },
      {
         "bufferView" : 15,
         "byteOffset" : 0,
         "componentType" : 5126,
         "count" : 28,
         "max" : [ 1.003000020980835, 0.7139999866485596 ],
         "min" : [ 0.003000000026077032, 0.2967999875545502 ],
         "type" : "VEC2"
      },
      {
         "bufferView" : 16,
         "byteOffset" : 0,
         "componentType" : 5123,
         "count" : 36,
         "max" : [ 19 ],
         "min" : [ 0 ],
         "type" : "SCALAR"
      },
      {
         "bufferView" : 17,
         "byteOffset" : 0,
         "componentType" : 5126,
         "count" : 20,
         "max" : [ 3.1492919921875, 2.195101976394653, -2.345201015472412 ],
         "min" : [ 1.230232954025269, 9.5367431640625e-007, -3.5159010887146 ],
         "type" : "VEC3"
      },
      {
         "bufferView" : 18,
         "byteOffset" : 0,
         "componentType" : 5126,
         "count" : 20,
         "type" : "VEC3"
      },
      {
         "bufferView" : 19,
         "byteOffset" : 0,
         "componentType" : 5126,
         "count" : 20,
         "max" : [ 1, 0.862500011920929 ],
         "min" : [ 0, 0.1133999973535538 ],
         "type" : "VEC2"
      },
      {
         "bufferView" : 20,
         "byteOffset" : 0,
         "componentType" : 5123,
         "count" : 1122,
         "max" : [ 215 ],
         "min" : [ 0 ],
         "type" : "SCALAR"
      },
      {
         "bufferView" : 21,
         "byteOffset" : 0,
         "componentType" : 5126,
         "count" : 216,
         "max" : [ 6.088700771331787, 4.392062187194824, 4.061071872711182 ],
         "min" : [ 4.733563899993897, 0, 2.705935001373291 ],
         "type" : "VEC3"
      },
      {
         "bufferView" : 22,
         "byteOffset" : 0,
         "componentType" : 5126,
         "count" : 216,
         "type" : "VEC3"
      },
      {
         "bufferView" : 23,
         "byteOffset" : 0,
         "componentType" : 5126,
         "count" : 216,
         "max" : [ 0.9991999864578247, 0.9121000170707703 ],
         "min" : [ -0.0007999999797903001, 0.1269000023603439 ],
         "type" : "VEC2"
      },
      {
         "bufferView" : 24,
         "byteOffset" : 0,
         "componentType" : 5123,
         "count" : 186,
         "max" : [ 79 ],
         "min" : [ 0 ],
         "type" : "SCALAR"
      },
      {
         "bufferView" : 25,
         "byteOffset" : 0,
         "componentType" : 5126,
         "count" : 80,
         "max" : [ 5.827309131622315, 2.195101022720337, 2.971580028533936 ],
         "min" : [ 3.45237398147583, 9.5367431640625e-007, -0.8210920095443726 ],
         "type" : "VEC3"
      },
      {
         "bufferView" : 26,
         "byteOffset" : 0,
         "componentType" : 5126,
         "count" : 80,
         "type" : "VEC3"
      },
      {
         "bufferView" : 27,
         "byteOffset" : 0,
         "componentType" : 5126,
         "count" : 80,
         "max" : [ 0.9997000098228455, 0.84170001745224 ],
         "min" : [ -0.0003000000142492354, 0.1560000032186508 ],
         "type" : "VEC2"
      },
      {
         "bufferView" : 28,
         "byteOffset" : 0,
         "componentType" : 5123,
         "count" : 222,
         "max" : [ 104 ],
         "min" : [ 0 ],
         "type" : "SCALAR"
      },
      {
         "bufferView" : 29,
         "byteOffset" : 0,
         "componentType" : 5126,
         "count" : 105,
         "max" : [ 4.042315006256104, 2.835448980331421, -3.5159010887146 ],
         "min" : [ 1.230232954025269, 2.86102294921875e-006, -6.093873977661133 ],
         "type" : "VEC3"
      },
      {
         "bufferView" : 30,
         "byteOffset" : 0,
         "componentType" : 5126,
         "count" : 105,
         "type" : "VEC3"
      },
      {
         "bufferView" : 31,
         "byteOffset" : 0,
         "componentType" : 5126,
         "count" : 105,
         "max" : [ 1, 0.8469000458717346 ],
         "min" : [ 0, 0.1704999953508377 ],
         "type" : "VEC2"
      },
      {
         "bufferView" : 32,
         "byteOffset" : 0,
         "componentType" : 5123,
         "count" : 1122,
         "max" : [ 215 ],
         "min" : [ 0 ],
         "type" : "SCALAR"
      },
      {
         "bufferView" : 33,
         "byteOffset" : 0,
         "componentType" : 5126,
         "count" : 216,
         "max" : [ 6.088698863983154, 4.392064094543457, -0.5720829963684082 ],
         "min" : [ 4.733561992645264, 9.5367431640625e-007, -1.927222967147827 ],
         "type" : "VEC3"
      },
      {
         "bufferView" : 34,
         "byteOffset" : 0,
         "componentType" : 5126,
         "count" : 216,
         "type" : "VEC3"
      },
      {
         "bufferView" : 35,
         "byteOffset" : 0,
         "componentType" : 5126,
         "count" : 216,
         "max" : [ 1.003100037574768, 0.9082000255584717 ],
         "min" : [ 0.003100000089034438, 0.1230000033974648 ],
         "type" : "VEC2"
      },
      {
         "bufferView" : 36,
         "byteOffset" : 0,
         "componentType" : 5123,
         "count" : 114,
         "max" : [ 27 ],
         "min" : [ 0 ],
         "type" : "SCALAR"
      },
      {
         "bufferView" : 37,
         "byteOffset" : 0,
         "componentType" : 5126,
         "count" : 28,
         "max" : [ -3.237231016159058, 2.577584981918335, 4.12692403793335 ],
         "min" : [ -3.323308944702148, 0, -2.042598009109497 ],
         "type" : "VEC3"
      },
      {
         "bufferView" : 38,
         "byteOffset" : 0,
         "componentType" : 5126,
         "count" : 28,
         "type" : "VEC3"
      },
      {
         "bufferView" : 39,
         "byteOffset" : 0,
         "componentType" : 5126,
         "count" : 28,
         "max" : [ 1.000900030136108, 0.7182000279426575 ],
         "min" : [ 0.0008999999845400453, 0.3003999888896942 ],
         "type" : "VEC2"
      },
      {
         "bufferView" : 40,
         "byteOffset" : 0,
         "componentType" : 5123,
         "count" : 36,
         "max" : [ 19 ],
         "min" : [ 0 ],
         "type" : "SCALAR"
      },
      {
         "bufferView" : 41,
         "byteOffset" : 0,
         "componentType" : 5126,
         "count" : 20,
         "max" : [ -1.101168036460877, 2.195101976394653, -2.345201015472412 ],
         "min" : [ -3.020226955413818, 9.5367431640625e-007, -3.5159010887146 ],
         "type" : "VEC3"
      },
      {
         "bufferView" : 42,
         "byteOffset" : 0,
         "componentType" : 5126,
         "count" : 20,
         "type" : "VEC3"
      },
      {
         "bufferView" : 43,
         "byteOffset" : 0,
         "componentType" : 5126,
         "count" : 20,
         "max" : [ 1.002599954605103, 0.874500036239624 ],
         "min" : [ 0.002600000007078052, 0.1254999935626984 ],
         "type" : "VEC2"
      },
      {
         "bufferView" : 44,
         "byteOffset" : 0,
         "componentType" : 5123,
         "count" : 1122,
         "max" : [ 215 ],
         "min" : [ 0 ],
         "type" : "SCALAR"
      },
      {
         "bufferView" : 45,
         "byteOffset" : 0,
         "componentType" : 5126,
         "count" : 216,
         "max" : [ -4.733563899993897, 4.392062187194824, 4.061070919036865 ],
         "min" : [ -6.088700771331787, 0, 2.705934047698975 ],
         "type" : "VEC3"
      },
      {
         "bufferView" : 46,
         "byteOffset" : 0,
         "componentType" : 5126,
         "count" : 216,
         "type" : "VEC3"
      },
      {
         "bufferView" : 47,
         "byteOffset" : 0,
         "componentType" : 5126,
         "count" : 216,
         "max" : [ 0.9953000545501709, 0.9121000170707703 ],
         "min" : [ -0.004699999932199717, 0.1269000023603439 ],
         "type" : "VEC2"
      },
      {
         "bufferView" : 48,
         "byteOffset" : 0,
         "componentType" : 5123,
         "count" : 186,
         "max" : [ 75 ],
         "min" : [ 0 ],
         "type" : "SCALAR"
      },
      {
         "bufferView" : 49,
         "byteOffset" : 0,
         "componentType" : 5126,
         "count" : 76,
         "max" : [ -3.323308944702148, 2.195101022720337, 2.980914115905762 ],
         "min" : [ -5.698244094848633, 9.5367431640625e-007, -0.8117579817771912 ],
         "type" : "VEC3"
      },
      {
         "bufferView" : 50,
         "byteOffset" : 0,
         "componentType" : 5126,
         "count" : 76,
         "type" : "VEC3"
      },
      {
         "bufferView" : 51,
         "byteOffset" : 0,
         "componentType" : 5126,
         "count" : 76,
         "max" : [ 0.9349000453948975, 1.002799987792969 ],
         "min" : [ 0.05739999935030937, 0.00279999990016222 ],
         "type" : "VEC2"
      },
      {
         "bufferView" : 52,
         "byteOffset" : 0,
         "componentType" : 5123,
         "count" : 222,
         "max" : [ 104 ],
         "min" : [ 0 ],
         "type" : "SCALAR"
      },
      {
         "bufferView" : 53,
         "byteOffset" : 0,
         "componentType" : 5126,
         "count" : 105,
         "max" : [ -1.101168036460877, 2.835448980331421, -3.5159010887146 ],
         "min" : [ -3.913250923156738, 2.86102294921875e-006, -6.093873977661133 ],
         "type" : "VEC3"
      },
      {
         "bufferView" : 54,
         "byteOffset" : 0,
         "componentType" : 5126,
         "count" : 105,
         "type" : "VEC3"
      },
      {
         "bufferView" : 55,
         "byteOffset" : 0,
         "componentType" : 5126,
         "count" : 105,
         "max" : [ 1, 0.8389999866485596 ],
         "min" : [ 0, 0.178399994969368 ],
         "type" : "VEC2"
      },
      {
         "bufferView" : 56,
         "byteOffset" : 0,
         "componentType" : 5123,
         "count" : 1122,
         "max" : [ 215 ],
         "min" : [ 0 ],
         "type" : "SCALAR"
      },
      {
         "bufferView" : 57,
         "byteOffset" : 0,
         "componentType" : 5126,
         "count" : 216,
         "max" : [ -4.733561992645264, 4.392064094543457, -0.5720829963684082 ],
         "min" : [ -6.088698863983154, 9.5367431640625e-007, -1.927222013473511 ],
         "type" : "VEC3"
      },
      {
         "bufferView" : 58,
         "byteOffset" : 0,
         "componentType" : 5126,
         "count" : 216,
         "type" : "VEC3"
      },
      {
         "bufferView" : 59,
         "byteOffset" : 0,
         "componentType" : 5126,
         "count" : 216,
         "max" : [ 1.003100037574768, 0.9160000085830689 ],
         "min" : [ 0.003100000089034438, 0.1307999938726425 ],
         "type" : "VEC2"
      },
      {
         "bufferView" : 60,
         "byteOffset" : 0,
         "componentType" : 5123,
         "count" : 54,
         "max" : [ 27 ],
         "min" : [ 0 ],
         "type" : "SCALAR"
      },
      {
         "bufferView" : 61,
         "byteOffset" : 0,
         "componentType" : 5126,
         "count" : 28,
         "max" : [ 1.230232954025269, 2.195097923278809, 6.093873977661133 ],
         "min" : [ -1.101168036460877, 0, 4.430481910705566 ],
         "type" : "VEC3"
      },
      {
         "bufferView" : 62,
         "byteOffset" : 0,
         "componentType" : 5126,
         "count" : 28,
         "type" : "VEC3"
      },
      {
         "bufferView" : 63,
         "byteOffset" : 0,
         "componentType" : 5126,
         "count" : 28,
         "max" : [ 0.9972000122070313, 0.9994999766349793 ],
         "min" : [ -0.001099999994039536, -0.002899999963119626 ],
         "type" : "VEC2"
      },
      {
         "bufferView" : 64,
         "byteOffset" : 0,
         "componentType" : 5123,
         "count" : 96,
         "max" : [ 35 ],
         "min" : [ 0 ],
         "type" : "SCALAR"
      },
      {
         "bufferView" : 65,
         "byteOffset" : 0,
         "componentType" : 5126,
         "count" : 36,
         "max" : [ 1.230232954025269, 5.634853839874268, 2.208343029022217 ],
         "min" : [ -1.101168036460877, 4.062127113342285, -0.1230579987168312 ],
         "type" : "VEC3"
      },
      {
         "bufferView" : 66,
         "byteOffset" : 0,
         "componentType" : 5126,
         "count" : 36,
         "type" : "VEC3"
      },
      {
         "bufferView" : 67,
         "byteOffset" : 0,
         "componentType" : 5126,
         "count" : 36,
         "max" : [ 0.9858999848365784, 1.006800055503845 ],
         "min" : [ 0.02190000005066395, 0.006800000090152025 ],
         "type" : "VEC2"
      },
      {
         "bufferView" : 68,
         "byteOffset" : 0,
         "componentType" : 5123,
         "count" : 132,
         "max" : [ 35 ],
         "min" : [ 0 ],
         "type" : "SCALAR"
      },
      {
         "bufferView" : 69,
         "byteOffset" : 0,
         "componentType" : 5126,
         "count" : 36,
         "max" : [ 3.45237398147583, 4.062128067016602, 4.430482864379883 ],
         "min" : [ -3.323308944702148, 2.577581882476807, -2.345201015472412 ],
         "type" : "VEC3"
      },
      {
         "bufferView" : 70,
         "byteOffset" : 0,
         "componentType" : 5126,
         "count" : 36,
         "type" : "VEC3"
      },
      {
         "bufferView" : 71,
         "byteOffset" : 0,
         "componentType" : 5126,
         "count" : 36,
         "max" : [ 0.996999979019165, 0.9869999885559082 ],
         "min" : [ 0.01080000028014183, 0.01099999994039536 ],
         "type" : "VEC2"
      },
      {
         "bufferView" : 72,
         "byteOffset" : 0,
         "componentType" : 5123,
         "count" : 42,
         "max" : [ 23 ],
         "min" : [ 0 ],
         "type" : "SCALAR"
      },
      {
         "bufferView" : 73,
         "byteOffset" : 0,
         "componentType" : 5126,
         "count" : 24,
         "max" : [ -1.557487010955811, 4.428043842315674, 2.208343029022217 ],
         "min" : [ -3.451077938079834, 2.577584028244019, -0.1230600029230118 ],
         "type" : "VEC3"
      },
      {
         "bufferView" : 74,
         "byteOffset" : 0,
         "componentType" : 5126,
         "count" : 24,
         "type" : "VEC3"
      },
      {
         "bufferView" : 75,
         "byteOffset" : 0,
         "componentType" : 5126,
         "count" : 24,
         "max" : [ 0.9891999959945679, 0.9995999932289124 ],
         "min" : [ 0, 0.1462000012397766 ],
         "type" : "VEC2"
      },
      {
         "bufferView" : 76,
         "byteOffset" : 0,
         "componentType" : 5123,
         "count" : 42,
         "max" : [ 23 ],
         "min" : [ 0 ],
         "type" : "SCALAR"
      },
      {
         "bufferView" : 77,
         "byteOffset" : 0,
         "componentType" : 5126,
         "count" : 24,
         "max" : [ 1.230232954025269, 4.428041934967041, 4.558251857757568 ],
         "min" : [ -1.101168036460877, 2.577581882476807, 2.664661884307861 ],
         "type" : "VEC3"
      },
      {
         "bufferView" : 78,
         "byteOffset" : 0,
         "componentType" : 5126,
         "count" : 24,
         "type" : "VEC3"
      },
      {
         "bufferView" : 79,
         "byteOffset" : 0,
         "componentType" : 5126,
         "count" : 24,
         "max" : [ 1, 0.9886999726295471 ],
         "min" : [ 0, 0.03610000014305115 ],
         "type" : "VEC2"
      },
      {
         "bufferView" : 80,
         "byteOffset" : 0,
         "componentType" : 5123,
         "count" : 42,
         "max" : [ 23 ],
         "min" : [ 0 ],
         "type" : "SCALAR"
      },
      {
         "bufferView" : 81,
         "byteOffset" : 0,
         "componentType" : 5126,
         "count" : 24,
         "max" : [ 3.580142021179199, 4.428043842315674, 2.208343029022217 ],
         "min" : [ 1.686552047729492, 2.577584028244019, -0.1230600029230118 ],
         "type" : "VEC3"
      },
      {
         "bufferView" : 82,
         "byteOffset" : 0,
         "componentType" : 5126,
         "count" : 24,
         "type" : "VEC3"
      },
      {
         "bufferView" : 83,
         "byteOffset" : 0,
         "componentType" : 5126,
         "count" : 24,
         "max" : [ 0.996999979019165, 0.9957000017166138 ],
         "min" : [ 0.004000000189989805, 0.290800005197525 ],
         "type" : "VEC2"
      },
      {
         "bufferView" : 84,
         "byteOffset" : 0,
         "componentType" : 5123,
         "count" : 42,
         "max" : [ 23 ],
         "min" : [ 0 ],
         "type" : "SCALAR"
      },
      {
         "bufferView" : 85,
         "byteOffset" : 0,
         "componentType" : 5126,
         "count" : 24,
         "max" : [ 1.230232954025269, 4.428043842315674, -0.5793769955635071 ],
         "min" : [ -1.101168036460877, 2.577585935592651, -2.472970008850098 ],
         "type" : "VEC3"
      },
      {
         "bufferView" : 86,
         "byteOffset" : 0,
         "componentType" : 5126,
         "count" : 24,
         "type" : "VEC3"
      },
      {
         "bufferView" : 87,
         "byteOffset" : 0,
         "componentType" : 5126,
         "count" : 24,
         "max" : [ 0.9922000169754028, 0.9937000274658203 ],
         "min" : [ -0.007799999788403511, 0.02160000056028366 ],
         "type" : "VEC2"
      }
   ],
   "asset" : {
      "extras" : {
         "date" : "Tue Jan 03 08:36:01 2023",
         "website" : "http://www.unwrap3d.com"
      },
      "generator" : "Ultimate Unwrap3D Pro (x64) v3.50.61",
      "version" : "2.0"
   },
   "bufferViews" : [
      {
         "buffer" : 0,
         "byteLength" : 108,
         "byteOffset" : 0
      },
      {
         "buffer" : 0,
         "byteLength" : 216,
         "byteOffset" : 108,
         "byteStride" : 12
      },
      {
         "buffer" : 0,
         "byteLength" : 216,
         "byteOffset" : 324,
         "byteStride" : 12
      },
      {
         "buffer" : 0,
         "byteLength" : 144,
         "byteOffset" : 540,
         "byteStride" : 8
      },
      {
         "buffer" : 0,
         "byteLength" : 132,
         "byteOffset" : 684
      },
      {
         "buffer" : 0,
         "byteLength" : 240,
         "byteOffset" : 816,
         "byteStride" : 12
      },
      {
         "buffer" : 0,
         "byteLength" : 240,
         "byteOffset" : 1056,
         "byteStride" : 12
      },
      {
         "buffer" : 0,
         "byteLength" : 160,
         "byteOffset" : 1296,
         "byteStride" : 8
      },
      {
         "buffer" : 0,
         "byteLength" : 180,
         "byteOffset" : 1456
      },
      {
         "buffer" : 0,
         "byteLength" : 312,
         "byteOffset" : 1636,
         "byteStride" : 12
      },
      {
         "buffer" : 0,
         "byteLength" : 312,
         "byteOffset" : 1948,
         "byteStride" : 12
      },
      {
         "buffer" : 0,
         "byteLength" : 208,
         "byteOffset" : 2260,
         "byteStride" : 8
      },
      {
         "buffer" : 0,
         "byteLength" : 228,
         "byteOffset" : 2468
      },
      {
         "buffer" : 0,
         "byteLength" : 336,
         "byteOffset" : 2696,
         "byteStride" : 12
      },
      {
         "buffer" : 0,
         "byteLength" : 336,
         "byteOffset" : 3032,
         "byteStride" : 12
      },
      {
         "buffer" : 0,
         "byteLength" : 224,
         "byteOffset" : 3368,
         "byteStride" : 8
      },
      {
         "buffer" : 0,
         "byteLength" : 72,
         "byteOffset" : 3592
      },
      {
         "buffer" : 0,
         "byteLength" : 240,
         "byteOffset" : 3664,
         "byteStride" : 12
      },
      {
         "buffer" : 0,
         "byteLength" : 240,
         "byteOffset" : 3904,
         "byteStride" : 12
      },
      {
         "buffer" : 0,
         "byteLength" : 160,
         "byteOffset" : 4144,
         "byteStride" : 8
      },
      {
         "buffer" : 0,
         "byteLength" : 2244,
         "byteOffset" : 4304
      },
      {
         "buffer" : 0,
         "byteLength" : 2592,
         "byteOffset" : 6548,
         "byteStride" : 12
      },
      {
         "buffer" : 0,
         "byteLength" : 2592,
         "byteOffset" : 9140,
         "byteStride" : 12
      },
      {
         "buffer" : 0,
         "byteLength" : 1728,
         "byteOffset" : 11732,
         "byteStride" : 8
      },
      {
         "buffer" : 0,
         "byteLength" : 372,
         "byteOffset" : 13460
      },
      {
         "buffer" : 0,
         "byteLength" : 960,
         "byteOffset" : 13832,
         "byteStride" : 12
      },
      {
         "buffer" : 0,
         "byteLength" : 960,
         "byteOffset" : 14792,
         "byteStride" : 12
      },
      {
         "buffer" : 0,
         "byteLength" : 640,
         "byteOffset" : 15752,
         "byteStride" : 8
      },
      {
         "buffer" : 0,
         "byteLength" : 444,
         "byteOffset" : 16392
      },
      {
         "buffer" : 0,
         "byteLength" : 1260,
         "byteOffset" : 16836,
         "byteStride" : 12
      },
      {
         "buffer" : 0,
         "byteLength" : 1260,
         "byteOffset" : 18096,
         "byteStride" : 12
      },
      {
         "buffer" : 0,
         "byteLength" : 840,
         "byteOffset" : 19356,
         "byteStride" : 8
      },
      {
         "buffer" : 0,
         "byteLength" : 2244,
         "byteOffset" : 20196
      },
      {
         "buffer" : 0,
         "byteLength" : 2592,
         "byteOffset" : 22440,
         "byteStride" : 12
      },
      {
         "buffer" : 0,
         "byteLength" : 2592,
         "byteOffset" : 25032,
         "byteStride" : 12
      },
      {
         "buffer" : 0,
         "byteLength" : 1728,
         "byteOffset" : 27624,
         "byteStride" : 8
      },
      {
         "buffer" : 0,
         "byteLength" : 228,
         "byteOffset" : 29352
      },
      {
         "buffer" : 0,
         "byteLength" : 336,
         "byteOffset" : 29580,
         "byteStride" : 12
      },
      {
         "buffer" : 0,
         "byteLength" : 336,
         "byteOffset" : 29916,
         "byteStride" : 12
      },
      {
         "buffer" : 0,
         "byteLength" : 224,
         "byteOffset" : 30252,
         "byteStride" : 8
      },
      {
         "buffer" : 0,
         "byteLength" : 72,
         "byteOffset" : 30476
      },
      {
         "buffer" : 0,
         "byteLength" : 240,
         "byteOffset" : 30548,
         "byteStride" : 12
      },
      {
         "buffer" : 0,
         "byteLength" : 240,
         "byteOffset" : 30788,
         "byteStride" : 12
      },
      {
         "buffer" : 0,
         "byteLength" : 160,
         "byteOffset" : 31028,
         "byteStride" : 8
      },
      {
         "buffer" : 0,
         "byteLength" : 2244,
         "byteOffset" : 31188
      },
      {
         "buffer" : 0,
         "byteLength" : 2592,
         "byteOffset" : 33432,
         "byteStride" : 12
      },
      {
         "buffer" : 0,
         "byteLength" : 2592,
         "byteOffset" : 36024,
         "byteStride" : 12
      },
      {
         "buffer" : 0,
         "byteLength" : 1728,
         "byteOffset" : 38616,
         "byteStride" : 8
      },
      {
         "buffer" : 0,
         "byteLength" : 372,
         "byteOffset" : 40344
      },
      {
         "buffer" : 0,
         "byteLength" : 912,
         "byteOffset" : 40716,
         "byteStride" : 12
      },
      {
         "buffer" : 0,
         "byteLength" : 912,
         "byteOffset" : 41628,
         "byteStride" : 12
      },
      {
         "buffer" : 0,
         "byteLength" : 608,
         "byteOffset" : 42540,
         "byteStride" : 8
      },
      {
         "buffer" : 0,
         "byteLength" : 444,
         "byteOffset" : 43148
      },
      {
         "buffer" : 0,
         "byteLength" : 1260,
         "byteOffset" : 43592,
         "byteStride" : 12
      },
      {
         "buffer" : 0,
         "byteLength" : 1260,
         "byteOffset" : 44852,
         "byteStride" : 12
      },
      {
         "buffer" : 0,
         "byteLength" : 840,
         "byteOffset" : 46112,
         "byteStride" : 8
      },
      {
         "buffer" : 0,
         "byteLength" : 2244,
         "byteOffset" : 46952
      },
      {
         "buffer" : 0,
         "byteLength" : 2592,
         "byteOffset" : 49196,
         "byteStride" : 12
      },
      {
         "buffer" : 0,
         "byteLength" : 2592,
         "byteOffset" : 51788,
         "byteStride" : 12
      },
      {
         "buffer" : 0,
         "byteLength" : 1728,
         "byteOffset" : 54380,
         "byteStride" : 8
      },
      {
         "buffer" : 0,
         "byteLength" : 108,
         "byteOffset" : 56108
      },
      {
         "buffer" : 0,
         "byteLength" : 336,
         "byteOffset" : 56216,
         "byteStride" : 12
      },
      {
         "buffer" : 0,
         "byteLength" : 336,
         "byteOffset" : 56552,
         "byteStride" : 12
      },
      {
         "buffer" : 0,
         "byteLength" : 224,
         "byteOffset" : 56888,
         "byteStride" : 8
      },
      {
         "buffer" : 0,
         "byteLength" : 192,
         "byteOffset" : 57112
      },
      {
         "buffer" : 0,
         "byteLength" : 432,
         "byteOffset" : 57304,
         "byteStride" : 12
      },
      {
         "buffer" : 0,
         "byteLength" : 432,
         "byteOffset" : 57736,
         "byteStride" : 12
      },
      {
         "buffer" : 0,
         "byteLength" : 288,
         "byteOffset" : 58168,
         "byteStride" : 8
      },
      {
         "buffer" : 0,
         "byteLength" : 264,
         "byteOffset" : 58456
      },
      {
         "buffer" : 0,
         "byteLength" : 432,
         "byteOffset" : 58720,
         "byteStride" : 12
      },
      {
         "buffer" : 0,
         "byteLength" : 432,
         "byteOffset" : 59152,
         "byteStride" : 12
      },
      {
         "buffer" : 0,
         "byteLength" : 288,
         "byteOffset" : 59584,
         "byteStride" : 8
      },
      {
         "buffer" : 0,
         "byteLength" : 84,
         "byteOffset" : 59872
      },
      {
         "buffer" : 0,
         "byteLength" : 288,
         "byteOffset" : 59956,
         "byteStride" : 12
      },
      {
         "buffer" : 0,
         "byteLength" : 288,
         "byteOffset" : 60244,
         "byteStride" : 12
      },
      {
         "buffer" : 0,
         "byteLength" : 192,
         "byteOffset" : 60532,
         "byteStride" : 8
      },
      {
         "buffer" : 0,
         "byteLength" : 84,
         "byteOffset" : 60724
      },
      {
         "buffer" : 0,
         "byteLength" : 288,
         "byteOffset" : 60808,
         "byteStride" : 12
      },
      {
         "buffer" : 0,
         "byteLength" : 288,
         "byteOffset" : 61096,
         "byteStride" : 12
      },
      {
         "buffer" : 0,
         "byteLength" : 192,
         "byteOffset" : 61384,
         "byteStride" : 8
      },
      {
         "buffer" : 0,
         "byteLength" : 84,
         "byteOffset" : 61576
      },
      {
         "buffer" : 0,
         "byteLength" : 288,
         "byteOffset" : 61660,
         "byteStride" : 12
      },
      {
         "buffer" : 0,
         "byteLength" : 288,
         "byteOffset" : 61948,
         "byteStride" : 12
      },
      {
         "buffer" : 0,
         "byteLength" : 192,
         "byteOffset" : 62236,
         "byteStride" : 8
      },
      {
         "buffer" : 0,
         "byteLength" : 84,
         "byteOffset" : 62428
      },
      {
         "buffer" : 0,
         "byteLength" : 288,
         "byteOffset" : 62512,
         "byteStride" : 12
      },
      {
         "buffer" : 0,
         "byteLength" : 288,
         "byteOffset" : 62800,
         "byteStride" : 12
      },
      {
         "buffer" : 0,
         "byteLength" : 192,
         "byteOffset" : 63088,
         "byteStride" : 8
      }
   ],
   "buffers" : [
      {
         "byteLength" : 63280,
         "uri" : "altar0.bin"
      }
   ],
   "materials" : [
      {
         "name" : "concrete_smooth0",
         "pbrMetallicRoughness" : {
            "baseColorFactor" : [ 1, 1, 1, 1 ],
            "metallicFactor" : 0
         }
      },
      {
         "name" : "floor",
         "pbrMetallicRoughness" : {
            "baseColorFactor" : [ 1, 1, 1, 1 ],
            "metallicFactor" : 0
         }
      },
      {
         "name" : "concrete_smooth1",
         "pbrMetallicRoughness" : {
            "baseColorFactor" : [ 1, 1, 1, 1 ],
            "metallicFactor" : 0
         }
      },
      {
         "name" : "concrete_smooth2",
         "pbrMetallicRoughness" : {
            "baseColorFactor" : [ 1, 1, 1, 1 ],
            "metallicFactor" : 0
         }
      },
      {
         "name" : "matPBRPlasticScuffedBlue3",
         "pbrMetallicRoughness" : {
            "baseColorFactor" : [ 1, 1, 1, 1 ],
            "metallicFactor" : 0
         }
      },
      {
         "name" : "matPBRPlasticScuffedBlue4",
         "pbrMetallicRoughness" : {
            "baseColorFactor" : [ 1, 1, 1, 1 ],
            "metallicFactor" : 0
         }
      },
      {
         "name" : "matPBRPlasticScuffedBlue5",
         "pbrMetallicRoughness" : {
            "baseColorFactor" : [ 1, 1, 1, 1 ],
            "metallicFactor" : 0
         }
      },
      {
         "name" : "matPBRPlasticScuffedBlue6",
         "pbrMetallicRoughness" : {
            "baseColorFactor" : [ 1, 1, 1, 1 ],
            "metallicFactor" : 0
         }
      },
      {
         "name" : "matPBRPlasticScuffedBlue7",
         "pbrMetallicRoughness" : {
            "baseColorFactor" : [ 1, 1, 1, 1 ],
            "metallicFactor" : 0
         }
      },
      {
         "name" : "concrete_smooth8",
         "pbrMetallicRoughness" : {
            "baseColorFactor" : [ 1, 1, 1, 1 ],
            "metallicFactor" : 0
         }
      },
      {
         "name" : "matPBRPlasticScuffedBlue9",
         "pbrMetallicRoughness" : {
            "baseColorFactor" : [ 1, 1, 1, 1 ],
            "metallicFactor" : 0
         }
      },
      {
         "name" : "matPBRPlasticScuffedBlue10",
         "pbrMetallicRoughness" : {
            "baseColorFactor" : [ 1, 1, 1, 1 ],
            "metallicFactor" : 0
         }
      },
      {
         "name" : "matPBRPlasticScuffedBlue11",
         "pbrMetallicRoughness" : {
            "baseColorFactor" : [ 1, 1, 1, 1 ],
            "metallicFactor" : 0
         }
      },
      {
         "name" : "matPBRPlasticScuffedBlue12",
         "pbrMetallicRoughness" : {
            "baseColorFactor" : [ 1, 1, 1, 1 ],
            "metallicFactor" : 0
         }
      },
      {
         "name" : "matPBRPlasticScuffedBlue13",
         "pbrMetallicRoughness" : {
            "baseColorFactor" : [ 1, 1, 1, 1 ],
            "metallicFactor" : 0
         }
      },
      {
         "name" : "matPBRPlasticScuffedBlue14",
         "pbrMetallicRoughness" : {
            "baseColorFactor" : [ 1, 1, 1, 1 ],
            "metallicFactor" : 0
         }
      },
      {
         "name" : "matPBRPlasticScuffedBlue15",
         "pbrMetallicRoughness" : {
            "baseColorFactor" : [ 1, 1, 1, 1 ],
            "metallicFactor" : 0
         }
      },
      {
         "name" : "concrete_smooth",
         "pbrMetallicRoughness" : {
            "baseColorFactor" : [ 1, 1, 1, 1 ],
            "metallicFactor" : 0
         }
      },
      {
         "name" : "matPBRPlasticScuffedBlue16",
         "pbrMetallicRoughness" : {
            "baseColorFactor" : [ 1, 1, 1, 1 ],
            "metallicFactor" : 0
         }
      },
      {
         "name" : "matPBRPlasticScuffedBlue17",
         "pbrMetallicRoughness" : {
            "baseColorFactor" : [ 1, 1, 1, 1 ],
            "metallicFactor" : 0
         }
      },
      {
         "name" : "matPBRPlasticScuffedBlue18",
         "pbrMetallicRoughness" : {
            "baseColorFactor" : [ 1, 1, 1, 1 ],
            "metallicFactor" : 0
         }
      },
      {
         "name" : "matPBRPlasticScuffedBlue",
         "pbrMetallicRoughness" : {
            "baseColorFactor" : [ 1, 1, 1, 1 ],
            "metallicFactor" : 0
         }
      }
   ],
   "meshes" : [
      {
         "name" : "StaticMesh",
         "primitives" : [
            {
               "attributes" : {
                  "NORMAL" : 2,
                  "POSITION" : 1,
                  "TEXCOORD_0" : 3
               },
               "indices" : 0,
               "material" : 0,
               "mode" : 4
            },
            {
               "attributes" : {
                  "NORMAL" : 6,
                  "POSITION" : 5,
                  "TEXCOORD_0" : 7
               },
               "indices" : 4,
               "material" : 1,
               "mode" : 4
            },
            {
               "attributes" : {
                  "NORMAL" : 10,
                  "POSITION" : 9,
                  "TEXCOORD_0" : 11
               },
               "indices" : 8,
               "material" : 2,
               "mode" : 4
            },
            {
               "attributes" : {
                  "NORMAL" : 14,
                  "POSITION" : 13,
                  "TEXCOORD_0" : 15
               },
               "indices" : 12,
               "material" : 3,
               "mode" : 4
            },
            {
               "attributes" : {
                  "NORMAL" : 18,
                  "POSITION" : 17,
                  "TEXCOORD_0" : 19
               },
               "indices" : 16,
               "material" : 4,
               "mode" : 4
            },
            {
               "attributes" : {
                  "NORMAL" : 22,
                  "POSITION" : 21,
                  "TEXCOORD_0" : 23
               },
               "indices" : 20,
               "material" : 5,
               "mode" : 4
            },
            {
               "attributes" : {
                  "NORMAL" : 26,
                  "POSITION" : 25,
                  "TEXCOORD_0" : 27
               },
               "indices" : 24,
               "material" : 6,
               "mode" : 4
            },
            {
               "attributes" : {
                  "NORMAL" : 30,
                  "POSITION" : 29,
                  "TEXCOORD_0" : 31
               },
               "indices" : 28,
               "material" : 7,
               "mode" : 4
            },
            {
               "attributes" : {
                  "NORMAL" : 34,
                  "POSITION" : 33,
                  "TEXCOORD_0" : 35
               },
               "indices" : 32,
               "material" : 8,
               "mode" : 4
            },
            {
               "attributes" : {
                  "NORMAL" : 38,
                  "POSITION" : 37,
                  "TEXCOORD_0" : 39
               },
               "indices" : 36,
               "material" : 9,
               "mode" : 4
            },
            {
               "attributes" : {
                  "NORMAL" : 42,
                  "POSITION" : 41,
                  "TEXCOORD_0" : 43
               },
               "indices" : 40,
               "material" : 10,
               "mode" : 4
            },
            {
               "attributes" : {
                  "NORMAL" : 46,
                  "POSITION" : 45,
                  "TEXCOORD_0" : 47
               },
               "indices" : 44,
               "material" : 11,
               "mode" : 4
            },
            {
               "attributes" : {
                  "NORMAL" : 50,
                  "POSITION" : 49,
                  "TEXCOORD_0" : 51
               },
               "indices" : 48,
               "material" : 12,
               "mode" : 4
            },
            {
               "attributes" : {
                  "NORMAL" : 54,
                  "POSITION" : 53,
                  "TEXCOORD_0" : 55
               },
               "indices" : 52,
               "material" : 13,
               "mode" : 4
            },
            {
               "attributes" : {
                  "NORMAL" : 58,
                  "POSITION" : 57,
                  "TEXCOORD_0" : 59
               },
               "indices" : 56,
               "material" : 14,
               "mode" : 4
            },
            {
               "attributes" : {
                  "NORMAL" : 62,
                  "POSITION" : 61,
                  "TEXCOORD_0" : 63
               },
               "indices" : 60,
               "material" : 15,
               "mode" : 4
            },
            {
               "attributes" : {
                  "NORMAL" : 66,
                  "POSITION" : 65,
                  "TEXCOORD_0" : 67
               },
               "indices" : 64,
               "material" : 16,
               "mode" : 4
            },
            {
               "attributes" : {
                  "NORMAL" : 70,
                  "POSITION" : 69,
                  "TEXCOORD_0" : 71
               },
               "indices" : 68,
               "material" : 17,
               "mode" : 4
            },
            {
               "attributes" : {
                  "NORMAL" : 74,
                  "POSITION" : 73,
                  "TEXCOORD_0" : 75
               },
               "indices" : 72,
               "material" : 18,
               "mode" : 4
            },
            {
               "attributes" : {
                  "NORMAL" : 78,
                  "POSITION" : 77,
                  "TEXCOORD_0" : 79
               },
               "indices" : 76,
               "material" : 19,
               "mode" : 4
            },
            {
               "attributes" : {
                  "NORMAL" : 82,
                  "POSITION" : 81,
                  "TEXCOORD_0" : 83
               },
               "indices" : 80,
               "material" : 20,
               "mode" : 4
            },
            {
               "attributes" : {
                  "NORMAL" : 86,
                  "POSITION" : 85,
                  "TEXCOORD_0" : 87
               },
               "indices" : 84,
               "material" : 21,
               "mode" : 4
            }
         ]
      }
   ],
   "nodes" : [
      {
         "mesh" : 0,
         "name" : "StaticMesh"
      }
   ],
   "scene" : 0,
   "scenes" : [
      {
         "nodes" : [ 0 ]
      }
   ]
}
