{
   "accessors" : [
      {
         "bufferView" : 0,
         "byteOffset" : 0,
         "componentType" : 5123,
         "count" : 2835,
         "max" : [ 1125 ],
         "min" : [ 0 ],
         "type" : "SCALAR"
      },
      {
         "bufferView" : 1,
         "byteOffset" : 0,
         "componentType" : 5126,
         "count" : 1126,
         "max" : [ 4.792223930358887, 3.694685935974121, 4.817653179168701 ],
         "min" : [ -4.792223930358887, 0, -4.817653179168701 ],
         "type" : "VEC3"
      },
      {
         "bufferView" : 2,
         "byteOffset" : 0,
         "componentType" : 5126,
         "count" : 1126,
         "type" : "VEC3"
      },
      {
         "bufferView" : 3,
         "byteOffset" : 0,
         "componentType" : 5126,
         "count" : 1126,
         "max" : [ 1.057100057601929, 1.054200053215027 ],
         "min" : [ -0.05710000172257423, -0.05420000106096268 ],
         "type" : "VEC2"
      },
      {
         "bufferView" : 4,
         "byteOffset" : 0,
         "componentType" : 5123,
         "count" : 504,
         "max" : [ 163 ],
         "min" : [ 0 ],
         "type" : "SCALAR"
      },
      {
         "bufferView" : 5,
         "byteOffset" : 0,
         "componentType" : 5126,
         "count" : 164,
         "max" : [ 3.782835006713867, 2.182750940322876, 3.790941953659058 ],
         "min" : [ 2.651206016540527, 1.459442973136902, 2.659316062927246 ],
         "type" : "VEC3"
      },
      {
         "bufferView" : 6,
         "byteOffset" : 0,
         "componentType" : 5126,
         "count" : 164,
         "type" : "VEC3"
      },
      {
         "bufferView" : 7,
         "byteOffset" : 0,
         "componentType" : 5126,
         "count" : 164,
         "max" : [ 0.8210999965667725, 0.8097000122070313 ],
         "min" : [ 0.1923999935388565, 0.5542999505996704 ],
         "type" : "VEC2"
      },
      {
         "bufferView" : 8,
         "byteOffset" : 0,
         "componentType" : 5123,
         "count" : 504,
         "max" : [ 163 ],
         "min" : [ 0 ],
         "type" : "SCALAR"
      },
      {
         "bufferView" : 9,
         "byteOffset" : 0,
         "componentType" : 5126,
         "count" : 164,
         "max" : [ 3.784400939941406, 2.182750940322876, -2.656939029693604 ],
         "min" : [ 2.652775049209595, 1.459442973136902, -3.788567066192627 ],
         "type" : "VEC3"
      },
      {
         "bufferView" : 10,
         "byteOffset" : 0,
         "componentType" : 5126,
         "count" : 164,
         "type" : "VEC3"
      },
      {
         "bufferView" : 11,
         "byteOffset" : 0,
         "componentType" : 5126,
         "count" : 164,
         "max" : [ 0.8210999965667725, 0.8097000122070313 ],
         "min" : [ 0.1923999935388565, 0.5542999505996704 ],
         "type" : "VEC2"
      },
      {
         "bufferView" : 12,
         "byteOffset" : 0,
         "componentType" : 5123,
         "count" : 504,
         "max" : [ 163 ],
         "min" : [ 0 ],
         "type" : "SCALAR"
      },
      {
         "bufferView" : 13,
         "byteOffset" : 0,
         "componentType" : 5126,
         "count" : 164,
         "max" : [ -2.652961015701294, 2.182750940322876, -2.656805992126465 ],
         "min" : [ -3.784589052200317, 1.459442973136902, -3.788432121276856 ],
         "type" : "VEC3"
      },
      {
         "bufferView" : 14,
         "byteOffset" : 0,
         "componentType" : 5126,
         "count" : 164,
         "type" : "VEC3"
      },
      {
         "bufferView" : 15,
         "byteOffset" : 0,
         "componentType" : 5126,
         "count" : 164,
         "max" : [ 0.8210999965667725, 0.8097000122070313 ],
         "min" : [ 0.1923999935388565, 0.5542999505996704 ],
         "type" : "VEC2"
      },
      {
         "bufferView" : 16,
         "byteOffset" : 0,
         "componentType" : 5123,
         "count" : 504,
         "max" : [ 163 ],
         "min" : [ 0 ],
         "type" : "SCALAR"
      },
      {
         "bufferView" : 17,
         "byteOffset" : 0,
         "componentType" : 5126,
         "count" : 164,
         "max" : [ -2.652959108352661, 2.182750940322876, 3.788437843322754 ],
         "min" : [ -3.784586906433106, 1.459442973136902, 2.65681004524231 ],
         "type" : "VEC3"
      },
      {
         "bufferView" : 18,
         "byteOffset" : 0,
         "componentType" : 5126,
         "count" : 164,
         "type" : "VEC3"
      },
      {
         "bufferView" : 19,
         "byteOffset" : 0,
         "componentType" : 5126,
         "count" : 164,
         "max" : [ 0.8210999965667725, 0.8097000122070313 ],
         "min" : [ 0.1923999935388565, 0.5542999505996704 ],
         "type" : "VEC2"
      },
      {
         "bufferView" : 20,
         "byteOffset" : 0,
         "componentType" : 5123,
         "count" : 192,
         "max" : [ 63 ],
         "min" : [ 0 ],
         "type" : "SCALAR"
      },
      {
         "bufferView" : 21,
         "byteOffset" : 0,
         "componentType" : 5126,
         "count" : 64,
         "max" : [ 1.105810046195984, 0.4737670421600342, 4.76166582107544 ],
         "min" : [ -1.105808019638062, 0.03755998611450195, -4.761663913726807 ],
         "type" : "VEC3"
      },
      {
         "bufferView" : 22,
         "byteOffset" : 0,
         "componentType" : 5126,
         "count" : 64,
         "type" : "VEC3"
      },
      {
         "bufferView" : 23,
         "byteOffset" : 0,
         "componentType" : 5126,
         "count" : 64,
         "max" : [ 1.044100046157837, 1.040799975395203 ],
         "min" : [ 0.3409000039100647, -0.05420000106096268 ],
         "type" : "VEC2"
      },
      {
         "bufferView" : 24,
         "byteOffset" : 0,
         "componentType" : 5123,
         "count" : 456,
         "max" : [ 180 ],
         "min" : [ 0 ],
         "type" : "SCALAR"
      },
      {
         "bufferView" : 25,
         "byteOffset" : 0,
         "componentType" : 5126,
         "count" : 181,
         "max" : [ -2.357439994812012, 2.465795993804932, 4.817653179168701 ],
         "min" : [ -4.792219161987305, 0.2490708827972412, 2.382873058319092 ],
         "type" : "VEC3"
      },
      {
         "bufferView" : 26,
         "byteOffset" : 0,
         "componentType" : 5126,
         "count" : 181,
         "type" : "VEC3"
      },
      {
         "bufferView" : 27,
         "byteOffset" : 0,
         "componentType" : 5126,
         "count" : 181,
         "max" : [ 1.057100057601929, 1.054200053215027 ],
         "min" : [ -0.05420000106096268, 0.4819999933242798 ],
         "type" : "VEC2"
      },
      {
         "bufferView" : 28,
         "byteOffset" : 0,
         "componentType" : 5123,
         "count" : 471,
         "max" : [ 187 ],
         "min" : [ 0 ],
         "type" : "SCALAR"
      },
      {
         "bufferView" : 29,
         "byteOffset" : 0,
         "componentType" : 5126,
         "count" : 188,
         "max" : [ 4.792223930358887, 2.465795993804932, 4.817648887634277 ],
         "min" : [ 2.357445955276489, 0.2490708827972412, 2.382868051528931 ],
         "type" : "VEC3"
      },
      {
         "bufferView" : 30,
         "byteOffset" : 0,
         "componentType" : 5126,
         "count" : 188,
         "type" : "VEC3"
      },
      {
         "bufferView" : 31,
         "byteOffset" : 0,
         "componentType" : 5126,
         "count" : 188,
         "max" : [ 1.057100057601929, 1.054200053215027 ],
         "min" : [ -0.05420000106096268, 0.4819999933242798 ],
         "type" : "VEC2"
      },
      {
         "bufferView" : 32,
         "byteOffset" : 0,
         "componentType" : 5123,
         "count" : 447,
         "max" : [ 177 ],
         "min" : [ 0 ],
         "type" : "SCALAR"
      },
      {
         "bufferView" : 33,
         "byteOffset" : 0,
         "componentType" : 5126,
         "count" : 178,
         "max" : [ 4.792220115661621, 2.465795993804932, -2.382871150970459 ],
         "min" : [ 2.357439994812012, 0.2490708827972412, -4.817653179168701 ],
         "type" : "VEC3"
      },
      {
         "bufferView" : 34,
         "byteOffset" : 0,
         "componentType" : 5126,
         "count" : 178,
         "type" : "VEC3"
      },
      {
         "bufferView" : 35,
         "byteOffset" : 0,
         "componentType" : 5126,
         "count" : 178,
         "max" : [ 1.057100057601929, 1.054200053215027 ],
         "min" : [ -0.05420000106096268, 0.4819999933242798 ],
         "type" : "VEC2"
      },
      {
         "bufferView" : 36,
         "byteOffset" : 0,
         "componentType" : 5123,
         "count" : 471,
         "max" : [ 187 ],
         "min" : [ 0 ],
         "type" : "SCALAR"
      },
      {
         "bufferView" : 37,
         "byteOffset" : 0,
         "componentType" : 5126,
         "count" : 188,
         "max" : [ -2.35744309425354, 2.465795993804932, -2.382869005203247 ],
         "min" : [ -4.792223930358887, 0.2490708827972412, -4.817646980285645 ],
         "type" : "VEC3"
      },
      {
         "bufferView" : 38,
         "byteOffset" : 0,
         "componentType" : 5126,
         "count" : 188,
         "type" : "VEC3"
      },
      {
         "bufferView" : 39,
         "byteOffset" : 0,
         "componentType" : 5126,
         "count" : 188,
         "max" : [ 1.057100057601929, 1.054200053215027 ],
         "min" : [ -0.05420000106096268, 0.4819999933242798 ],
         "type" : "VEC2"
      },
      {
         "bufferView" : 40,
         "byteOffset" : 0,
         "componentType" : 5123,
         "count" : 342,
         "max" : [ 104 ],
         "min" : [ 0 ],
         "type" : "SCALAR"
      },
      {
         "bufferView" : 41,
         "byteOffset" : 0,
         "componentType" : 5126,
         "count" : 105,
         "max" : [ -0.9662380218505859, 3.150168895721436, 4.470653057098389 ],
         "min" : [ -2.341670989990234, 0.04935908317565918, 2.393772840499878 ],
         "type" : "VEC3"
      },
      {
         "bufferView" : 42,
         "byteOffset" : 0,
         "componentType" : 5126,
         "count" : 105,
         "type" : "VEC3"
      },
      {
         "bufferView" : 43,
         "byteOffset" : 0,
         "componentType" : 5126,
         "count" : 105,
         "max" : [ 0.9768000245094299, 1.040799975395203 ],
         "min" : [ 0.02319999970495701, 0.1870000064373016 ],
         "type" : "VEC2"
      },
      {
         "bufferView" : 44,
         "byteOffset" : 0,
         "componentType" : 5123,
         "count" : 342,
         "max" : [ 104 ],
         "min" : [ 0 ],
         "type" : "SCALAR"
      },
      {
         "bufferView" : 45,
         "byteOffset" : 0,
         "componentType" : 5126,
         "count" : 105,
         "max" : [ 2.341677904129028, 3.150168895721436, 4.470652103424072 ],
         "min" : [ 0.9662439823150635, 0.04935908317565918, 2.393770933151245 ],
         "type" : "VEC3"
      },
      {
         "bufferView" : 46,
         "byteOffset" : 0,
         "componentType" : 5126,
         "count" : 105,
         "type" : "VEC3"
      },
      {
         "bufferView" : 47,
         "byteOffset" : 0,
         "componentType" : 5126,
         "count" : 105,
         "max" : [ 0.9768000245094299, 1.040799975395203 ],
         "min" : [ 0.02319999970495701, 0.1870000064373016 ],
         "type" : "VEC2"
      },
      {
         "bufferView" : 48,
         "byteOffset" : 0,
         "componentType" : 5123,
         "count" : 342,
         "max" : [ 104 ],
         "min" : [ 0 ],
         "type" : "SCALAR"
      },
      {
         "bufferView" : 49,
         "byteOffset" : 0,
         "componentType" : 5126,
         "count" : 105,
         "max" : [ 2.341670989990234, 3.150168895721436, -2.393770933151245 ],
         "min" : [ 0.9662380218505859, 0.04935908317565918, -4.470654010772705 ],
         "type" : "VEC3"
      },
      {
         "bufferView" : 50,
         "byteOffset" : 0,
         "componentType" : 5126,
         "count" : 105,
         "type" : "VEC3"
      },
      {
         "bufferView" : 51,
         "byteOffset" : 0,
         "componentType" : 5126,
         "count" : 105,
         "max" : [ 0.9768000245094299, 1.040799975395203 ],
         "min" : [ 0.02319999970495701, 0.1870000064373016 ],
         "type" : "VEC2"
      },
      {
         "bufferView" : 52,
         "byteOffset" : 0,
         "componentType" : 5123,
         "count" : 339,
         "max" : [ 103 ],
         "min" : [ 0 ],
         "type" : "SCALAR"
      },
      {
         "bufferView" : 53,
         "byteOffset" : 0,
         "componentType" : 5126,
         "count" : 104,
         "max" : [ -0.9662439823150635, 3.150168895721436, -2.393769025802612 ],
         "min" : [ -2.341674089431763, 0.04935908317565918, -4.470649242401123 ],
         "type" : "VEC3"
      },
      {
         "bufferView" : 54,
         "byteOffset" : 0,
         "componentType" : 5126,
         "count" : 104,
         "type" : "VEC3"
      },
      {
         "bufferView" : 55,
         "byteOffset" : 0,
         "componentType" : 5126,
         "count" : 104,
         "max" : [ 0.9768000245094299, 1.040799975395203 ],
         "min" : [ 0.02319999970495701, 0.1870000064373016 ],
         "type" : "VEC2"
      },
      {
         "bufferView" : 56,
         "byteOffset" : 0,
         "componentType" : 5123,
         "count" : 54,
         "max" : [ 23 ],
         "min" : [ 0 ],
         "type" : "SCALAR"
      },
      {
         "bufferView" : 57,
         "byteOffset" : 0,
         "componentType" : 5126,
         "count" : 24,
         "max" : [ 4.124073028564453, 2.70360803604126, 2.243978023529053 ],
         "min" : [ 3.535971879959106, 2.076276063919067, 1.007710933685303 ],
         "type" : "VEC3"
      },
      {
         "bufferView" : 58,
         "byteOffset" : 0,
         "componentType" : 5126,
         "count" : 24,
         "type" : "VEC3"
      },
      {
         "bufferView" : 59,
         "byteOffset" : 0,
         "componentType" : 5126,
         "count" : 24,
         "max" : [ 0.871399998664856, 0.8177000284194946 ],
         "min" : [ 0.128600001335144, 0.4269999861717224 ],
         "type" : "VEC2"
      },
      {
         "bufferView" : 60,
         "byteOffset" : 0,
         "componentType" : 5123,
         "count" : 54,
         "max" : [ 23 ],
         "min" : [ 0 ],
         "type" : "SCALAR"
      },
      {
         "bufferView" : 61,
         "byteOffset" : 0,
         "componentType" : 5126,
         "count" : 24,
         "max" : [ 4.124072074890137, 2.70360803604126, -1.007716059684753 ],
         "min" : [ 3.535969972610474, 2.076276063919067, -2.243981122970581 ],
         "type" : "VEC3"
      },
      {
         "bufferView" : 62,
         "byteOffset" : 0,
         "componentType" : 5126,
         "count" : 24,
         "type" : "VEC3"
      },
      {
         "bufferView" : 63,
         "byteOffset" : 0,
         "componentType" : 5126,
         "count" : 24,
         "max" : [ 0.871399998664856, 0.8177000284194946 ],
         "min" : [ 0.128600001335144, 0.4269999861717224 ],
         "type" : "VEC2"
      },
      {
         "bufferView" : 64,
         "byteOffset" : 0,
         "componentType" : 5123,
         "count" : 228,
         "max" : [ 81 ],
         "min" : [ 0 ],
         "type" : "SCALAR"
      },
      {
         "bufferView" : 65,
         "byteOffset" : 0,
         "componentType" : 5126,
         "count" : 82,
         "max" : [ 3.295232057571411, 3.921446084976196, 0.8058469295501709 ],
         "min" : [ 1.22077202796936, 2.76649808883667, 0.1778519600629807 ],
         "type" : "VEC3"
      },
      {
         "bufferView" : 66,
         "byteOffset" : 0,
         "componentType" : 5126,
         "count" : 82,
         "type" : "VEC3"
      },
      {
         "bufferView" : 67,
         "byteOffset" : 0,
         "componentType" : 5126,
         "count" : 82,
         "max" : [ 1.016000032424927, 0.6916000247001648 ],
         "min" : [ -0.01600000075995922, 0.1518000066280365 ],
         "type" : "VEC2"
      },
      {
         "bufferView" : 68,
         "byteOffset" : 0,
         "componentType" : 5123,
         "count" : 228,
         "max" : [ 81 ],
         "min" : [ 0 ],
         "type" : "SCALAR"
      },
      {
         "bufferView" : 69,
         "byteOffset" : 0,
         "componentType" : 5126,
         "count" : 82,
         "max" : [ 3.295231103897095, 3.921446084976196, -0.1778540462255478 ],
         "min" : [ 1.220770001411438, 2.76649808883667, -0.8058480620384216 ],
         "type" : "VEC3"
      },
      {
         "bufferView" : 70,
         "byteOffset" : 0,
         "componentType" : 5126,
         "count" : 82,
         "type" : "VEC3"
      },
      {
         "bufferView" : 71,
         "byteOffset" : 0,
         "componentType" : 5126,
         "count" : 82,
         "max" : [ 1.016000032424927, 0.6916000247001648 ],
         "min" : [ -0.01600000075995922, 0.1518000066280365 ],
         "type" : "VEC2"
      },
      {
         "bufferView" : 72,
         "byteOffset" : 0,
         "componentType" : 5123,
         "count" : 228,
         "max" : [ 81 ],
         "min" : [ 0 ],
         "type" : "SCALAR"
      },
      {
         "bufferView" : 73,
         "byteOffset" : 0,
         "componentType" : 5126,
         "count" : 82,
         "max" : [ -1.220770955085754, 3.921446084976196, -0.1778500527143478 ],
         "min" : [ -3.295231103897095, 2.76649808883667, -0.8058460354804993 ],
         "type" : "VEC3"
      },
      {
         "bufferView" : 74,
         "byteOffset" : 0,
         "componentType" : 5126,
         "count" : 82,
         "type" : "VEC3"
      },
      {
         "bufferView" : 75,
         "byteOffset" : 0,
         "componentType" : 5126,
         "count" : 82,
         "max" : [ 1.016000032424927, 0.6916000247001648 ],
         "min" : [ -0.01600000075995922, 0.1518000066280365 ],
         "type" : "VEC2"
      },
      {
         "bufferView" : 76,
         "byteOffset" : 0,
         "componentType" : 5123,
         "count" : 228,
         "max" : [ 81 ],
         "min" : [ 0 ],
         "type" : "SCALAR"
      },
      {
         "bufferView" : 77,
         "byteOffset" : 0,
         "componentType" : 5126,
         "count" : 82,
         "max" : [ -1.220770001411438, 3.921446084976196, 0.8058499693870544 ],
         "min" : [ -3.295229911804199, 2.76649808883667, 0.1778539568185806 ],
         "type" : "VEC3"
      },
      {
         "bufferView" : 78,
         "byteOffset" : 0,
         "componentType" : 5126,
         "count" : 82,
         "type" : "VEC3"
      },
      {
         "bufferView" : 79,
         "byteOffset" : 0,
         "componentType" : 5126,
         "count" : 82,
         "max" : [ 1.016000032424927, 0.6916000247001648 ],
         "min" : [ -0.01600000075995922, 0.1518000066280365 ],
         "type" : "VEC2"
      },
      {
         "bufferView" : 80,
         "byteOffset" : 0,
         "componentType" : 5123,
         "count" : 120,
         "max" : [ 46 ],
         "min" : [ 0 ],
         "type" : "SCALAR"
      },
      {
         "bufferView" : 81,
         "byteOffset" : 0,
         "componentType" : 5126,
         "count" : 47,
         "max" : [ 1.04292094707489, 4.28278398513794, 0.9837009906768799 ],
         "min" : [ -1.042917013168335, 3.694685935974121, -0.9836990833282471 ],
         "type" : "VEC3"
      },
      {
         "bufferView" : 82,
         "byteOffset" : 0,
         "componentType" : 5126,
         "count" : 47,
         "type" : "VEC3"
      },
      {
         "bufferView" : 83,
         "byteOffset" : 0,
         "componentType" : 5126,
         "count" : 47,
         "max" : [ 1.054200053215027, 0.1977999955415726 ],
         "min" : [ -0.05710000172257423, -0.05420000106096268 ],
         "type" : "VEC2"
      },
      {
         "bufferView" : 84,
         "byteOffset" : 0,
         "componentType" : 5123,
         "count" : 1128,
         "max" : [ 392 ],
         "min" : [ 0 ],
         "type" : "SCALAR"
      },
      {
         "bufferView" : 85,
         "byteOffset" : 0,
         "componentType" : 5126,
         "count" : 393,
         "max" : [ 0.8647819757461548, 4.77582597732544, 0.5765219330787659 ],
         "min" : [ -0.864778995513916, 3.926743984222412, -0.5765200257301331 ],
         "type" : "VEC3"
      },
      {
         "bufferView" : 86,
         "byteOffset" : 0,
         "componentType" : 5126,
         "count" : 393,
         "type" : "VEC3"
      },
      {
         "bufferView" : 87,
         "byteOffset" : 0,
         "componentType" : 5126,
         "count" : 393,
         "max" : [ 1.057100057601929, 0.1440999954938889 ],
         "min" : [ -0.05710000172257423, -0.05420000106096268 ],
         "type" : "VEC2"
      },
      {
         "bufferView" : 88,
         "byteOffset" : 0,
         "componentType" : 5123,
         "count" : 3096,
         "max" : [ 1081 ],
         "min" : [ 0 ],
         "type" : "SCALAR"
      },
      {
         "bufferView" : 89,
         "byteOffset" : 0,
         "componentType" : 5126,
         "count" : 1082,
         "max" : [ 4.12407398223877, 3.694685935974121, 3.787492990493774 ],
         "min" : [ -4.124072074890137, 0.04935908317565918, -3.787490129470825 ],
         "type" : "VEC3"
      },
      {
         "bufferView" : 90,
         "byteOffset" : 0,
         "componentType" : 5126,
         "count" : 1082,
         "type" : "VEC3"
      },
      {
         "bufferView" : 91,
         "byteOffset" : 0,
         "componentType" : 5126,
         "count" : 1082,
         "max" : [ 1.054200053215027, 1.040799975395203 ],
         "min" : [ -0.05710000172257423, -0.05420000106096268 ],
         "type" : "VEC2"
      }
   ],
   "asset" : {
      "extras" : {
         "date" : "Tue Jan 03 08:36:55 2023",
         "website" : "http://www.unwrap3d.com"
      },
      "generator" : "Ultimate Unwrap3D Pro (x64) v3.50.61",
      "version" : "2.0"
   },
   "bufferViews" : [
      {
         "buffer" : 0,
         "byteLength" : 5670,
         "byteOffset" : 0
      },
      {
         "buffer" : 0,
         "byteLength" : 13512,
         "byteOffset" : 5672,
         "byteStride" : 12
      },
      {
         "buffer" : 0,
         "byteLength" : 13512,
         "byteOffset" : 19184,
         "byteStride" : 12
      },
      {
         "buffer" : 0,
         "byteLength" : 9008,
         "byteOffset" : 32696,
         "byteStride" : 8
      },
      {
         "buffer" : 0,
         "byteLength" : 1008,
         "byteOffset" : 41704
      },
      {
         "buffer" : 0,
         "byteLength" : 1968,
         "byteOffset" : 42712,
         "byteStride" : 12
      },
      {
         "buffer" : 0,
         "byteLength" : 1968,
         "byteOffset" : 44680,
         "byteStride" : 12
      },
      {
         "buffer" : 0,
         "byteLength" : 1312,
         "byteOffset" : 46648,
         "byteStride" : 8
      },
      {
         "buffer" : 0,
         "byteLength" : 1008,
         "byteOffset" : 47960
      },
      {
         "buffer" : 0,
         "byteLength" : 1968,
         "byteOffset" : 48968,
         "byteStride" : 12
      },
      {
         "buffer" : 0,
         "byteLength" : 1968,
         "byteOffset" : 50936,
         "byteStride" : 12
      },
      {
         "buffer" : 0,
         "byteLength" : 1312,
         "byteOffset" : 52904,
         "byteStride" : 8
      },
      {
         "buffer" : 0,
         "byteLength" : 1008,
         "byteOffset" : 54216
      },
      {
         "buffer" : 0,
         "byteLength" : 1968,
         "byteOffset" : 55224,
         "byteStride" : 12
      },
      {
         "buffer" : 0,
         "byteLength" : 1968,
         "byteOffset" : 57192,
         "byteStride" : 12
      },
      {
         "buffer" : 0,
         "byteLength" : 1312,
         "byteOffset" : 59160,
         "byteStride" : 8
      },
      {
         "buffer" : 0,
         "byteLength" : 1008,
         "byteOffset" : 60472
      },
      {
         "buffer" : 0,
         "byteLength" : 1968,
         "byteOffset" : 61480,
         "byteStride" : 12
      },
      {
         "buffer" : 0,
         "byteLength" : 1968,
         "byteOffset" : 63448,
         "byteStride" : 12
      },
      {
         "buffer" : 0,
         "byteLength" : 1312,
         "byteOffset" : 65416,
         "byteStride" : 8
      },
      {
         "buffer" : 0,
         "byteLength" : 384,
         "byteOffset" : 66728
      },
      {
         "buffer" : 0,
         "byteLength" : 768,
         "byteOffset" : 67112,
         "byteStride" : 12
      },
      {
         "buffer" : 0,
         "byteLength" : 768,
         "byteOffset" : 67880,
         "byteStride" : 12
      },
      {
         "buffer" : 0,
         "byteLength" : 512,
         "byteOffset" : 68648,
         "byteStride" : 8
      },
      {
         "buffer" : 0,
         "byteLength" : 912,
         "byteOffset" : 69160
      },
      {
         "buffer" : 0,
         "byteLength" : 2172,
         "byteOffset" : 70072,
         "byteStride" : 12
      },
      {
         "buffer" : 0,
         "byteLength" : 2172,
         "byteOffset" : 72244,
         "byteStride" : 12
      },
      {
         "buffer" : 0,
         "byteLength" : 1448,
         "byteOffset" : 74416,
         "byteStride" : 8
      },
      {
         "buffer" : 0,
         "byteLength" : 942,
         "byteOffset" : 75864
      },
      {
         "buffer" : 0,
         "byteLength" : 2256,
         "byteOffset" : 76808,
         "byteStride" : 12
      },
      {
         "buffer" : 0,
         "byteLength" : 2256,
         "byteOffset" : 79064,
         "byteStride" : 12
      },
      {
         "buffer" : 0,
         "byteLength" : 1504,
         "byteOffset" : 81320,
         "byteStride" : 8
      },
      {
         "buffer" : 0,
         "byteLength" : 894,
         "byteOffset" : 82824
      },
      {
         "buffer" : 0,
         "byteLength" : 2136,
         "byteOffset" : 83720,
         "byteStride" : 12
      },
      {
         "buffer" : 0,
         "byteLength" : 2136,
         "byteOffset" : 85856,
         "byteStride" : 12
      },
      {
         "buffer" : 0,
         "byteLength" : 1424,
         "byteOffset" : 87992,
         "byteStride" : 8
      },
      {
         "buffer" : 0,
         "byteLength" : 942,
         "byteOffset" : 89416
      },
      {
         "buffer" : 0,
         "byteLength" : 2256,
         "byteOffset" : 90360,
         "byteStride" : 12
      },
      {
         "buffer" : 0,
         "byteLength" : 2256,
         "byteOffset" : 92616,
         "byteStride" : 12
      },
      {
         "buffer" : 0,
         "byteLength" : 1504,
         "byteOffset" : 94872,
         "byteStride" : 8
      },
      {
         "buffer" : 0,
         "byteLength" : 684,
         "byteOffset" : 96376
      },
      {
         "buffer" : 0,
         "byteLength" : 1260,
         "byteOffset" : 97060,
         "byteStride" : 12
      },
      {
         "buffer" : 0,
         "byteLength" : 1260,
         "byteOffset" : 98320,
         "byteStride" : 12
      },
      {
         "buffer" : 0,
         "byteLength" : 840,
         "byteOffset" : 99580,
         "byteStride" : 8
      },
      {
         "buffer" : 0,
         "byteLength" : 684,
         "byteOffset" : 100420
      },
      {
         "buffer" : 0,
         "byteLength" : 1260,
         "byteOffset" : 101104,
         "byteStride" : 12
      },
      {
         "buffer" : 0,
         "byteLength" : 1260,
         "byteOffset" : 102364,
         "byteStride" : 12
      },
      {
         "buffer" : 0,
         "byteLength" : 840,
         "byteOffset" : 103624,
         "byteStride" : 8
      },
      {
         "buffer" : 0,
         "byteLength" : 684,
         "byteOffset" : 104464
      },
      {
         "buffer" : 0,
         "byteLength" : 1260,
         "byteOffset" : 105148,
         "byteStride" : 12
      },
      {
         "buffer" : 0,
         "byteLength" : 1260,
         "byteOffset" : 106408,
         "byteStride" : 12
      },
      {
         "buffer" : 0,
         "byteLength" : 840,
         "byteOffset" : 107668,
         "byteStride" : 8
      },
      {
         "buffer" : 0,
         "byteLength" : 678,
         "byteOffset" : 108508
      },
      {
         "buffer" : 0,
         "byteLength" : 1248,
         "byteOffset" : 109188,
         "byteStride" : 12
      },
      {
         "buffer" : 0,
         "byteLength" : 1248,
         "byteOffset" : 110436,
         "byteStride" : 12
      },
      {
         "buffer" : 0,
         "byteLength" : 832,
         "byteOffset" : 111684,
         "byteStride" : 8
      },
      {
         "buffer" : 0,
         "byteLength" : 108,
         "byteOffset" : 112516
      },
      {
         "buffer" : 0,
         "byteLength" : 288,
         "byteOffset" : 112624,
         "byteStride" : 12
      },
      {
         "buffer" : 0,
         "byteLength" : 288,
         "byteOffset" : 112912,
         "byteStride" : 12
      },
      {
         "buffer" : 0,
         "byteLength" : 192,
         "byteOffset" : 113200,
         "byteStride" : 8
      },
      {
         "buffer" : 0,
         "byteLength" : 108,
         "byteOffset" : 113392
      },
      {
         "buffer" : 0,
         "byteLength" : 288,
         "byteOffset" : 113500,
         "byteStride" : 12
      },
      {
         "buffer" : 0,
         "byteLength" : 288,
         "byteOffset" : 113788,
         "byteStride" : 12
      },
      {
         "buffer" : 0,
         "byteLength" : 192,
         "byteOffset" : 114076,
         "byteStride" : 8
      },
      {
         "buffer" : 0,
         "byteLength" : 456,
         "byteOffset" : 114268
      },
      {
         "buffer" : 0,
         "byteLength" : 984,
         "byteOffset" : 114724,
         "byteStride" : 12
      },
      {
         "buffer" : 0,
         "byteLength" : 984,
         "byteOffset" : 115708,
         "byteStride" : 12
      },
      {
         "buffer" : 0,
         "byteLength" : 656,
         "byteOffset" : 116692,
         "byteStride" : 8
      },
      {
         "buffer" : 0,
         "byteLength" : 456,
         "byteOffset" : 117348
      },
      {
         "buffer" : 0,
         "byteLength" : 984,
         "byteOffset" : 117804,
         "byteStride" : 12
      },
      {
         "buffer" : 0,
         "byteLength" : 984,
         "byteOffset" : 118788,
         "byteStride" : 12
      },
      {
         "buffer" : 0,
         "byteLength" : 656,
         "byteOffset" : 119772,
         "byteStride" : 8
      },
      {
         "buffer" : 0,
         "byteLength" : 456,
         "byteOffset" : 120428
      },
      {
         "buffer" : 0,
         "byteLength" : 984,
         "byteOffset" : 120884,
         "byteStride" : 12
      },
      {
         "buffer" : 0,
         "byteLength" : 984,
         "byteOffset" : 121868,
         "byteStride" : 12
      },
      {
         "buffer" : 0,
         "byteLength" : 656,
         "byteOffset" : 122852,
         "byteStride" : 8
      },
      {
         "buffer" : 0,
         "byteLength" : 456,
         "byteOffset" : 123508
      },
      {
         "buffer" : 0,
         "byteLength" : 984,
         "byteOffset" : 123964,
         "byteStride" : 12
      },
      {
         "buffer" : 0,
         "byteLength" : 984,
         "byteOffset" : 124948,
         "byteStride" : 12
      },
      {
         "buffer" : 0,
         "byteLength" : 656,
         "byteOffset" : 125932,
         "byteStride" : 8
      },
      {
         "buffer" : 0,
         "byteLength" : 240,
         "byteOffset" : 126588
      },
      {
         "buffer" : 0,
         "byteLength" : 564,
         "byteOffset" : 126828,
         "byteStride" : 12
      },
      {
         "buffer" : 0,
         "byteLength" : 564,
         "byteOffset" : 127392,
         "byteStride" : 12
      },
      {
         "buffer" : 0,
         "byteLength" : 376,
         "byteOffset" : 127956,
         "byteStride" : 8
      },
      {
         "buffer" : 0,
         "byteLength" : 2256,
         "byteOffset" : 128332
      },
      {
         "buffer" : 0,
         "byteLength" : 4716,
         "byteOffset" : 130588,
         "byteStride" : 12
      },
      {
         "buffer" : 0,
         "byteLength" : 4716,
         "byteOffset" : 135304,
         "byteStride" : 12
      },
      {
         "buffer" : 0,
         "byteLength" : 3144,
         "byteOffset" : 140020,
         "byteStride" : 8
      },
      {
         "buffer" : 0,
         "byteLength" : 6192,
         "byteOffset" : 143164
      },
      {
         "buffer" : 0,
         "byteLength" : 12984,
         "byteOffset" : 149356,
         "byteStride" : 12
      },
      {
         "buffer" : 0,
         "byteLength" : 12984,
         "byteOffset" : 162340,
         "byteStride" : 12
      },
      {
         "buffer" : 0,
         "byteLength" : 8656,
         "byteOffset" : 175324,
         "byteStride" : 8
      }
   ],
   "buffers" : [
      {
         "byteLength" : 183980,
         "uri" : "command_center_30.bin"
      }
   ],
   "materials" : [
      {
         "name" : "concrete_smooth0",
         "pbrMetallicRoughness" : {
            "baseColorFactor" : [ 1, 1, 1, 1 ],
            "metallicFactor" : 0
         }
      },
      {
         "name" : "metal_top1",
         "pbrMetallicRoughness" : {
            "baseColorFactor" : [ 1, 1, 1, 1 ],
            "metallicFactor" : 0
         }
      },
      {
         "name" : "metal_top2",
         "pbrMetallicRoughness" : {
            "baseColorFactor" : [ 1, 1, 1, 1 ],
            "metallicFactor" : 0
         }
      },
      {
         "name" : "metal_top3",
         "pbrMetallicRoughness" : {
            "baseColorFactor" : [ 1, 1, 1, 1 ],
            "metallicFactor" : 0
         }
      },
      {
         "name" : "metal_top",
         "pbrMetallicRoughness" : {
            "baseColorFactor" : [ 1, 1, 1, 1 ],
            "metallicFactor" : 0
         }
      },
      {
         "name" : "floor",
         "pbrMetallicRoughness" : {
            "baseColorFactor" : [ 1, 1, 1, 1 ],
            "metallicFactor" : 0
         }
      },
      {
         "name" : "matPBRPlasticScuffedBlue4",
         "pbrMetallicRoughness" : {
            "baseColorFactor" : [ 1, 1, 1, 1 ],
            "metallicFactor" : 0
         }
      },
      {
         "name" : "matPBRPlasticScuffedBlue5",
         "pbrMetallicRoughness" : {
            "baseColorFactor" : [ 1, 1, 1, 1 ],
            "metallicFactor" : 0
         }
      },
      {
         "name" : "matPBRPlasticScuffedBlue6",
         "pbrMetallicRoughness" : {
            "baseColorFactor" : [ 1, 1, 1, 1 ],
            "metallicFactor" : 0
         }
      },
      {
         "name" : "matPBRPlasticScuffedBlue7",
         "pbrMetallicRoughness" : {
            "baseColorFactor" : [ 1, 1, 1, 1 ],
            "metallicFactor" : 0
         }
      },
      {
         "name" : "matPBRPlasticScuffedBlue8",
         "pbrMetallicRoughness" : {
            "baseColorFactor" : [ 1, 1, 1, 1 ],
            "metallicFactor" : 0
         }
      },
      {
         "name" : "matPBRPlasticScuffedBlue9",
         "pbrMetallicRoughness" : {
            "baseColorFactor" : [ 1, 1, 1, 1 ],
            "metallicFactor" : 0
         }
      },
      {
         "name" : "matPBRPlasticScuffedBlue10",
         "pbrMetallicRoughness" : {
            "baseColorFactor" : [ 1, 1, 1, 1 ],
            "metallicFactor" : 0
         }
      },
      {
         "name" : "matPBRPlasticScuffedBlue11",
         "pbrMetallicRoughness" : {
            "baseColorFactor" : [ 1, 1, 1, 1 ],
            "metallicFactor" : 0
         }
      },
      {
         "name" : "matPBRPlasticScuffedBlue12",
         "pbrMetallicRoughness" : {
            "baseColorFactor" : [ 1, 1, 1, 1 ],
            "metallicFactor" : 0
         }
      },
      {
         "name" : "matPBRPlasticScuffedBlue13",
         "pbrMetallicRoughness" : {
            "baseColorFactor" : [ 1, 1, 1, 1 ],
            "metallicFactor" : 0
         }
      },
      {
         "name" : "matPBRPlasticScuffedBlue14",
         "pbrMetallicRoughness" : {
            "baseColorFactor" : [ 1, 1, 1, 1 ],
            "metallicFactor" : 0
         }
      },
      {
         "name" : "matPBRPlasticScuffedBlue15",
         "pbrMetallicRoughness" : {
            "baseColorFactor" : [ 1, 1, 1, 1 ],
            "metallicFactor" : 0
         }
      },
      {
         "name" : "matPBRPlasticScuffedBlue16",
         "pbrMetallicRoughness" : {
            "baseColorFactor" : [ 1, 1, 1, 1 ],
            "metallicFactor" : 0
         }
      },
      {
         "name" : "matPBRPlasticScuffedBlue17",
         "pbrMetallicRoughness" : {
            "baseColorFactor" : [ 1, 1, 1, 1 ],
            "metallicFactor" : 0
         }
      },
      {
         "name" : "concrete_smooth18",
         "pbrMetallicRoughness" : {
            "baseColorFactor" : [ 1, 1, 1, 1 ],
            "metallicFactor" : 0
         }
      },
      {
         "name" : "matPBRPlasticScuffedBlue",
         "pbrMetallicRoughness" : {
            "baseColorFactor" : [ 1, 1, 1, 1 ],
            "metallicFactor" : 0
         }
      },
      {
         "name" : "concrete_smooth",
         "pbrMetallicRoughness" : {
            "baseColorFactor" : [ 1, 1, 1, 1 ],
            "metallicFactor" : 0
         }
      }
   ],
   "meshes" : [
      {
         "name" : "StaticMesh",
         "primitives" : [
            {
               "attributes" : {
                  "NORMAL" : 2,
                  "POSITION" : 1,
                  "TEXCOORD_0" : 3
               },
               "indices" : 0,
               "material" : 0,
               "mode" : 4
            },
            {
               "attributes" : {
                  "NORMAL" : 6,
                  "POSITION" : 5,
                  "TEXCOORD_0" : 7
               },
               "indices" : 4,
               "material" : 1,
               "mode" : 4
            },
            {
               "attributes" : {
                  "NORMAL" : 10,
                  "POSITION" : 9,
                  "TEXCOORD_0" : 11
               },
               "indices" : 8,
               "material" : 2,
               "mode" : 4
            },
            {
               "attributes" : {
                  "NORMAL" : 14,
                  "POSITION" : 13,
                  "TEXCOORD_0" : 15
               },
               "indices" : 12,
               "material" : 3,
               "mode" : 4
            },
            {
               "attributes" : {
                  "NORMAL" : 18,
                  "POSITION" : 17,
                  "TEXCOORD_0" : 19
               },
               "indices" : 16,
               "material" : 4,
               "mode" : 4
            },
            {
               "attributes" : {
                  "NORMAL" : 22,
                  "POSITION" : 21,
                  "TEXCOORD_0" : 23
               },
               "indices" : 20,
               "material" : 5,
               "mode" : 4
            },
            {
               "attributes" : {
                  "NORMAL" : 26,
                  "POSITION" : 25,
                  "TEXCOORD_0" : 27
               },
               "indices" : 24,
               "material" : 6,
               "mode" : 4
            },
            {
               "attributes" : {
                  "NORMAL" : 30,
                  "POSITION" : 29,
                  "TEXCOORD_0" : 31
               },
               "indices" : 28,
               "material" : 7,
               "mode" : 4
            },
            {
               "attributes" : {
                  "NORMAL" : 34,
                  "POSITION" : 33,
                  "TEXCOORD_0" : 35
               },
               "indices" : 32,
               "material" : 8,
               "mode" : 4
            },
            {
               "attributes" : {
                  "NORMAL" : 38,
                  "POSITION" : 37,
                  "TEXCOORD_0" : 39
               },
               "indices" : 36,
               "material" : 9,
               "mode" : 4
            },
            {
               "attributes" : {
                  "NORMAL" : 42,
                  "POSITION" : 41,
                  "TEXCOORD_0" : 43
               },
               "indices" : 40,
               "material" : 10,
               "mode" : 4
            },
            {
               "attributes" : {
                  "NORMAL" : 46,
                  "POSITION" : 45,
                  "TEXCOORD_0" : 47
               },
               "indices" : 44,
               "material" : 11,
               "mode" : 4
            },
            {
               "attributes" : {
                  "NORMAL" : 50,
                  "POSITION" : 49,
                  "TEXCOORD_0" : 51
               },
               "indices" : 48,
               "material" : 12,
               "mode" : 4
            },
            {
               "attributes" : {
                  "NORMAL" : 54,
                  "POSITION" : 53,
                  "TEXCOORD_0" : 55
               },
               "indices" : 52,
               "material" : 13,
               "mode" : 4
            },
            {
               "attributes" : {
                  "NORMAL" : 58,
                  "POSITION" : 57,
                  "TEXCOORD_0" : 59
               },
               "indices" : 56,
               "material" : 14,
               "mode" : 4
            },
            {
               "attributes" : {
                  "NORMAL" : 62,
                  "POSITION" : 61,
                  "TEXCOORD_0" : 63
               },
               "indices" : 60,
               "material" : 15,
               "mode" : 4
            },
            {
               "attributes" : {
                  "NORMAL" : 66,
                  "POSITION" : 65,
                  "TEXCOORD_0" : 67
               },
               "indices" : 64,
               "material" : 16,
               "mode" : 4
            },
            {
               "attributes" : {
                  "NORMAL" : 70,
                  "POSITION" : 69,
                  "TEXCOORD_0" : 71
               },
               "indices" : 68,
               "material" : 17,
               "mode" : 4
            },
            {
               "attributes" : {
                  "NORMAL" : 74,
                  "POSITION" : 73,
                  "TEXCOORD_0" : 75
               },
               "indices" : 72,
               "material" : 18,
               "mode" : 4
            },
            {
               "attributes" : {
                  "NORMAL" : 78,
                  "POSITION" : 77,
                  "TEXCOORD_0" : 79
               },
               "indices" : 76,
               "material" : 19,
               "mode" : 4
            },
            {
               "attributes" : {
                  "NORMAL" : 82,
                  "POSITION" : 81,
                  "TEXCOORD_0" : 83
               },
               "indices" : 80,
               "material" : 20,
               "mode" : 4
            },
            {
               "attributes" : {
                  "NORMAL" : 86,
                  "POSITION" : 85,
                  "TEXCOORD_0" : 87
               },
               "indices" : 84,
               "material" : 21,
               "mode" : 4
            },
            {
               "attributes" : {
                  "NORMAL" : 90,
                  "POSITION" : 89,
                  "TEXCOORD_0" : 91
               },
               "indices" : 88,
               "material" : 22,
               "mode" : 4
            }
         ]
      }
   ],
   "nodes" : [
      {
         "mesh" : 0,
         "name" : "StaticMesh"
      }
   ],
   "scene" : 0,
   "scenes" : [
      {
         "nodes" : [ 0 ]
      }
   ]
}
