{
   "accessors" : [
      {
         "bufferView" : 0,
         "byteOffset" : 0,
         "componentType" : 5123,
         "count" : 348,
         "max" : [ 143 ],
         "min" : [ 0 ],
         "type" : "SCALAR"
      },
      {
         "bufferView" : 1,
         "byteOffset" : 0,
         "componentType" : 5126,
         "count" : 144,
         "max" : [ 6.426692962646484, 0.6976890563964844, 2.76680588722229 ],
         "min" : [ 5.328638076782227, 0.1809239387512207, 1.668745040893555 ],
         "type" : "VEC3"
      },
      {
         "bufferView" : 2,
         "byteOffset" : 0,
         "componentType" : 5126,
         "count" : 144,
         "type" : "VEC3"
      },
      {
         "bufferView" : 3,
         "byteOffset" : 0,
         "componentType" : 5126,
         "count" : 144,
         "max" : [ 0.8805999755859375, 0.9824000000953674 ],
         "min" : [ 0.09220000356435776, 0.004399999976158142 ],
         "type" : "VEC2"
      },
      {
         "bufferView" : 4,
         "byteOffset" : 0,
         "componentType" : 5123,
         "count" : 96,
         "max" : [ 51 ],
         "min" : [ 0 ],
         "type" : "SCALAR"
      },
      {
         "bufferView" : 5,
         "byteOffset" : 0,
         "componentType" : 5126,
         "count" : 52,
         "max" : [ 6.426692962646484, 0.6976890563964844, 2.76680588722229 ],
         "min" : [ 5.328638076782227, 0, 1.668745040893555 ],
         "type" : "VEC3"
      },
      {
         "bufferView" : 6,
         "byteOffset" : 0,
         "componentType" : 5126,
         "count" : 52,
         "type" : "VEC3"
      },
      {
         "bufferView" : 7,
         "byteOffset" : 0,
         "componentType" : 5126,
         "count" : 52,
         "max" : [ 0.9870999455451965, 0.9761999845504761 ],
         "min" : [ 0.01049999985843897, 0 ],
         "type" : "VEC2"
      },
      {
         "bufferView" : 8,
         "byteOffset" : 0,
         "componentType" : 5123,
         "count" : 348,
         "max" : [ 143 ],
         "min" : [ 0 ],
         "type" : "SCALAR"
      },
      {
         "bufferView" : 9,
         "byteOffset" : 0,
         "componentType" : 5126,
         "count" : 144,
         "max" : [ 6.78703498840332, 0.6976890563964844, 0.7232289910316467 ],
         "min" : [ 5.688971996307373, 0.1809239387512207, -0.3748289942741394 ],
         "type" : "VEC3"
      },
      {
         "bufferView" : 10,
         "byteOffset" : 0,
         "componentType" : 5126,
         "count" : 144,
         "type" : "VEC3"
      },
      {
         "bufferView" : 11,
         "byteOffset" : 0,
         "componentType" : 5126,
         "count" : 144,
         "max" : [ 0.9041000008583069, 0.9706999659538269 ],
         "min" : [ 0.1155999973416328, -0.007300000172108412 ],
         "type" : "VEC2"
      },
      {
         "bufferView" : 12,
         "byteOffset" : 0,
         "componentType" : 5123,
         "count" : 96,
         "max" : [ 51 ],
         "min" : [ 0 ],
         "type" : "SCALAR"
      },
      {
         "bufferView" : 13,
         "byteOffset" : 0,
         "componentType" : 5126,
         "count" : 52,
         "max" : [ 6.78703498840332, 0.6976890563964844, 0.7232289910316467 ],
         "min" : [ 5.688971996307373, 0, -0.3748289942741394 ],
         "type" : "VEC3"
      },
      {
         "bufferView" : 14,
         "byteOffset" : 0,
         "componentType" : 5126,
         "count" : 52,
         "type" : "VEC3"
      },
      {
         "bufferView" : 15,
         "byteOffset" : 0,
         "componentType" : 5126,
         "count" : 52,
         "max" : [ 0.9865999817848206, 0.9761999845504761 ],
         "min" : [ 0.00989999994635582, 0 ],
         "type" : "VEC2"
      },
      {
         "bufferView" : 16,
         "byteOffset" : 0,
         "componentType" : 5123,
         "count" : 2040,
         "max" : [ 761 ],
         "min" : [ 0 ],
         "type" : "SCALAR"
      },
      {
         "bufferView" : 17,
         "byteOffset" : 0,
         "componentType" : 5126,
         "count" : 762,
         "max" : [ 0.8926349878311157, 4.215829849243164, 1.682289004325867 ],
         "min" : [ -2.105216979980469, 0.02727007865905762, -1.735368013381958 ],
         "type" : "VEC3"
      },
      {
         "bufferView" : 18,
         "byteOffset" : 0,
         "componentType" : 5126,
         "count" : 762,
         "type" : "VEC3"
      },
      {
         "bufferView" : 19,
         "byteOffset" : 0,
         "componentType" : 5126,
         "count" : 762,
         "max" : [ 0.981499969959259, 0.9174999594688416 ],
         "min" : [ -0.00839999970048666, 0.05620000138878822 ],
         "type" : "VEC2"
      },
      {
         "bufferView" : 20,
         "byteOffset" : 0,
         "componentType" : 5123,
         "count" : 468,
         "max" : [ 196 ],
         "min" : [ 0 ],
         "type" : "SCALAR"
      },
      {
         "bufferView" : 21,
         "byteOffset" : 0,
         "componentType" : 5126,
         "count" : 197,
         "max" : [ -4.212609767913818, 1.933575987815857, 0.9390630125999451 ],
         "min" : [ -6.78703498840332, 0.01337289810180664, -2.664788007736206 ],
         "type" : "VEC3"
      },
      {
         "bufferView" : 22,
         "byteOffset" : 0,
         "componentType" : 5126,
         "count" : 197,
         "type" : "VEC3"
      },
      {
         "bufferView" : 23,
         "byteOffset" : 0,
         "componentType" : 5126,
         "count" : 197,
         "max" : [ 1.002599954605103, 0.8297000527381897 ],
         "min" : [ 0.002600000007078052, 0.1905999928712845 ],
         "type" : "VEC2"
      },
      {
         "bufferView" : 24,
         "byteOffset" : 0,
         "componentType" : 5123,
         "count" : 468,
         "max" : [ 196 ],
         "min" : [ 0 ],
         "type" : "SCALAR"
      },
      {
         "bufferView" : 25,
         "byteOffset" : 0,
         "componentType" : 5126,
         "count" : 197,
         "max" : [ 5.574450969696045, 1.933572053909302, 2.664788007736206 ],
         "min" : [ 3.000026941299439, 0.01372098922729492, -0.9390630125999451 ],
         "type" : "VEC3"
      },
      {
         "bufferView" : 26,
         "byteOffset" : 0,
         "componentType" : 5126,
         "count" : 197,
         "type" : "VEC3"
      },
      {
         "bufferView" : 27,
         "byteOffset" : 0,
         "componentType" : 5126,
         "count" : 197,
         "max" : [ 0.9922000169754028, 0.8166999816894531 ],
         "min" : [ -0.001300000003539026, 0.1777999997138977 ],
         "type" : "VEC2"
      },
      {
         "bufferView" : 28,
         "byteOffset" : 0,
         "componentType" : 5123,
         "count" : 3504,
         "max" : [ 1349 ],
         "min" : [ 0 ],
         "type" : "SCALAR"
      },
      {
         "bufferView" : 29,
         "byteOffset" : 0,
         "componentType" : 5126,
         "count" : 1350,
         "max" : [ 4.593386173248291, 2.974618911743164, 5.435379028320313 ],
         "min" : [ -5.807899951934815, 0.0137178897857666, -5.449985980987549 ],
         "type" : "VEC3"
      },
      {
         "bufferView" : 30,
         "byteOffset" : 0,
         "componentType" : 5126,
         "count" : 1350,
         "type" : "VEC3"
      },
      {
         "bufferView" : 31,
         "byteOffset" : 0,
         "componentType" : 5126,
         "count" : 1350,
         "max" : [ 0.9869999885559082, 0.901199996471405 ],
         "min" : [ 0, 0.06989999860525131 ],
         "type" : "VEC2"
      },
      {
         "bufferView" : 32,
         "byteOffset" : 0,
         "componentType" : 5123,
         "count" : 342,
         "max" : [ 150 ],
         "min" : [ 0 ],
         "type" : "SCALAR"
      },
      {
         "bufferView" : 33,
         "byteOffset" : 0,
         "componentType" : 5126,
         "count" : 151,
         "max" : [ 2.9600830078125, 2.33255410194397, 6.105050086975098 ],
         "min" : [ -0.7736510038375855, 0.0137178897857666, 2.984988927841187 ],
         "type" : "VEC3"
      },
      {
         "bufferView" : 34,
         "byteOffset" : 0,
         "componentType" : 5126,
         "count" : 151,
         "type" : "VEC3"
      },
      {
         "bufferView" : 35,
         "byteOffset" : 0,
         "componentType" : 5126,
         "count" : 151,
         "max" : [ 0.9750999808311462, 0.9359999895095825 ],
         "min" : [ -0.001300000003539026, 0.01290000043809414 ],
         "type" : "VEC2"
      },
      {
         "bufferView" : 36,
         "byteOffset" : 0,
         "componentType" : 5123,
         "count" : 132,
         "max" : [ 75 ],
         "min" : [ 0 ],
         "type" : "SCALAR"
      },
      {
         "bufferView" : 37,
         "byteOffset" : 0,
         "componentType" : 5126,
         "count" : 76,
         "max" : [ 2.9600830078125, 1.618548035621643, 6.105050086975098 ],
         "min" : [ -0.7736510038375855, 0.004671096801757813, 3.307985067367554 ],
         "type" : "VEC3"
      },
      {
         "bufferView" : 38,
         "byteOffset" : 0,
         "componentType" : 5126,
         "count" : 76,
         "type" : "VEC3"
      },
      {
         "bufferView" : 39,
         "byteOffset" : 0,
         "componentType" : 5126,
         "count" : 76,
         "max" : [ 0.9610999822616577, 0.9514999985694885 ],
         "min" : [ 0.03889999911189079, 0 ],
         "type" : "VEC2"
      },
      {
         "bufferView" : 40,
         "byteOffset" : 0,
         "componentType" : 5123,
         "count" : 336,
         "max" : [ 146 ],
         "min" : [ 0 ],
         "type" : "SCALAR"
      },
      {
         "bufferView" : 41,
         "byteOffset" : 0,
         "componentType" : 5126,
         "count" : 147,
         "max" : [ -0.4389329850673676, 2.332557916641235, -2.982506990432739 ],
         "min" : [ -4.172667980194092, 0.01372408866882324, -6.105050086975098 ],
         "type" : "VEC3"
      },
      {
         "bufferView" : 42,
         "byteOffset" : 0,
         "componentType" : 5126,
         "count" : 147,
         "type" : "VEC3"
      },
      {
         "bufferView" : 43,
         "byteOffset" : 0,
         "componentType" : 5126,
         "count" : 147,
         "max" : [ 0.9750999808311462, 0.9390000104904175 ],
         "min" : [ -0.001300000003539026, 0.004900000058114529 ],
         "type" : "VEC2"
      },
      {
         "bufferView" : 44,
         "byteOffset" : 0,
         "componentType" : 5123,
         "count" : 138,
         "max" : [ 77 ],
         "min" : [ 0 ],
         "type" : "SCALAR"
      },
      {
         "bufferView" : 45,
         "byteOffset" : 0,
         "componentType" : 5126,
         "count" : 78,
         "max" : [ -0.4389329850673676, 1.618549942970276, -3.307985067367554 ],
         "min" : [ -4.172667980194092, 0.01372408866882324, -6.105050086975098 ],
         "type" : "VEC3"
      },
      {
         "bufferView" : 46,
         "byteOffset" : 0,
         "componentType" : 5126,
         "count" : 78,
         "type" : "VEC3"
      },
      {
         "bufferView" : 47,
         "byteOffset" : 0,
         "componentType" : 5126,
         "count" : 78,
         "max" : [ 0.9609000086784363, 0.9746000170707703 ],
         "min" : [ 0.03909999877214432, 0 ],
         "type" : "VEC2"
      },
      {
         "bufferView" : 48,
         "byteOffset" : 0,
         "componentType" : 5123,
         "count" : 342,
         "max" : [ 151 ],
         "min" : [ 0 ],
         "type" : "SCALAR"
      },
      {
         "bufferView" : 49,
         "byteOffset" : 0,
         "componentType" : 5126,
         "count" : 152,
         "max" : [ -1.9739830493927, 2.332555055618286, 5.52857780456543 ],
         "min" : [ -5.626646995544434, 0.0137178897857666, 2.001822948455811 ],
         "type" : "VEC3"
      },
      {
         "bufferView" : 50,
         "byteOffset" : 0,
         "componentType" : 5126,
         "count" : 152,
         "type" : "VEC3"
      },
      {
         "bufferView" : 51,
         "byteOffset" : 0,
         "componentType" : 5126,
         "count" : 152,
         "max" : [ 0.9753999710083008, 0.9409999847412109 ],
         "min" : [ 0.05319999903440476, 0.003899999894201756 ],
         "type" : "VEC2"
      },
      {
         "bufferView" : 52,
         "byteOffset" : 0,
         "componentType" : 5123,
         "count" : 132,
         "max" : [ 75 ],
         "min" : [ 0 ],
         "type" : "SCALAR"
      },
      {
         "bufferView" : 53,
         "byteOffset" : 0,
         "componentType" : 5126,
         "count" : 76,
         "max" : [ -1.9739830493927, 1.618548035621643, 5.52857780456543 ],
         "min" : [ -5.626646995544434, 0.004671096801757813, 2.084415912628174 ],
         "type" : "VEC3"
      },
      {
         "bufferView" : 54,
         "byteOffset" : 0,
         "componentType" : 5126,
         "count" : 76,
         "type" : "VEC3"
      },
      {
         "bufferView" : 55,
         "byteOffset" : 0,
         "componentType" : 5126,
         "count" : 76,
         "max" : [ 0.9762999415397644, 0.8331999778747559 ],
         "min" : [ 0.02370000071823597, 0 ],
         "type" : "VEC2"
      },
      {
         "bufferView" : 56,
         "byteOffset" : 0,
         "componentType" : 5123,
         "count" : 348,
         "max" : [ 155 ],
         "min" : [ 0 ],
         "type" : "SCALAR"
      },
      {
         "bufferView" : 57,
         "byteOffset" : 0,
         "componentType" : 5126,
         "count" : 156,
         "max" : [ 4.414062976837158, 2.332557916641235, -2.006489992141724 ],
         "min" : [ 0.7614020109176636, 0.01372098922729492, -5.528573989868164 ],
         "type" : "VEC3"
      },
      {
         "bufferView" : 58,
         "byteOffset" : 0,
         "componentType" : 5126,
         "count" : 156,
         "type" : "VEC3"
      },
      {
         "bufferView" : 59,
         "byteOffset" : 0,
         "componentType" : 5126,
         "count" : 156,
         "max" : [ 0.9741000533103943, 0.9409000277519226 ],
         "min" : [ 0.03889999911189079, 0.003899999894201756 ],
         "type" : "VEC2"
      },
      {
         "bufferView" : 60,
         "byteOffset" : 0,
         "componentType" : 5123,
         "count" : 126,
         "max" : [ 71 ],
         "min" : [ 0 ],
         "type" : "SCALAR"
      },
      {
         "bufferView" : 61,
         "byteOffset" : 0,
         "componentType" : 5126,
         "count" : 72,
         "max" : [ 4.414062976837158, 1.618549942970276, -2.084412097930908 ],
         "min" : [ 0.7614020109176636, 0.01372098922729492, -5.528573989868164 ],
         "type" : "VEC3"
      },
      {
         "bufferView" : 62,
         "byteOffset" : 0,
         "componentType" : 5126,
         "count" : 72,
         "type" : "VEC3"
      },
      {
         "bufferView" : 63,
         "byteOffset" : 0,
         "componentType" : 5126,
         "count" : 72,
         "max" : [ 0.9713000059127808, 0.8826000094413757 ],
         "min" : [ 0.01569999940693378, 0.1037999987602234 ],
         "type" : "VEC2"
      },
      {
         "bufferView" : 64,
         "byteOffset" : 0,
         "componentType" : 5123,
         "count" : 240,
         "max" : [ 71 ],
         "min" : [ 0 ],
         "type" : "SCALAR"
      },
      {
         "bufferView" : 65,
         "byteOffset" : 0,
         "componentType" : 5126,
         "count" : 72,
         "max" : [ -3.931152105331421, 3.10246205329895, 0.8628680109977722 ],
         "min" : [ -4.777932167053223, 2.925018072128296, 0.01608199998736382 ],
         "type" : "VEC3"
      },
      {
         "bufferView" : 66,
         "byteOffset" : 0,
         "componentType" : 5126,
         "count" : 72,
         "type" : "VEC3"
      },
      {
         "bufferView" : 67,
         "byteOffset" : 0,
         "componentType" : 5126,
         "count" : 72,
         "max" : [ 0.9997000098228455, 0.9430000185966492 ],
         "min" : [ -0.0003000000142492354, -0.01070000045001507 ],
         "type" : "VEC2"
      },
      {
         "bufferView" : 68,
         "byteOffset" : 0,
         "componentType" : 5123,
         "count" : 240,
         "max" : [ 73 ],
         "min" : [ 0 ],
         "type" : "SCALAR"
      },
      {
         "bufferView" : 69,
         "byteOffset" : 0,
         "componentType" : 5126,
         "count" : 74,
         "max" : [ -3.742166996002197, 3.10246205329895, -0.2089049965143204 ],
         "min" : [ -4.588949203491211, 2.925018072128296, -1.055685997009277 ],
         "type" : "VEC3"
      },
      {
         "bufferView" : 70,
         "byteOffset" : 0,
         "componentType" : 5126,
         "count" : 74,
         "type" : "VEC3"
      },
      {
         "bufferView" : 71,
         "byteOffset" : 0,
         "componentType" : 5126,
         "count" : 74,
         "max" : [ 0.9997000098228455, 0.9747999906539917 ],
         "min" : [ -0.0003000000142492354, -0.01070000045001507 ],
         "type" : "VEC2"
      },
      {
         "bufferView" : 72,
         "byteOffset" : 0,
         "componentType" : 5123,
         "count" : 240,
         "max" : [ 71 ],
         "min" : [ 0 ],
         "type" : "SCALAR"
      },
      {
         "bufferView" : 73,
         "byteOffset" : 0,
         "componentType" : 5126,
         "count" : 72,
         "max" : [ -3.556195020675659, 3.10246205329895, -1.263612985610962 ],
         "min" : [ -4.402975082397461, 2.925018072128296, -2.11039400100708 ],
         "type" : "VEC3"
      },
      {
         "bufferView" : 74,
         "byteOffset" : 0,
         "componentType" : 5126,
         "count" : 72,
         "type" : "VEC3"
      },
      {
         "bufferView" : 75,
         "byteOffset" : 0,
         "componentType" : 5126,
         "count" : 72,
         "max" : [ 0.9997000098228455, 0.9430000185966492 ],
         "min" : [ -0.0003000000142492354, -0.01070000045001507 ],
         "type" : "VEC2"
      },
      {
         "bufferView" : 76,
         "byteOffset" : 0,
         "componentType" : 5123,
         "count" : 240,
         "max" : [ 71 ],
         "min" : [ 0 ],
         "type" : "SCALAR"
      },
      {
         "bufferView" : 77,
         "byteOffset" : 0,
         "componentType" : 5126,
         "count" : 72,
         "max" : [ 3.565351009368897, 3.10246205329895, -0.01608199998736382 ],
         "min" : [ 2.718563079833984, 2.925018072128296, -0.8628640174865723 ],
         "type" : "VEC3"
      },
      {
         "bufferView" : 78,
         "byteOffset" : 0,
         "componentType" : 5126,
         "count" : 72,
         "type" : "VEC3"
      },
      {
         "bufferView" : 79,
         "byteOffset" : 0,
         "componentType" : 5126,
         "count" : 72,
         "max" : [ 0.9997000098228455, 0.9430000185966492 ],
         "min" : [ -0.0003000000142492354, -0.01070000045001507 ],
         "type" : "VEC2"
      },
      {
         "bufferView" : 80,
         "byteOffset" : 0,
         "componentType" : 5123,
         "count" : 240,
         "max" : [ 73 ],
         "min" : [ 0 ],
         "type" : "SCALAR"
      },
      {
         "bufferView" : 81,
         "byteOffset" : 0,
         "componentType" : 5126,
         "count" : 74,
         "max" : [ 3.376364946365356, 3.10246205329895, 1.055691957473755 ],
         "min" : [ 2.529581069946289, 2.925018072128296, 0.2089049965143204 ],
         "type" : "VEC3"
      },
      {
         "bufferView" : 82,
         "byteOffset" : 0,
         "componentType" : 5126,
         "count" : 74,
         "type" : "VEC3"
      },
      {
         "bufferView" : 83,
         "byteOffset" : 0,
         "componentType" : 5126,
         "count" : 74,
         "max" : [ 0.9997000098228455, 0.9747999906539917 ],
         "min" : [ -0.0003000000142492354, -0.01070000045001507 ],
         "type" : "VEC2"
      },
      {
         "bufferView" : 84,
         "byteOffset" : 0,
         "componentType" : 5123,
         "count" : 240,
         "max" : [ 71 ],
         "min" : [ 0 ],
         "type" : "SCALAR"
      },
      {
         "bufferView" : 85,
         "byteOffset" : 0,
         "componentType" : 5126,
         "count" : 72,
         "max" : [ 3.190391063690186, 3.10246205329895, 2.110399007797241 ],
         "min" : [ 2.343611001968384, 2.925018072128296, 1.263615965843201 ],
         "type" : "VEC3"
      },
      {
         "bufferView" : 86,
         "byteOffset" : 0,
         "componentType" : 5126,
         "count" : 72,
         "type" : "VEC3"
      },
      {
         "bufferView" : 87,
         "byteOffset" : 0,
         "componentType" : 5126,
         "count" : 72,
         "max" : [ 0.9997000098228455, 0.9430000185966492 ],
         "min" : [ -0.0003000000142492354, -0.01070000045001507 ],
         "type" : "VEC2"
      },
      {
         "bufferView" : 88,
         "byteOffset" : 0,
         "componentType" : 5123,
         "count" : 300,
         "max" : [ 70 ],
         "min" : [ 0 ],
         "type" : "SCALAR"
      },
      {
         "bufferView" : 89,
         "byteOffset" : 0,
         "componentType" : 5126,
         "count" : 71,
         "max" : [ 2.20032000541687, 2.446515083312988, 1.079216957092285 ],
         "min" : [ -3.286710977554321, 1.482741951942444, -0.976855993270874 ],
         "type" : "VEC3"
      },
      {
         "bufferView" : 90,
         "byteOffset" : 0,
         "componentType" : 5126,
         "count" : 71,
         "type" : "VEC3"
      },
      {
         "bufferView" : 91,
         "byteOffset" : 0,
         "componentType" : 5126,
         "count" : 71,
         "max" : [ 1.25, 1 ],
         "min" : [ 0, 0 ],
         "type" : "VEC2"
      },
      {
         "bufferView" : 92,
         "byteOffset" : 0,
         "componentType" : 5123,
         "count" : 390,
         "max" : [ 95 ],
         "min" : [ 0 ],
         "type" : "SCALAR"
      },
      {
         "bufferView" : 93,
         "byteOffset" : 0,
         "componentType" : 5126,
         "count" : 96,
         "max" : [ -2.995553016662598, 2.494395971298218, 0.2033099979162216 ],
         "min" : [ -3.450150012969971, 1.43486499786377, -1.045943021774292 ],
         "type" : "VEC3"
      },
      {
         "bufferView" : 94,
         "byteOffset" : 0,
         "componentType" : 5126,
         "count" : 96,
         "type" : "VEC3"
      },
      {
         "bufferView" : 95,
         "byteOffset" : 0,
         "componentType" : 5126,
         "count" : 96,
         "max" : [ 1.001999974250794, 1 ],
         "min" : [ 0.002000000094994903, 0 ],
         "type" : "VEC2"
      },
      {
         "bufferView" : 96,
         "byteOffset" : 0,
         "componentType" : 5123,
         "count" : 390,
         "max" : [ 95 ],
         "min" : [ 0 ],
         "type" : "SCALAR"
      },
      {
         "bufferView" : 97,
         "byteOffset" : 0,
         "componentType" : 5126,
         "count" : 96,
         "max" : [ 2.197010040283203, 2.494395971298218, 1.118898987770081 ],
         "min" : [ 1.742409944534302, 1.43486499786377, -0.1303540021181107 ],
         "type" : "VEC3"
      },
      {
         "bufferView" : 98,
         "byteOffset" : 0,
         "componentType" : 5126,
         "count" : 96,
         "type" : "VEC3"
      },
      {
         "bufferView" : 99,
         "byteOffset" : 0,
         "componentType" : 5126,
         "count" : 96,
         "max" : [ 0.9981000423431397, 0.9961000084877014 ],
         "min" : [ -0.001900000032037497, -0.003899999894201756 ],
         "type" : "VEC2"
      },
      {
         "bufferView" : 100,
         "byteOffset" : 0,
         "componentType" : 5123,
         "count" : 468,
         "max" : [ 96 ],
         "min" : [ 0 ],
         "type" : "SCALAR"
      },
      {
         "bufferView" : 101,
         "byteOffset" : 0,
         "componentType" : 5126,
         "count" : 97,
         "max" : [ 1.145871996879578, 2.494395971298218, 0.9335539937019348 ],
         "min" : [ 0.6912779808044434, 1.43486499786377, -0.3156990110874176 ],
         "type" : "VEC3"
      },
      {
         "bufferView" : 102,
         "byteOffset" : 0,
         "componentType" : 5126,
         "count" : 97,
         "type" : "VEC3"
      },
      {
         "bufferView" : 103,
         "byteOffset" : 0,
         "componentType" : 5126,
         "count" : 97,
         "max" : [ 0.9941999912261963, 0.9961000084877014 ],
         "min" : [ -0.005799999926239252, -0.003899999894201756 ],
         "type" : "VEC2"
      },
      {
         "bufferView" : 104,
         "byteOffset" : 0,
         "componentType" : 5123,
         "count" : 468,
         "max" : [ 96 ],
         "min" : [ 0 ],
         "type" : "SCALAR"
      },
      {
         "bufferView" : 105,
         "byteOffset" : 0,
         "componentType" : 5126,
         "count" : 97,
         "max" : [ 0.04588399827480316, 2.494395971298218, 0.7395979762077332 ],
         "min" : [ -0.4087100028991699, 1.43486499786377, -0.5096560120582581 ],
         "type" : "VEC3"
      },
      {
         "bufferView" : 106,
         "byteOffset" : 0,
         "componentType" : 5126,
         "count" : 97,
         "type" : "VEC3"
      },
      {
         "bufferView" : 107,
         "byteOffset" : 0,
         "componentType" : 5126,
         "count" : 97,
         "max" : [ 1.005900025367737, 1 ],
         "min" : [ 0.005900000222027302, 0 ],
         "type" : "VEC2"
      },
      {
         "bufferView" : 108,
         "byteOffset" : 0,
         "componentType" : 5123,
         "count" : 468,
         "max" : [ 96 ],
         "min" : [ 0 ],
         "type" : "SCALAR"
      },
      {
         "bufferView" : 109,
         "byteOffset" : 0,
         "componentType" : 5126,
         "count" : 97,
         "max" : [ -0.9987789988517761, 2.494395971298218, 0.5553939938545227 ],
         "min" : [ -1.453379034996033, 1.43486499786377, -0.6938599944114685 ],
         "type" : "VEC3"
      },
      {
         "bufferView" : 110,
         "byteOffset" : 0,
         "componentType" : 5126,
         "count" : 97,
         "type" : "VEC3"
      },
      {
         "bufferView" : 111,
         "byteOffset" : 0,
         "componentType" : 5126,
         "count" : 97,
         "max" : [ 0.9981000423431397, 1.007799983024597 ],
         "min" : [ -0.001900000032037497, 0.007799999788403511 ],
         "type" : "VEC2"
      },
      {
         "bufferView" : 112,
         "byteOffset" : 0,
         "componentType" : 5123,
         "count" : 468,
         "max" : [ 96 ],
         "min" : [ 0 ],
         "type" : "SCALAR"
      },
      {
         "bufferView" : 113,
         "byteOffset" : 0,
         "componentType" : 5126,
         "count" : 97,
         "max" : [ -2.010844945907593, 2.494395971298218, 0.3769440054893494 ],
         "min" : [ -2.465439081192017, 1.43486499786377, -0.8723139762878418 ],
         "type" : "VEC3"
      },
      {
         "bufferView" : 114,
         "byteOffset" : 0,
         "componentType" : 5126,
         "count" : 97,
         "type" : "VEC3"
      },
      {
         "bufferView" : 115,
         "byteOffset" : 0,
         "componentType" : 5126,
         "count" : 97,
         "max" : [ 0.9981000423431397, 1 ],
         "min" : [ -0.001900000032037497, 0 ],
         "type" : "VEC2"
      },
      {
         "bufferView" : 116,
         "byteOffset" : 0,
         "componentType" : 5123,
         "count" : 36,
         "max" : [ 23 ],
         "min" : [ 0 ],
         "type" : "SCALAR"
      },
      {
         "bufferView" : 117,
         "byteOffset" : 0,
         "componentType" : 5126,
         "count" : 24,
         "max" : [ 2.174818992614746, 1.558065056800842, 1.010470032691956 ],
         "min" : [ -3.304450035095215, 1.4775630235672, -0.9157379865646362 ],
         "type" : "VEC3"
      },
      {
         "bufferView" : 118,
         "byteOffset" : 0,
         "componentType" : 5126,
         "count" : 24,
         "type" : "VEC3"
      },
      {
         "bufferView" : 119,
         "byteOffset" : 0,
         "componentType" : 5126,
         "count" : 24,
         "max" : [ 0.9932000041007996, 0.8037999868392944 ],
         "min" : [ 0, 0.1288000047206879 ],
         "type" : "VEC2"
      }
   ],
   "asset" : {
      "extras" : {
         "date" : "Tue Jan 03 08:36:44 2023",
         "website" : "http://www.unwrap3d.com"
      },
      "generator" : "Ultimate Unwrap3D Pro (x64) v3.50.61",
      "version" : "2.0"
   },
   "bufferViews" : [
      {
         "buffer" : 0,
         "byteLength" : 696,
         "byteOffset" : 0
      },
      {
         "buffer" : 0,
         "byteLength" : 1728,
         "byteOffset" : 696,
         "byteStride" : 12
      },
      {
         "buffer" : 0,
         "byteLength" : 1728,
         "byteOffset" : 2424,
         "byteStride" : 12
      },
      {
         "buffer" : 0,
         "byteLength" : 1152,
         "byteOffset" : 4152,
         "byteStride" : 8
      },
      {
         "buffer" : 0,
         "byteLength" : 192,
         "byteOffset" : 5304
      },
      {
         "buffer" : 0,
         "byteLength" : 624,
         "byteOffset" : 5496,
         "byteStride" : 12
      },
      {
         "buffer" : 0,
         "byteLength" : 624,
         "byteOffset" : 6120,
         "byteStride" : 12
      },
      {
         "buffer" : 0,
         "byteLength" : 416,
         "byteOffset" : 6744,
         "byteStride" : 8
      },
      {
         "buffer" : 0,
         "byteLength" : 696,
         "byteOffset" : 7160
      },
      {
         "buffer" : 0,
         "byteLength" : 1728,
         "byteOffset" : 7856,
         "byteStride" : 12
      },
      {
         "buffer" : 0,
         "byteLength" : 1728,
         "byteOffset" : 9584,
         "byteStride" : 12
      },
      {
         "buffer" : 0,
         "byteLength" : 1152,
         "byteOffset" : 11312,
         "byteStride" : 8
      },
      {
         "buffer" : 0,
         "byteLength" : 192,
         "byteOffset" : 12464
      },
      {
         "buffer" : 0,
         "byteLength" : 624,
         "byteOffset" : 12656,
         "byteStride" : 12
      },
      {
         "buffer" : 0,
         "byteLength" : 624,
         "byteOffset" : 13280,
         "byteStride" : 12
      },
      {
         "buffer" : 0,
         "byteLength" : 416,
         "byteOffset" : 13904,
         "byteStride" : 8
      },
      {
         "buffer" : 0,
         "byteLength" : 4080,
         "byteOffset" : 14320
      },
      {
         "buffer" : 0,
         "byteLength" : 9144,
         "byteOffset" : 18400,
         "byteStride" : 12
      },
      {
         "buffer" : 0,
         "byteLength" : 9144,
         "byteOffset" : 27544,
         "byteStride" : 12
      },
      {
         "buffer" : 0,
         "byteLength" : 6096,
         "byteOffset" : 36688,
         "byteStride" : 8
      },
      {
         "buffer" : 0,
         "byteLength" : 936,
         "byteOffset" : 42784
      },
      {
         "buffer" : 0,
         "byteLength" : 2364,
         "byteOffset" : 43720,
         "byteStride" : 12
      },
      {
         "buffer" : 0,
         "byteLength" : 2364,
         "byteOffset" : 46084,
         "byteStride" : 12
      },
      {
         "buffer" : 0,
         "byteLength" : 1576,
         "byteOffset" : 48448,
         "byteStride" : 8
      },
      {
         "buffer" : 0,
         "byteLength" : 936,
         "byteOffset" : 50024
      },
      {
         "buffer" : 0,
         "byteLength" : 2364,
         "byteOffset" : 50960,
         "byteStride" : 12
      },
      {
         "buffer" : 0,
         "byteLength" : 2364,
         "byteOffset" : 53324,
         "byteStride" : 12
      },
      {
         "buffer" : 0,
         "byteLength" : 1576,
         "byteOffset" : 55688,
         "byteStride" : 8
      },
      {
         "buffer" : 0,
         "byteLength" : 7008,
         "byteOffset" : 57264
      },
      {
         "buffer" : 0,
         "byteLength" : 16200,
         "byteOffset" : 64272,
         "byteStride" : 12
      },
      {
         "buffer" : 0,
         "byteLength" : 16200,
         "byteOffset" : 80472,
         "byteStride" : 12
      },
      {
         "buffer" : 0,
         "byteLength" : 10800,
         "byteOffset" : 96672,
         "byteStride" : 8
      },
      {
         "buffer" : 0,
         "byteLength" : 684,
         "byteOffset" : 107472
      },
      {
         "buffer" : 0,
         "byteLength" : 1812,
         "byteOffset" : 108156,
         "byteStride" : 12
      },
      {
         "buffer" : 0,
         "byteLength" : 1812,
         "byteOffset" : 109968,
         "byteStride" : 12
      },
      {
         "buffer" : 0,
         "byteLength" : 1208,
         "byteOffset" : 111780,
         "byteStride" : 8
      },
      {
         "buffer" : 0,
         "byteLength" : 264,
         "byteOffset" : 112988
      },
      {
         "buffer" : 0,
         "byteLength" : 912,
         "byteOffset" : 113252,
         "byteStride" : 12
      },
      {
         "buffer" : 0,
         "byteLength" : 912,
         "byteOffset" : 114164,
         "byteStride" : 12
      },
      {
         "buffer" : 0,
         "byteLength" : 608,
         "byteOffset" : 115076,
         "byteStride" : 8
      },
      {
         "buffer" : 0,
         "byteLength" : 672,
         "byteOffset" : 115684
      },
      {
         "buffer" : 0,
         "byteLength" : 1764,
         "byteOffset" : 116356,
         "byteStride" : 12
      },
      {
         "buffer" : 0,
         "byteLength" : 1764,
         "byteOffset" : 118120,
         "byteStride" : 12
      },
      {
         "buffer" : 0,
         "byteLength" : 1176,
         "byteOffset" : 119884,
         "byteStride" : 8
      },
      {
         "buffer" : 0,
         "byteLength" : 276,
         "byteOffset" : 121060
      },
      {
         "buffer" : 0,
         "byteLength" : 936,
         "byteOffset" : 121336,
         "byteStride" : 12
      },
      {
         "buffer" : 0,
         "byteLength" : 936,
         "byteOffset" : 122272,
         "byteStride" : 12
      },
      {
         "buffer" : 0,
         "byteLength" : 624,
         "byteOffset" : 123208,
         "byteStride" : 8
      },
      {
         "buffer" : 0,
         "byteLength" : 684,
         "byteOffset" : 123832
      },
      {
         "buffer" : 0,
         "byteLength" : 1824,
         "byteOffset" : 124516,
         "byteStride" : 12
      },
      {
         "buffer" : 0,
         "byteLength" : 1824,
         "byteOffset" : 126340,
         "byteStride" : 12
      },
      {
         "buffer" : 0,
         "byteLength" : 1216,
         "byteOffset" : 128164,
         "byteStride" : 8
      },
      {
         "buffer" : 0,
         "byteLength" : 264,
         "byteOffset" : 129380
      },
      {
         "buffer" : 0,
         "byteLength" : 912,
         "byteOffset" : 129644,
         "byteStride" : 12
      },
      {
         "buffer" : 0,
         "byteLength" : 912,
         "byteOffset" : 130556,
         "byteStride" : 12
      },
      {
         "buffer" : 0,
         "byteLength" : 608,
         "byteOffset" : 131468,
         "byteStride" : 8
      },
      {
         "buffer" : 0,
         "byteLength" : 696,
         "byteOffset" : 132076
      },
      {
         "buffer" : 0,
         "byteLength" : 1872,
         "byteOffset" : 132772,
         "byteStride" : 12
      },
      {
         "buffer" : 0,
         "byteLength" : 1872,
         "byteOffset" : 134644,
         "byteStride" : 12
      },
      {
         "buffer" : 0,
         "byteLength" : 1248,
         "byteOffset" : 136516,
         "byteStride" : 8
      },
      {
         "buffer" : 0,
         "byteLength" : 252,
         "byteOffset" : 137764
      },
      {
         "buffer" : 0,
         "byteLength" : 864,
         "byteOffset" : 138016,
         "byteStride" : 12
      },
      {
         "buffer" : 0,
         "byteLength" : 864,
         "byteOffset" : 138880,
         "byteStride" : 12
      },
      {
         "buffer" : 0,
         "byteLength" : 576,
         "byteOffset" : 139744,
         "byteStride" : 8
      },
      {
         "buffer" : 0,
         "byteLength" : 480,
         "byteOffset" : 140320
      },
      {
         "buffer" : 0,
         "byteLength" : 864,
         "byteOffset" : 140800,
         "byteStride" : 12
      },
      {
         "buffer" : 0,
         "byteLength" : 864,
         "byteOffset" : 141664,
         "byteStride" : 12
      },
      {
         "buffer" : 0,
         "byteLength" : 576,
         "byteOffset" : 142528,
         "byteStride" : 8
      },
      {
         "buffer" : 0,
         "byteLength" : 480,
         "byteOffset" : 143104
      },
      {
         "buffer" : 0,
         "byteLength" : 888,
         "byteOffset" : 143584,
         "byteStride" : 12
      },
      {
         "buffer" : 0,
         "byteLength" : 888,
         "byteOffset" : 144472,
         "byteStride" : 12
      },
      {
         "buffer" : 0,
         "byteLength" : 592,
         "byteOffset" : 145360,
         "byteStride" : 8
      },
      {
         "buffer" : 0,
         "byteLength" : 480,
         "byteOffset" : 145952
      },
      {
         "buffer" : 0,
         "byteLength" : 864,
         "byteOffset" : 146432,
         "byteStride" : 12
      },
      {
         "buffer" : 0,
         "byteLength" : 864,
         "byteOffset" : 147296,
         "byteStride" : 12
      },
      {
         "buffer" : 0,
         "byteLength" : 576,
         "byteOffset" : 148160,
         "byteStride" : 8
      },
      {
         "buffer" : 0,
         "byteLength" : 480,
         "byteOffset" : 148736
      },
      {
         "buffer" : 0,
         "byteLength" : 864,
         "byteOffset" : 149216,
         "byteStride" : 12
      },
      {
         "buffer" : 0,
         "byteLength" : 864,
         "byteOffset" : 150080,
         "byteStride" : 12
      },
      {
         "buffer" : 0,
         "byteLength" : 576,
         "byteOffset" : 150944,
         "byteStride" : 8
      },
      {
         "buffer" : 0,
         "byteLength" : 480,
         "byteOffset" : 151520
      },
      {
         "buffer" : 0,
         "byteLength" : 888,
         "byteOffset" : 152000,
         "byteStride" : 12
      },
      {
         "buffer" : 0,
         "byteLength" : 888,
         "byteOffset" : 152888,
         "byteStride" : 12
      },
      {
         "buffer" : 0,
         "byteLength" : 592,
         "byteOffset" : 153776,
         "byteStride" : 8
      },
      {
         "buffer" : 0,
         "byteLength" : 480,
         "byteOffset" : 154368
      },
      {
         "buffer" : 0,
         "byteLength" : 864,
         "byteOffset" : 154848,
         "byteStride" : 12
      },
      {
         "buffer" : 0,
         "byteLength" : 864,
         "byteOffset" : 155712,
         "byteStride" : 12
      },
      {
         "buffer" : 0,
         "byteLength" : 576,
         "byteOffset" : 156576,
         "byteStride" : 8
      },
      {
         "buffer" : 0,
         "byteLength" : 600,
         "byteOffset" : 157152
      },
      {
         "buffer" : 0,
         "byteLength" : 852,
         "byteOffset" : 157752,
         "byteStride" : 12
      },
      {
         "buffer" : 0,
         "byteLength" : 852,
         "byteOffset" : 158604,
         "byteStride" : 12
      },
      {
         "buffer" : 0,
         "byteLength" : 568,
         "byteOffset" : 159456,
         "byteStride" : 8
      },
      {
         "buffer" : 0,
         "byteLength" : 780,
         "byteOffset" : 160024
      },
      {
         "buffer" : 0,
         "byteLength" : 1152,
         "byteOffset" : 160804,
         "byteStride" : 12
      },
      {
         "buffer" : 0,
         "byteLength" : 1152,
         "byteOffset" : 161956,
         "byteStride" : 12
      },
      {
         "buffer" : 0,
         "byteLength" : 768,
         "byteOffset" : 163108,
         "byteStride" : 8
      },
      {
         "buffer" : 0,
         "byteLength" : 780,
         "byteOffset" : 163876
      },
      {
         "buffer" : 0,
         "byteLength" : 1152,
         "byteOffset" : 164656,
         "byteStride" : 12
      },
      {
         "buffer" : 0,
         "byteLength" : 1152,
         "byteOffset" : 165808,
         "byteStride" : 12
      },
      {
         "buffer" : 0,
         "byteLength" : 768,
         "byteOffset" : 166960,
         "byteStride" : 8
      },
      {
         "buffer" : 0,
         "byteLength" : 936,
         "byteOffset" : 167728
      },
      {
         "buffer" : 0,
         "byteLength" : 1164,
         "byteOffset" : 168664,
         "byteStride" : 12
      },
      {
         "buffer" : 0,
         "byteLength" : 1164,
         "byteOffset" : 169828,
         "byteStride" : 12
      },
      {
         "buffer" : 0,
         "byteLength" : 776,
         "byteOffset" : 170992,
         "byteStride" : 8
      },
      {
         "buffer" : 0,
         "byteLength" : 936,
         "byteOffset" : 171768
      },
      {
         "buffer" : 0,
         "byteLength" : 1164,
         "byteOffset" : 172704,
         "byteStride" : 12
      },
      {
         "buffer" : 0,
         "byteLength" : 1164,
         "byteOffset" : 173868,
         "byteStride" : 12
      },
      {
         "buffer" : 0,
         "byteLength" : 776,
         "byteOffset" : 175032,
         "byteStride" : 8
      },
      {
         "buffer" : 0,
         "byteLength" : 936,
         "byteOffset" : 175808
      },
      {
         "buffer" : 0,
         "byteLength" : 1164,
         "byteOffset" : 176744,
         "byteStride" : 12
      },
      {
         "buffer" : 0,
         "byteLength" : 1164,
         "byteOffset" : 177908,
         "byteStride" : 12
      },
      {
         "buffer" : 0,
         "byteLength" : 776,
         "byteOffset" : 179072,
         "byteStride" : 8
      },
      {
         "buffer" : 0,
         "byteLength" : 936,
         "byteOffset" : 179848
      },
      {
         "buffer" : 0,
         "byteLength" : 1164,
         "byteOffset" : 180784,
         "byteStride" : 12
      },
      {
         "buffer" : 0,
         "byteLength" : 1164,
         "byteOffset" : 181948,
         "byteStride" : 12
      },
      {
         "buffer" : 0,
         "byteLength" : 776,
         "byteOffset" : 183112,
         "byteStride" : 8
      },
      {
         "buffer" : 0,
         "byteLength" : 72,
         "byteOffset" : 183888
      },
      {
         "buffer" : 0,
         "byteLength" : 288,
         "byteOffset" : 183960,
         "byteStride" : 12
      },
      {
         "buffer" : 0,
         "byteLength" : 288,
         "byteOffset" : 184248,
         "byteStride" : 12
      },
      {
         "buffer" : 0,
         "byteLength" : 192,
         "byteOffset" : 184536,
         "byteStride" : 8
      }
   ],
   "buffers" : [
      {
         "byteLength" : 184728,
         "uri" : "command_center_10.bin"
      }
   ],
   "materials" : [
      {
         "name" : "matPBRPlasticScuffedBlue0",
         "pbrMetallicRoughness" : {
            "baseColorFactor" : [ 1, 1, 1, 1 ],
            "metallicFactor" : 0
         }
      },
      {
         "name" : "matPBRPlasticScuffedBlue1",
         "pbrMetallicRoughness" : {
            "baseColorFactor" : [ 1, 1, 1, 1 ],
            "metallicFactor" : 0
         }
      },
      {
         "name" : "matPBRPlasticScuffedBlue2",
         "pbrMetallicRoughness" : {
            "baseColorFactor" : [ 1, 1, 1, 1 ],
            "metallicFactor" : 0
         }
      },
      {
         "name" : "matPBRPlasticScuffedBlue3",
         "pbrMetallicRoughness" : {
            "baseColorFactor" : [ 1, 1, 1, 1 ],
            "metallicFactor" : 0
         }
      },
      {
         "name" : "concrete_smooth4",
         "pbrMetallicRoughness" : {
            "baseColorFactor" : [ 1, 1, 1, 1 ],
            "metallicFactor" : 0
         }
      },
      {
         "name" : "matPBRPlasticScuffedBlue5",
         "pbrMetallicRoughness" : {
            "baseColorFactor" : [ 1, 1, 1, 1 ],
            "metallicFactor" : 0
         }
      },
      {
         "name" : "matPBRPlasticScuffedBlue6",
         "pbrMetallicRoughness" : {
            "baseColorFactor" : [ 1, 1, 1, 1 ],
            "metallicFactor" : 0
         }
      },
      {
         "name" : "concrete_smooth",
         "pbrMetallicRoughness" : {
            "baseColorFactor" : [ 1, 1, 1, 1 ],
            "metallicFactor" : 0
         }
      },
      {
         "name" : "matPBRPlasticScuffedBlue7",
         "pbrMetallicRoughness" : {
            "baseColorFactor" : [ 1, 1, 1, 1 ],
            "metallicFactor" : 0
         }
      },
      {
         "name" : "matPBRPlasticScuffedBlue8",
         "pbrMetallicRoughness" : {
            "baseColorFactor" : [ 1, 1, 1, 1 ],
            "metallicFactor" : 0
         }
      },
      {
         "name" : "matPBRPlasticScuffedBlue9",
         "pbrMetallicRoughness" : {
            "baseColorFactor" : [ 1, 1, 1, 1 ],
            "metallicFactor" : 0
         }
      },
      {
         "name" : "matPBRPlasticScuffedBlue10",
         "pbrMetallicRoughness" : {
            "baseColorFactor" : [ 1, 1, 1, 1 ],
            "metallicFactor" : 0
         }
      },
      {
         "name" : "matPBRPlasticScuffedBlue11",
         "pbrMetallicRoughness" : {
            "baseColorFactor" : [ 1, 1, 1, 1 ],
            "metallicFactor" : 0
         }
      },
      {
         "name" : "matPBRPlasticScuffedBlue12",
         "pbrMetallicRoughness" : {
            "baseColorFactor" : [ 1, 1, 1, 1 ],
            "metallicFactor" : 0
         }
      },
      {
         "name" : "matPBRPlasticScuffedBlue13",
         "pbrMetallicRoughness" : {
            "baseColorFactor" : [ 1, 1, 1, 1 ],
            "metallicFactor" : 0
         }
      },
      {
         "name" : "matPBRPlasticScuffedBlue14",
         "pbrMetallicRoughness" : {
            "baseColorFactor" : [ 1, 1, 1, 1 ],
            "metallicFactor" : 0
         }
      },
      {
         "name" : "matPBRPlasticScuffedBlue15",
         "pbrMetallicRoughness" : {
            "baseColorFactor" : [ 1, 1, 1, 1 ],
            "metallicFactor" : 0
         }
      },
      {
         "name" : "matPBRPlasticScuffedBlue16",
         "pbrMetallicRoughness" : {
            "baseColorFactor" : [ 1, 1, 1, 1 ],
            "metallicFactor" : 0
         }
      },
      {
         "name" : "matPBRPlasticScuffedBlue17",
         "pbrMetallicRoughness" : {
            "baseColorFactor" : [ 1, 1, 1, 1 ],
            "metallicFactor" : 0
         }
      },
      {
         "name" : "matPBRPlasticScuffedBlue18",
         "pbrMetallicRoughness" : {
            "baseColorFactor" : [ 1, 1, 1, 1 ],
            "metallicFactor" : 0
         }
      },
      {
         "name" : "matPBRPlasticScuffedBlue19",
         "pbrMetallicRoughness" : {
            "baseColorFactor" : [ 1, 1, 1, 1 ],
            "metallicFactor" : 0
         }
      },
      {
         "name" : "matPBRPlasticScuffedBlue",
         "pbrMetallicRoughness" : {
            "baseColorFactor" : [ 1, 1, 1, 1 ],
            "metallicFactor" : 0
         }
      },
      {
         "name" : "matPBRGlassBlue",
         "pbrMetallicRoughness" : {
            "baseColorFactor" : [ 1, 1, 1, 1 ],
            "metallicFactor" : 0
         }
      },
      {
         "name" : "matPBRSteelWorn20",
         "pbrMetallicRoughness" : {
            "baseColorFactor" : [ 1, 1, 1, 1 ],
            "metallicFactor" : 0
         }
      },
      {
         "name" : "matPBRSteelWorn21",
         "pbrMetallicRoughness" : {
            "baseColorFactor" : [ 1, 1, 1, 1 ],
            "metallicFactor" : 0
         }
      },
      {
         "name" : "matPBRSteelWorn22",
         "pbrMetallicRoughness" : {
            "baseColorFactor" : [ 1, 1, 1, 1 ],
            "metallicFactor" : 0
         }
      },
      {
         "name" : "matPBRSteelWorn23",
         "pbrMetallicRoughness" : {
            "baseColorFactor" : [ 1, 1, 1, 1 ],
            "metallicFactor" : 0
         }
      },
      {
         "name" : "matPBRSteelWorn24",
         "pbrMetallicRoughness" : {
            "baseColorFactor" : [ 1, 1, 1, 1 ],
            "metallicFactor" : 0
         }
      },
      {
         "name" : "matPBRSteelWorn",
         "pbrMetallicRoughness" : {
            "baseColorFactor" : [ 1, 1, 1, 1 ],
            "metallicFactor" : 0
         }
      },
      {
         "name" : "floor",
         "pbrMetallicRoughness" : {
            "baseColorFactor" : [ 1, 1, 1, 1 ],
            "metallicFactor" : 0
         }
      }
   ],
   "meshes" : [
      {
         "name" : "StaticMesh",
         "primitives" : [
            {
               "attributes" : {
                  "NORMAL" : 2,
                  "POSITION" : 1,
                  "TEXCOORD_0" : 3
               },
               "indices" : 0,
               "material" : 0,
               "mode" : 4
            },
            {
               "attributes" : {
                  "NORMAL" : 6,
                  "POSITION" : 5,
                  "TEXCOORD_0" : 7
               },
               "indices" : 4,
               "material" : 1,
               "mode" : 4
            },
            {
               "attributes" : {
                  "NORMAL" : 10,
                  "POSITION" : 9,
                  "TEXCOORD_0" : 11
               },
               "indices" : 8,
               "material" : 2,
               "mode" : 4
            },
            {
               "attributes" : {
                  "NORMAL" : 14,
                  "POSITION" : 13,
                  "TEXCOORD_0" : 15
               },
               "indices" : 12,
               "material" : 3,
               "mode" : 4
            },
            {
               "attributes" : {
                  "NORMAL" : 18,
                  "POSITION" : 17,
                  "TEXCOORD_0" : 19
               },
               "indices" : 16,
               "material" : 4,
               "mode" : 4
            },
            {
               "attributes" : {
                  "NORMAL" : 22,
                  "POSITION" : 21,
                  "TEXCOORD_0" : 23
               },
               "indices" : 20,
               "material" : 5,
               "mode" : 4
            },
            {
               "attributes" : {
                  "NORMAL" : 26,
                  "POSITION" : 25,
                  "TEXCOORD_0" : 27
               },
               "indices" : 24,
               "material" : 6,
               "mode" : 4
            },
            {
               "attributes" : {
                  "NORMAL" : 30,
                  "POSITION" : 29,
                  "TEXCOORD_0" : 31
               },
               "indices" : 28,
               "material" : 7,
               "mode" : 4
            },
            {
               "attributes" : {
                  "NORMAL" : 34,
                  "POSITION" : 33,
                  "TEXCOORD_0" : 35
               },
               "indices" : 32,
               "material" : 8,
               "mode" : 4
            },
            {
               "attributes" : {
                  "NORMAL" : 38,
                  "POSITION" : 37,
                  "TEXCOORD_0" : 39
               },
               "indices" : 36,
               "material" : 9,
               "mode" : 4
            },
            {
               "attributes" : {
                  "NORMAL" : 42,
                  "POSITION" : 41,
                  "TEXCOORD_0" : 43
               },
               "indices" : 40,
               "material" : 10,
               "mode" : 4
            },
            {
               "attributes" : {
                  "NORMAL" : 46,
                  "POSITION" : 45,
                  "TEXCOORD_0" : 47
               },
               "indices" : 44,
               "material" : 11,
               "mode" : 4
            },
            {
               "attributes" : {
                  "NORMAL" : 50,
                  "POSITION" : 49,
                  "TEXCOORD_0" : 51
               },
               "indices" : 48,
               "material" : 12,
               "mode" : 4
            },
            {
               "attributes" : {
                  "NORMAL" : 54,
                  "POSITION" : 53,
                  "TEXCOORD_0" : 55
               },
               "indices" : 52,
               "material" : 13,
               "mode" : 4
            },
            {
               "attributes" : {
                  "NORMAL" : 58,
                  "POSITION" : 57,
                  "TEXCOORD_0" : 59
               },
               "indices" : 56,
               "material" : 14,
               "mode" : 4
            },
            {
               "attributes" : {
                  "NORMAL" : 62,
                  "POSITION" : 61,
                  "TEXCOORD_0" : 63
               },
               "indices" : 60,
               "material" : 15,
               "mode" : 4
            },
            {
               "attributes" : {
                  "NORMAL" : 66,
                  "POSITION" : 65,
                  "TEXCOORD_0" : 67
               },
               "indices" : 64,
               "material" : 16,
               "mode" : 4
            },
            {
               "attributes" : {
                  "NORMAL" : 70,
                  "POSITION" : 69,
                  "TEXCOORD_0" : 71
               },
               "indices" : 68,
               "material" : 17,
               "mode" : 4
            },
            {
               "attributes" : {
                  "NORMAL" : 74,
                  "POSITION" : 73,
                  "TEXCOORD_0" : 75
               },
               "indices" : 72,
               "material" : 18,
               "mode" : 4
            },
            {
               "attributes" : {
                  "NORMAL" : 78,
                  "POSITION" : 77,
                  "TEXCOORD_0" : 79
               },
               "indices" : 76,
               "material" : 19,
               "mode" : 4
            },
            {
               "attributes" : {
                  "NORMAL" : 82,
                  "POSITION" : 81,
                  "TEXCOORD_0" : 83
               },
               "indices" : 80,
               "material" : 20,
               "mode" : 4
            },
            {
               "attributes" : {
                  "NORMAL" : 86,
                  "POSITION" : 85,
                  "TEXCOORD_0" : 87
               },
               "indices" : 84,
               "material" : 21,
               "mode" : 4
            },
            {
               "attributes" : {
                  "NORMAL" : 90,
                  "POSITION" : 89,
                  "TEXCOORD_0" : 91
               },
               "indices" : 88,
               "material" : 22,
               "mode" : 4
            },
            {
               "attributes" : {
                  "NORMAL" : 94,
                  "POSITION" : 93,
                  "TEXCOORD_0" : 95
               },
               "indices" : 92,
               "material" : 23,
               "mode" : 4
            },
            {
               "attributes" : {
                  "NORMAL" : 98,
                  "POSITION" : 97,
                  "TEXCOORD_0" : 99
               },
               "indices" : 96,
               "material" : 24,
               "mode" : 4
            },
            {
               "attributes" : {
                  "NORMAL" : 102,
                  "POSITION" : 101,
                  "TEXCOORD_0" : 103
               },
               "indices" : 100,
               "material" : 25,
               "mode" : 4
            },
            {
               "attributes" : {
                  "NORMAL" : 106,
                  "POSITION" : 105,
                  "TEXCOORD_0" : 107
               },
               "indices" : 104,
               "material" : 26,
               "mode" : 4
            },
            {
               "attributes" : {
                  "NORMAL" : 110,
                  "POSITION" : 109,
                  "TEXCOORD_0" : 111
               },
               "indices" : 108,
               "material" : 27,
               "mode" : 4
            },
            {
               "attributes" : {
                  "NORMAL" : 114,
                  "POSITION" : 113,
                  "TEXCOORD_0" : 115
               },
               "indices" : 112,
               "material" : 28,
               "mode" : 4
            },
            {
               "attributes" : {
                  "NORMAL" : 118,
                  "POSITION" : 117,
                  "TEXCOORD_0" : 119
               },
               "indices" : 116,
               "material" : 29,
               "mode" : 4
            }
         ]
      }
   ],
   "nodes" : [
      {
         "mesh" : 0,
         "name" : "StaticMesh"
      }
   ],
   "scene" : 0,
   "scenes" : [
      {
         "nodes" : [ 0 ]
      }
   ]
}
