{
   "accessors" : [
      {
         "bufferView" : 0,
         "byteOffset" : 0,
         "componentType" : 5123,
         "count" : 180,
         "max" : [ 70 ],
         "min" : [ 0 ],
         "type" : "SCALAR"
      },
      {
         "bufferView" : 1,
         "byteOffset" : 0,
         "componentType" : 5126,
         "count" : 71,
         "max" : [ 0.46875, 0.9375, 0.15625 ],
         "min" : [ -0.46875, 0, -0.15625 ],
         "type" : "VEC3"
      },
      {
         "bufferView" : 2,
         "byteOffset" : 0,
         "componentType" : 5126,
         "count" : 71,
         "type" : "VEC3"
      },
      {
         "bufferView" : 3,
         "byteOffset" : 0,
         "componentType" : 5126,
         "count" : 71,
         "max" : [ 0.8502990007400513, 1 ],
         "min" : [ 0.1497009992599487, 0 ],
         "type" : "VEC2"
      }
   ],
   "asset" : {
      "extras" : {
         "date" : "Tue Jan 03 08:38:21 2023",
         "website" : "http://www.unwrap3d.com"
      },
      "generator" : "Ultimate Unwrap3D Pro (x64) v3.50.61",
      "version" : "2.0"
   },
   "bufferViews" : [
      {
         "buffer" : 0,
         "byteLength" : 360,
         "byteOffset" : 0
      },
      {
         "buffer" : 0,
         "byteLength" : 852,
         "byteOffset" : 360,
         "byteStride" : 12
      },
      {
         "buffer" : 0,
         "byteLength" : 852,
         "byteOffset" : 1212,
         "byteStride" : 12
      },
      {
         "buffer" : 0,
         "byteLength" : 568,
         "byteOffset" : 2064,
         "byteStride" : 8
      }
   ],
   "buffers" : [
      {
         "byteLength" : 2632,
         "uri" : "Cross0.bin"
      }
   ],
   "materials" : [
      {
         "name" : "Cross_1",
         "pbrMetallicRoughness" : {
            "baseColorFactor" : [ 1, 0, 0, 1 ],
            "metallicFactor" : 0
         }
      }
   ],
   "meshes" : [
      {
         "name" : "StaticMesh",
         "primitives" : [
            {
               "attributes" : {
                  "NORMAL" : 2,
                  "POSITION" : 1,
                  "TEXCOORD_0" : 3
               },
               "indices" : 0,
               "material" : 0,
               "mode" : 4
            }
         ]
      }
   ],
   "nodes" : [
      {
         "mesh" : 0,
         "name" : "StaticMesh"
      }
   ],
   "scene" : 0,
   "scenes" : [
      {
         "nodes" : [ 0 ]
      }
   ]
}
