{
   "accessors" : [
      {
         "bufferView" : 0,
         "byteOffset" : 0,
         "componentType" : 5123,
         "count" : 546,
         "max" : [ 191 ],
         "min" : [ 0 ],
         "type" : "SCALAR"
      },
      {
         "bufferView" : 1,
         "byteOffset" : 0,
         "componentType" : 5126,
         "count" : 192,
         "max" : [ -1.53600001335144, 4.666778087615967, 5.892653942108154 ],
         "min" : [ -4.381494998931885, 0.02631902694702148, 2.505575895309448 ],
         "type" : "VEC3"
      },
      {
         "bufferView" : 2,
         "byteOffset" : 0,
         "componentType" : 5126,
         "count" : 192,
         "type" : "VEC3"
      },
      {
         "bufferView" : 3,
         "byteOffset" : 0,
         "componentType" : 5126,
         "count" : 192,
         "max" : [ 1, 0.9998999834060669 ],
         "min" : [ -0, 9.999999747378752e-005 ],
         "type" : "VEC2"
      },
      {
         "bufferView" : 4,
         "byteOffset" : 0,
         "componentType" : 5123,
         "count" : 48,
         "max" : [ 17 ],
         "min" : [ 0 ],
         "type" : "SCALAR"
      },
      {
         "bufferView" : 5,
         "byteOffset" : 0,
         "componentType" : 5126,
         "count" : 18,
         "max" : [ -1.5399090051651, 0.02632403373718262, 5.892653942108154 ],
         "min" : [ -4.377597808837891, 0.02631902694702148, 2.692509889602661 ],
         "type" : "VEC3"
      },
      {
         "bufferView" : 6,
         "byteOffset" : 0,
         "componentType" : 5126,
         "count" : 18,
         "type" : "VEC3"
      },
      {
         "bufferView" : 7,
         "byteOffset" : 0,
         "componentType" : 5126,
         "count" : 18,
         "max" : [ 0.9480000138282776, 0.997499942779541 ],
         "min" : [ 0.06129999831318855, -0.002499999944120646 ],
         "type" : "VEC2"
      },
      {
         "bufferView" : 8,
         "byteOffset" : 0,
         "componentType" : 5123,
         "count" : 546,
         "max" : [ 191 ],
         "min" : [ 0 ],
         "type" : "SCALAR"
      },
      {
         "bufferView" : 9,
         "byteOffset" : 0,
         "componentType" : 5126,
         "count" : 192,
         "max" : [ -1.397212982177734, 4.666779041290283, -2.541939973831177 ],
         "min" : [ -4.242705821990967, 0.02631807327270508, -5.929021835327148 ],
         "type" : "VEC3"
      },
      {
         "bufferView" : 10,
         "byteOffset" : 0,
         "componentType" : 5126,
         "count" : 192,
         "type" : "VEC3"
      },
      {
         "bufferView" : 11,
         "byteOffset" : 0,
         "componentType" : 5126,
         "count" : 192,
         "max" : [ 1, 0.9994000196456909 ],
         "min" : [ -0, 0.0006000000284984708 ],
         "type" : "VEC2"
      },
      {
         "bufferView" : 12,
         "byteOffset" : 0,
         "componentType" : 5123,
         "count" : 48,
         "max" : [ 17 ],
         "min" : [ 0 ],
         "type" : "SCALAR"
      },
      {
         "bufferView" : 13,
         "byteOffset" : 0,
         "componentType" : 5126,
         "count" : 18,
         "max" : [ -1.401098966598511, 0.0263218879699707, -2.728872060775757 ],
         "min" : [ -4.23878288269043, 0.02631807327270508, -5.929021835327148 ],
         "type" : "VEC3"
      },
      {
         "bufferView" : 14,
         "byteOffset" : 0,
         "componentType" : 5126,
         "count" : 18,
         "type" : "VEC3"
      },
      {
         "bufferView" : 15,
         "byteOffset" : 0,
         "componentType" : 5126,
         "count" : 18,
         "max" : [ 0.9362999796867371, 0.997499942779541 ],
         "min" : [ 0.04960000142455101, -0.002499999944120646 ],
         "type" : "VEC2"
      },
      {
         "bufferView" : 16,
         "byteOffset" : 0,
         "componentType" : 5123,
         "count" : 240,
         "max" : [ 87 ],
         "min" : [ 0 ],
         "type" : "SCALAR"
      },
      {
         "bufferView" : 17,
         "byteOffset" : 0,
         "componentType" : 5126,
         "count" : 88,
         "max" : [ -2.984632968902588, 7.793828964233398, 1.378631949424744 ],
         "min" : [ -4.47658109664917, 5.055078983306885, 0.3068340122699738 ],
         "type" : "VEC3"
      },
      {
         "bufferView" : 18,
         "byteOffset" : 0,
         "componentType" : 5126,
         "count" : 88,
         "type" : "VEC3"
      },
      {
         "bufferView" : 19,
         "byteOffset" : 0,
         "componentType" : 5126,
         "count" : 88,
         "max" : [ 1.001399993896484, 0.8873999714851379 ],
         "min" : [ 0.00139999995008111, 0.1517000049352646 ],
         "type" : "VEC2"
      },
      {
         "bufferView" : 20,
         "byteOffset" : 0,
         "componentType" : 5123,
         "count" : 240,
         "max" : [ 87 ],
         "min" : [ 0 ],
         "type" : "SCALAR"
      },
      {
         "bufferView" : 21,
         "byteOffset" : 0,
         "componentType" : 5126,
         "count" : 88,
         "max" : [ -2.95775294303894, 7.793828964233398, -0.3325769901275635 ],
         "min" : [ -4.449697017669678, 5.055078983306885, -1.404374957084656 ],
         "type" : "VEC3"
      },
      {
         "bufferView" : 22,
         "byteOffset" : 0,
         "componentType" : 5126,
         "count" : 88,
         "type" : "VEC3"
      },
      {
         "bufferView" : 23,
         "byteOffset" : 0,
         "componentType" : 5126,
         "count" : 88,
         "max" : [ 1.001399993896484, 0.8717000484466553 ],
         "min" : [ 0.00139999995008111, 0.1360999941825867 ],
         "type" : "VEC2"
      },
      {
         "bufferView" : 24,
         "byteOffset" : 0,
         "componentType" : 5123,
         "count" : 132,
         "max" : [ 50 ],
         "min" : [ 0 ],
         "type" : "SCALAR"
      },
      {
         "bufferView" : 25,
         "byteOffset" : 0,
         "componentType" : 5126,
         "count" : 51,
         "max" : [ -1.93913197517395, 6.29486083984375, 1.105013966560364 ],
         "min" : [ -3.601500034332275, 4.826076984405518, 0.6472640037536621 ],
         "type" : "VEC3"
      },
      {
         "bufferView" : 26,
         "byteOffset" : 0,
         "componentType" : 5126,
         "count" : 51,
         "type" : "VEC3"
      },
      {
         "bufferView" : 27,
         "byteOffset" : 0,
         "componentType" : 5126,
         "count" : 51,
         "max" : [ 1.002799987792969, 0.8356000185012817 ],
         "min" : [ 0.00279999990016222, 0.09610000252723694 ],
         "type" : "VEC2"
      },
      {
         "bufferView" : 28,
         "byteOffset" : 0,
         "componentType" : 5123,
         "count" : 132,
         "max" : [ 50 ],
         "min" : [ 0 ],
         "type" : "SCALAR"
      },
      {
         "bufferView" : 29,
         "byteOffset" : 0,
         "componentType" : 5126,
         "count" : 51,
         "max" : [ -1.91182005405426, 6.29486083984375, -0.6336320042610169 ],
         "min" : [ -3.57418704032898, 4.826076984405518, -1.091382026672363 ],
         "type" : "VEC3"
      },
      {
         "bufferView" : 30,
         "byteOffset" : 0,
         "componentType" : 5126,
         "count" : 51,
         "type" : "VEC3"
      },
      {
         "bufferView" : 31,
         "byteOffset" : 0,
         "componentType" : 5126,
         "count" : 51,
         "max" : [ 1.002799987792969, 0.8394999504089356 ],
         "min" : [ 0.00279999990016222, 0.1000000014901161 ],
         "type" : "VEC2"
      },
      {
         "bufferView" : 32,
         "byteOffset" : 0,
         "componentType" : 5123,
         "count" : 84,
         "max" : [ 39 ],
         "min" : [ 0 ],
         "type" : "SCALAR"
      },
      {
         "bufferView" : 33,
         "byteOffset" : 0,
         "componentType" : 5126,
         "count" : 40,
         "max" : [ 0.8203799724578857, 2.769305944442749, 3.775969982147217 ],
         "min" : [ -1.573951005935669, 2.336287021636963, 2.053936004638672 ],
         "type" : "VEC3"
      },
      {
         "bufferView" : 34,
         "byteOffset" : 0,
         "componentType" : 5126,
         "count" : 40,
         "type" : "VEC3"
      },
      {
         "bufferView" : 35,
         "byteOffset" : 0,
         "componentType" : 5126,
         "count" : 40,
         "max" : [ 1.002799987792969, 0.8366000056266785 ],
         "min" : [ 0.00279999990016222, 0.1967000067234039 ],
         "type" : "VEC2"
      },
      {
         "bufferView" : 36,
         "byteOffset" : 0,
         "componentType" : 5123,
         "count" : 84,
         "max" : [ 39 ],
         "min" : [ 0 ],
         "type" : "SCALAR"
      },
      {
         "bufferView" : 37,
         "byteOffset" : 0,
         "componentType" : 5126,
         "count" : 40,
         "max" : [ 0.912011981010437, 0.4330248832702637, -2.05702805519104 ],
         "min" : [ -1.482319951057434, 2.86102294921875e-006, -3.779067993164063 ],
         "type" : "VEC3"
      },
      {
         "bufferView" : 38,
         "byteOffset" : 0,
         "componentType" : 5126,
         "count" : 40,
         "type" : "VEC3"
      },
      {
         "bufferView" : 39,
         "byteOffset" : 0,
         "componentType" : 5126,
         "count" : 40,
         "max" : [ 0.9989000558853149, 0.7857999801635742 ],
         "min" : [ -0.001099999994039536, 0.1458999961614609 ],
         "type" : "VEC2"
      },
      {
         "bufferView" : 40,
         "byteOffset" : 0,
         "componentType" : 5123,
         "count" : 84,
         "max" : [ 39 ],
         "min" : [ 0 ],
         "type" : "SCALAR"
      },
      {
         "bufferView" : 41,
         "byteOffset" : 0,
         "componentType" : 5126,
         "count" : 40,
         "max" : [ 0.8203799724578857, 1.520219802856445, 3.775969982147217 ],
         "min" : [ -1.573951005935669, 1.087202072143555, 2.053936004638672 ],
         "type" : "VEC3"
      },
      {
         "bufferView" : 42,
         "byteOffset" : 0,
         "componentType" : 5126,
         "count" : 40,
         "type" : "VEC3"
      },
      {
         "bufferView" : 43,
         "byteOffset" : 0,
         "componentType" : 5126,
         "count" : 40,
         "max" : [ 1.002799987792969, 0.8053000569343567 ],
         "min" : [ 0.00279999990016222, 0.1655000001192093 ],
         "type" : "VEC2"
      },
      {
         "bufferView" : 44,
         "byteOffset" : 0,
         "componentType" : 5123,
         "count" : 84,
         "max" : [ 39 ],
         "min" : [ 0 ],
         "type" : "SCALAR"
      },
      {
         "bufferView" : 45,
         "byteOffset" : 0,
         "componentType" : 5126,
         "count" : 40,
         "max" : [ 0.8203799724578857, 0.4330220222473145, 3.775969982147217 ],
         "min" : [ -1.573951005935669, 0, 2.053936004638672 ],
         "type" : "VEC3"
      },
      {
         "bufferView" : 46,
         "byteOffset" : 0,
         "componentType" : 5126,
         "count" : 40,
         "type" : "VEC3"
      },
      {
         "bufferView" : 47,
         "byteOffset" : 0,
         "componentType" : 5126,
         "count" : 40,
         "max" : [ 0.9989000558853149, 0.8170999884605408 ],
         "min" : [ -0.001099999994039536, 0.1772000044584274 ],
         "type" : "VEC2"
      },
      {
         "bufferView" : 48,
         "byteOffset" : 0,
         "componentType" : 5123,
         "count" : 84,
         "max" : [ 35 ],
         "min" : [ 0 ],
         "type" : "SCALAR"
      },
      {
         "bufferView" : 49,
         "byteOffset" : 0,
         "componentType" : 5126,
         "count" : 36,
         "max" : [ 4.449711799621582, 2.769305944442749, 4.374889850616455 ],
         "min" : [ 3.348927021026611, 2.336287975311279, 2.690047025680542 ],
         "type" : "VEC3"
      },
      {
         "bufferView" : 50,
         "byteOffset" : 0,
         "componentType" : 5126,
         "count" : 36,
         "type" : "VEC3"
      },
      {
         "bufferView" : 51,
         "byteOffset" : 0,
         "componentType" : 5126,
         "count" : 36,
         "max" : [ 0.8334999680519104, 0.9970999956130981 ],
         "min" : [ 0.1409000009298325, -0.002899999963119626 ],
         "type" : "VEC2"
      },
      {
         "bufferView" : 52,
         "byteOffset" : 0,
         "componentType" : 5123,
         "count" : 84,
         "max" : [ 35 ],
         "min" : [ 0 ],
         "type" : "SCALAR"
      },
      {
         "bufferView" : 53,
         "byteOffset" : 0,
         "componentType" : 5126,
         "count" : 36,
         "max" : [ 4.449711799621582, 1.582736968994141, 4.374887943267822 ],
         "min" : [ 3.348927021026611, 1.149720907211304, 2.690046072006226 ],
         "type" : "VEC3"
      },
      {
         "bufferView" : 54,
         "byteOffset" : 0,
         "componentType" : 5126,
         "count" : 36,
         "type" : "VEC3"
      },
      {
         "bufferView" : 55,
         "byteOffset" : 0,
         "componentType" : 5126,
         "count" : 36,
         "max" : [ 0.8413000106811523, 0.9970999956130981 ],
         "min" : [ 0.1486999988555908, -0.002899999963119626 ],
         "type" : "VEC2"
      },
      {
         "bufferView" : 56,
         "byteOffset" : 0,
         "componentType" : 5123,
         "count" : 84,
         "max" : [ 35 ],
         "min" : [ 0 ],
         "type" : "SCALAR"
      },
      {
         "bufferView" : 57,
         "byteOffset" : 0,
         "componentType" : 5126,
         "count" : 36,
         "max" : [ 4.538111209869385, 2.769307851791382, -2.559662103652954 ],
         "min" : [ 3.458128929138184, 2.336288928985596, -4.261377811431885 ],
         "type" : "VEC3"
      },
      {
         "bufferView" : 58,
         "byteOffset" : 0,
         "componentType" : 5126,
         "count" : 36,
         "type" : "VEC3"
      },
      {
         "bufferView" : 59,
         "byteOffset" : 0,
         "componentType" : 5126,
         "count" : 36,
         "max" : [ 0.8441000580787659, 1.004899978637695 ],
         "min" : [ 0.1536999940872192, 0.004900000058114529 ],
         "type" : "VEC2"
      },
      {
         "bufferView" : 60,
         "byteOffset" : 0,
         "componentType" : 5123,
         "count" : 84,
         "max" : [ 35 ],
         "min" : [ 0 ],
         "type" : "SCALAR"
      },
      {
         "bufferView" : 61,
         "byteOffset" : 0,
         "componentType" : 5126,
         "count" : 36,
         "max" : [ 4.538111209869385, 1.582740783691406, -2.559662103652954 ],
         "min" : [ 3.458128929138184, 1.149724006652832, -4.261380195617676 ],
         "type" : "VEC3"
      },
      {
         "bufferView" : 62,
         "byteOffset" : 0,
         "componentType" : 5126,
         "count" : 36,
         "type" : "VEC3"
      },
      {
         "bufferView" : 63,
         "byteOffset" : 0,
         "componentType" : 5126,
         "count" : 36,
         "max" : [ 0.8441000580787659, 0.9970999956130981 ],
         "min" : [ 0.1536999940872192, -0.002899999963119626 ],
         "type" : "VEC2"
      },
      {
         "bufferView" : 64,
         "byteOffset" : 0,
         "componentType" : 5123,
         "count" : 84,
         "max" : [ 39 ],
         "min" : [ 0 ],
         "type" : "SCALAR"
      },
      {
         "bufferView" : 65,
         "byteOffset" : 0,
         "componentType" : 5126,
         "count" : 40,
         "max" : [ 0.912011981010437, 2.769307851791382, -2.05702805519104 ],
         "min" : [ -1.482319951057434, 2.336287975311279, -3.779067993164063 ],
         "type" : "VEC3"
      },
      {
         "bufferView" : 66,
         "byteOffset" : 0,
         "componentType" : 5126,
         "count" : 40,
         "type" : "VEC3"
      },
      {
         "bufferView" : 67,
         "byteOffset" : 0,
         "componentType" : 5126,
         "count" : 40,
         "max" : [ 0.9950000047683716, 0.7505999803543091 ],
         "min" : [ -0.004999999888241291, 0.1107999980449677 ],
         "type" : "VEC2"
      },
      {
         "bufferView" : 68,
         "byteOffset" : 0,
         "componentType" : 5123,
         "count" : 84,
         "max" : [ 39 ],
         "min" : [ 0 ],
         "type" : "SCALAR"
      },
      {
         "bufferView" : 69,
         "byteOffset" : 0,
         "componentType" : 5126,
         "count" : 40,
         "max" : [ 0.912011981010437, 1.520222902297974, -2.05702805519104 ],
         "min" : [ -1.482319951057434, 1.087202072143555, -3.779067993164063 ],
         "type" : "VEC3"
      },
      {
         "bufferView" : 70,
         "byteOffset" : 0,
         "componentType" : 5126,
         "count" : 40,
         "type" : "VEC3"
      },
      {
         "bufferView" : 71,
         "byteOffset" : 0,
         "componentType" : 5126,
         "count" : 40,
         "max" : [ 1.002799987792969, 0.8014000058174133 ],
         "min" : [ 0.00279999990016222, 0.1615999937057495 ],
         "type" : "VEC2"
      },
      {
         "bufferView" : 72,
         "byteOffset" : 0,
         "componentType" : 5123,
         "count" : 18,
         "max" : [ 7 ],
         "min" : [ 0 ],
         "type" : "SCALAR"
      },
      {
         "bufferView" : 73,
         "byteOffset" : 0,
         "componentType" : 5126,
         "count" : 8,
         "max" : [ 5.157698154449463, 0.1602108478546143, 1.781396985054016 ],
         "min" : [ 2.610249996185303, 0.02619194984436035, -1.492939949035645 ],
         "type" : "VEC3"
      },
      {
         "bufferView" : 74,
         "byteOffset" : 0,
         "componentType" : 5126,
         "count" : 8,
         "type" : "VEC3"
      },
      {
         "bufferView" : 75,
         "byteOffset" : 0,
         "componentType" : 5126,
         "count" : 8,
         "max" : [ 0.8774999976158142, 0.9966999888420105 ],
         "min" : [ 0.09950000047683716, -0.003299999982118607 ],
         "type" : "VEC2"
      },
      {
         "bufferView" : 76,
         "byteOffset" : 0,
         "componentType" : 5123,
         "count" : 1674,
         "max" : [ 562 ],
         "min" : [ 0 ],
         "type" : "SCALAR"
      },
      {
         "bufferView" : 77,
         "byteOffset" : 0,
         "componentType" : 5126,
         "count" : 563,
         "max" : [ 5.174063205718994, 6.161358833312988, 2.904773950576782 ],
         "min" : [ -5.174063205718994, 0.02619194984436035, -2.791821956634522 ],
         "type" : "VEC3"
      },
      {
         "bufferView" : 78,
         "byteOffset" : 0,
         "componentType" : 5126,
         "count" : 563,
         "type" : "VEC3"
      },
      {
         "bufferView" : 79,
         "byteOffset" : 0,
         "componentType" : 5126,
         "count" : 563,
         "max" : [ 1.002799987792969, 0.9103999733924866 ],
         "min" : [ 0.00279999990016222, 0.1125999987125397 ],
         "type" : "VEC2"
      },
      {
         "bufferView" : 80,
         "byteOffset" : 0,
         "componentType" : 5123,
         "count" : 90,
         "max" : [ 31 ],
         "min" : [ 0 ],
         "type" : "SCALAR"
      },
      {
         "bufferView" : 81,
         "byteOffset" : 0,
         "componentType" : 5126,
         "count" : 32,
         "max" : [ 5.174063205718994, 0.1602108478546143, 2.904771089553833 ],
         "min" : [ -5.174063205718994, 0.02619194984436035, -2.791821956634522 ],
         "type" : "VEC3"
      },
      {
         "bufferView" : 82,
         "byteOffset" : 0,
         "componentType" : 5126,
         "count" : 32,
         "type" : "VEC3"
      },
      {
         "bufferView" : 83,
         "byteOffset" : 0,
         "componentType" : 5126,
         "count" : 32,
         "max" : [ 0.9968000054359436, 0.7785999774932861 ],
         "min" : [ -0.003199999919161201, 0.2281000018119812 ],
         "type" : "VEC2"
      },
      {
         "bufferView" : 84,
         "byteOffset" : 0,
         "componentType" : 5123,
         "count" : 546,
         "max" : [ 191 ],
         "min" : [ 0 ],
         "type" : "SCALAR"
      },
      {
         "bufferView" : 85,
         "byteOffset" : 0,
         "componentType" : 5126,
         "count" : 192,
         "max" : [ 3.402669906616211, 4.666778087615967, 5.929021835327148 ],
         "min" : [ 0.5571759939193726, 0.02631902694702148, 2.541939973831177 ],
         "type" : "VEC3"
      },
      {
         "bufferView" : 86,
         "byteOffset" : 0,
         "componentType" : 5126,
         "count" : 192,
         "type" : "VEC3"
      },
      {
         "bufferView" : 87,
         "byteOffset" : 0,
         "componentType" : 5126,
         "count" : 192,
         "max" : [ 1.002799987792969, 0.9998999834060669 ],
         "min" : [ 0.00279999990016222, 0 ],
         "type" : "VEC2"
      },
      {
         "bufferView" : 88,
         "byteOffset" : 0,
         "componentType" : 5123,
         "count" : 48,
         "max" : [ 17 ],
         "min" : [ 0 ],
         "type" : "SCALAR"
      },
      {
         "bufferView" : 89,
         "byteOffset" : 0,
         "componentType" : 5126,
         "count" : 18,
         "max" : [ 3.398756980895996, 0.02632403373718262, 5.929021835327148 ],
         "min" : [ 0.5610679984092712, 0.02631902694702148, 2.728878974914551 ],
         "type" : "VEC3"
      },
      {
         "bufferView" : 90,
         "byteOffset" : 0,
         "componentType" : 5126,
         "count" : 18,
         "type" : "VEC3"
      },
      {
         "bufferView" : 91,
         "byteOffset" : 0,
         "componentType" : 5126,
         "count" : 18,
         "max" : [ 0.9417000412940979, 1.001799941062927 ],
         "min" : [ 0.05499999970197678, 0.001799999969080091 ],
         "type" : "VEC2"
      },
      {
         "bufferView" : 92,
         "byteOffset" : 0,
         "componentType" : 5123,
         "count" : 546,
         "max" : [ 191 ],
         "min" : [ 0 ],
         "type" : "SCALAR"
      },
      {
         "bufferView" : 93,
         "byteOffset" : 0,
         "componentType" : 5126,
         "count" : 192,
         "max" : [ 3.540853023529053, 4.666779041290283, -2.464365005493164 ],
         "min" : [ 0.6953589916229248, 0.02631807327270508, -5.851448059082031 ],
         "type" : "VEC3"
      },
      {
         "bufferView" : 94,
         "byteOffset" : 0,
         "componentType" : 5126,
         "count" : 192,
         "type" : "VEC3"
      },
      {
         "bufferView" : 95,
         "byteOffset" : 0,
         "componentType" : 5126,
         "count" : 192,
         "max" : [ 1, 0.9994000196456909 ],
         "min" : [ -0, 0.0006000000284984708 ],
         "type" : "VEC2"
      },
      {
         "bufferView" : 96,
         "byteOffset" : 0,
         "componentType" : 5123,
         "count" : 48,
         "max" : [ 17 ],
         "min" : [ 0 ],
         "type" : "SCALAR"
      },
      {
         "bufferView" : 97,
         "byteOffset" : 0,
         "componentType" : 5126,
         "count" : 18,
         "max" : [ 3.536963939666748, 0.0263218879699707, -2.651298999786377 ],
         "min" : [ 0.6992790102958679, 0.02631807327270508, -5.851448059082031 ],
         "type" : "VEC3"
      },
      {
         "bufferView" : 98,
         "byteOffset" : 0,
         "componentType" : 5126,
         "count" : 18,
         "type" : "VEC3"
      },
      {
         "bufferView" : 99,
         "byteOffset" : 0,
         "componentType" : 5126,
         "count" : 18,
         "max" : [ 0.9401999711990356, 1.001399993896484 ],
         "min" : [ 0.05350000038743019, 0.00139999995008111 ],
         "type" : "VEC2"
      },
      {
         "bufferView" : 100,
         "byteOffset" : 0,
         "componentType" : 5123,
         "count" : 132,
         "max" : [ 49 ],
         "min" : [ 0 ],
         "type" : "SCALAR"
      },
      {
         "bufferView" : 101,
         "byteOffset" : 0,
         "componentType" : 5126,
         "count" : 50,
         "max" : [ 4.010310173034668, 6.387099742889404, 1.068004965782166 ],
         "min" : [ 1.892384052276611, 4.826076984405518, 0.60309898853302 ],
         "type" : "VEC3"
      },
      {
         "bufferView" : 102,
         "byteOffset" : 0,
         "componentType" : 5126,
         "count" : 50,
         "type" : "VEC3"
      },
      {
         "bufferView" : 103,
         "byteOffset" : 0,
         "componentType" : 5126,
         "count" : 50,
         "max" : [ 0.9989000558853149, 0.9578999876976013 ],
         "min" : [ -0.001099999994039536, 0.02070000022649765 ],
         "type" : "VEC2"
      },
      {
         "bufferView" : 104,
         "byteOffset" : 0,
         "componentType" : 5123,
         "count" : 132,
         "max" : [ 49 ],
         "min" : [ 0 ],
         "type" : "SCALAR"
      },
      {
         "bufferView" : 105,
         "byteOffset" : 0,
         "componentType" : 5126,
         "count" : 50,
         "max" : [ 4.032762050628662, 6.387099742889404, -0.3609299957752228 ],
         "min" : [ 1.914837002754211, 4.826076984405518, -0.8258379697799683 ],
         "type" : "VEC3"
      },
      {
         "bufferView" : 106,
         "byteOffset" : 0,
         "componentType" : 5126,
         "count" : 50,
         "type" : "VEC3"
      },
      {
         "bufferView" : 107,
         "byteOffset" : 0,
         "componentType" : 5126,
         "count" : 50,
         "max" : [ 0.9989000558853149, 0.9657999873161316 ],
         "min" : [ -0.001099999994039536, 0.02850000001490116 ],
         "type" : "VEC2"
      }
   ],
   "asset" : {
      "extras" : {
         "date" : "Tue Jan 03 08:39:13 2023",
         "website" : "http://www.unwrap3d.com"
      },
      "generator" : "Ultimate Unwrap3D Pro (x64) v3.50.61",
      "version" : "2.0"
   },
   "bufferViews" : [
      {
         "buffer" : 0,
         "byteLength" : 1092,
         "byteOffset" : 0
      },
      {
         "buffer" : 0,
         "byteLength" : 2304,
         "byteOffset" : 1092,
         "byteStride" : 12
      },
      {
         "buffer" : 0,
         "byteLength" : 2304,
         "byteOffset" : 3396,
         "byteStride" : 12
      },
      {
         "buffer" : 0,
         "byteLength" : 1536,
         "byteOffset" : 5700,
         "byteStride" : 8
      },
      {
         "buffer" : 0,
         "byteLength" : 96,
         "byteOffset" : 7236
      },
      {
         "buffer" : 0,
         "byteLength" : 216,
         "byteOffset" : 7332,
         "byteStride" : 12
      },
      {
         "buffer" : 0,
         "byteLength" : 216,
         "byteOffset" : 7548,
         "byteStride" : 12
      },
      {
         "buffer" : 0,
         "byteLength" : 144,
         "byteOffset" : 7764,
         "byteStride" : 8
      },
      {
         "buffer" : 0,
         "byteLength" : 1092,
         "byteOffset" : 7908
      },
      {
         "buffer" : 0,
         "byteLength" : 2304,
         "byteOffset" : 9000,
         "byteStride" : 12
      },
      {
         "buffer" : 0,
         "byteLength" : 2304,
         "byteOffset" : 11304,
         "byteStride" : 12
      },
      {
         "buffer" : 0,
         "byteLength" : 1536,
         "byteOffset" : 13608,
         "byteStride" : 8
      },
      {
         "buffer" : 0,
         "byteLength" : 96,
         "byteOffset" : 15144
      },
      {
         "buffer" : 0,
         "byteLength" : 216,
         "byteOffset" : 15240,
         "byteStride" : 12
      },
      {
         "buffer" : 0,
         "byteLength" : 216,
         "byteOffset" : 15456,
         "byteStride" : 12
      },
      {
         "buffer" : 0,
         "byteLength" : 144,
         "byteOffset" : 15672,
         "byteStride" : 8
      },
      {
         "buffer" : 0,
         "byteLength" : 480,
         "byteOffset" : 15816
      },
      {
         "buffer" : 0,
         "byteLength" : 1056,
         "byteOffset" : 16296,
         "byteStride" : 12
      },
      {
         "buffer" : 0,
         "byteLength" : 1056,
         "byteOffset" : 17352,
         "byteStride" : 12
      },
      {
         "buffer" : 0,
         "byteLength" : 704,
         "byteOffset" : 18408,
         "byteStride" : 8
      },
      {
         "buffer" : 0,
         "byteLength" : 480,
         "byteOffset" : 19112
      },
      {
         "buffer" : 0,
         "byteLength" : 1056,
         "byteOffset" : 19592,
         "byteStride" : 12
      },
      {
         "buffer" : 0,
         "byteLength" : 1056,
         "byteOffset" : 20648,
         "byteStride" : 12
      },
      {
         "buffer" : 0,
         "byteLength" : 704,
         "byteOffset" : 21704,
         "byteStride" : 8
      },
      {
         "buffer" : 0,
         "byteLength" : 264,
         "byteOffset" : 22408
      },
      {
         "buffer" : 0,
         "byteLength" : 612,
         "byteOffset" : 22672,
         "byteStride" : 12
      },
      {
         "buffer" : 0,
         "byteLength" : 612,
         "byteOffset" : 23284,
         "byteStride" : 12
      },
      {
         "buffer" : 0,
         "byteLength" : 408,
         "byteOffset" : 23896,
         "byteStride" : 8
      },
      {
         "buffer" : 0,
         "byteLength" : 264,
         "byteOffset" : 24304
      },
      {
         "buffer" : 0,
         "byteLength" : 612,
         "byteOffset" : 24568,
         "byteStride" : 12
      },
      {
         "buffer" : 0,
         "byteLength" : 612,
         "byteOffset" : 25180,
         "byteStride" : 12
      },
      {
         "buffer" : 0,
         "byteLength" : 408,
         "byteOffset" : 25792,
         "byteStride" : 8
      },
      {
         "buffer" : 0,
         "byteLength" : 168,
         "byteOffset" : 26200
      },
      {
         "buffer" : 0,
         "byteLength" : 480,
         "byteOffset" : 26368,
         "byteStride" : 12
      },
      {
         "buffer" : 0,
         "byteLength" : 480,
         "byteOffset" : 26848,
         "byteStride" : 12
      },
      {
         "buffer" : 0,
         "byteLength" : 320,
         "byteOffset" : 27328,
         "byteStride" : 8
      },
      {
         "buffer" : 0,
         "byteLength" : 168,
         "byteOffset" : 27648
      },
      {
         "buffer" : 0,
         "byteLength" : 480,
         "byteOffset" : 27816,
         "byteStride" : 12
      },
      {
         "buffer" : 0,
         "byteLength" : 480,
         "byteOffset" : 28296,
         "byteStride" : 12
      },
      {
         "buffer" : 0,
         "byteLength" : 320,
         "byteOffset" : 28776,
         "byteStride" : 8
      },
      {
         "buffer" : 0,
         "byteLength" : 168,
         "byteOffset" : 29096
      },
      {
         "buffer" : 0,
         "byteLength" : 480,
         "byteOffset" : 29264,
         "byteStride" : 12
      },
      {
         "buffer" : 0,
         "byteLength" : 480,
         "byteOffset" : 29744,
         "byteStride" : 12
      },
      {
         "buffer" : 0,
         "byteLength" : 320,
         "byteOffset" : 30224,
         "byteStride" : 8
      },
      {
         "buffer" : 0,
         "byteLength" : 168,
         "byteOffset" : 30544
      },
      {
         "buffer" : 0,
         "byteLength" : 480,
         "byteOffset" : 30712,
         "byteStride" : 12
      },
      {
         "buffer" : 0,
         "byteLength" : 480,
         "byteOffset" : 31192,
         "byteStride" : 12
      },
      {
         "buffer" : 0,
         "byteLength" : 320,
         "byteOffset" : 31672,
         "byteStride" : 8
      },
      {
         "buffer" : 0,
         "byteLength" : 168,
         "byteOffset" : 31992
      },
      {
         "buffer" : 0,
         "byteLength" : 432,
         "byteOffset" : 32160,
         "byteStride" : 12
      },
      {
         "buffer" : 0,
         "byteLength" : 432,
         "byteOffset" : 32592,
         "byteStride" : 12
      },
      {
         "buffer" : 0,
         "byteLength" : 288,
         "byteOffset" : 33024,
         "byteStride" : 8
      },
      {
         "buffer" : 0,
         "byteLength" : 168,
         "byteOffset" : 33312
      },
      {
         "buffer" : 0,
         "byteLength" : 432,
         "byteOffset" : 33480,
         "byteStride" : 12
      },
      {
         "buffer" : 0,
         "byteLength" : 432,
         "byteOffset" : 33912,
         "byteStride" : 12
      },
      {
         "buffer" : 0,
         "byteLength" : 288,
         "byteOffset" : 34344,
         "byteStride" : 8
      },
      {
         "buffer" : 0,
         "byteLength" : 168,
         "byteOffset" : 34632
      },
      {
         "buffer" : 0,
         "byteLength" : 432,
         "byteOffset" : 34800,
         "byteStride" : 12
      },
      {
         "buffer" : 0,
         "byteLength" : 432,
         "byteOffset" : 35232,
         "byteStride" : 12
      },
      {
         "buffer" : 0,
         "byteLength" : 288,
         "byteOffset" : 35664,
         "byteStride" : 8
      },
      {
         "buffer" : 0,
         "byteLength" : 168,
         "byteOffset" : 35952
      },
      {
         "buffer" : 0,
         "byteLength" : 432,
         "byteOffset" : 36120,
         "byteStride" : 12
      },
      {
         "buffer" : 0,
         "byteLength" : 432,
         "byteOffset" : 36552,
         "byteStride" : 12
      },
      {
         "buffer" : 0,
         "byteLength" : 288,
         "byteOffset" : 36984,
         "byteStride" : 8
      },
      {
         "buffer" : 0,
         "byteLength" : 168,
         "byteOffset" : 37272
      },
      {
         "buffer" : 0,
         "byteLength" : 480,
         "byteOffset" : 37440,
         "byteStride" : 12
      },
      {
         "buffer" : 0,
         "byteLength" : 480,
         "byteOffset" : 37920,
         "byteStride" : 12
      },
      {
         "buffer" : 0,
         "byteLength" : 320,
         "byteOffset" : 38400,
         "byteStride" : 8
      },
      {
         "buffer" : 0,
         "byteLength" : 168,
         "byteOffset" : 38720
      },
      {
         "buffer" : 0,
         "byteLength" : 480,
         "byteOffset" : 38888,
         "byteStride" : 12
      },
      {
         "buffer" : 0,
         "byteLength" : 480,
         "byteOffset" : 39368,
         "byteStride" : 12
      },
      {
         "buffer" : 0,
         "byteLength" : 320,
         "byteOffset" : 39848,
         "byteStride" : 8
      },
      {
         "buffer" : 0,
         "byteLength" : 36,
         "byteOffset" : 40168
      },
      {
         "buffer" : 0,
         "byteLength" : 96,
         "byteOffset" : 40204,
         "byteStride" : 12
      },
      {
         "buffer" : 0,
         "byteLength" : 96,
         "byteOffset" : 40300,
         "byteStride" : 12
      },
      {
         "buffer" : 0,
         "byteLength" : 64,
         "byteOffset" : 40396,
         "byteStride" : 8
      },
      {
         "buffer" : 0,
         "byteLength" : 3348,
         "byteOffset" : 40460
      },
      {
         "buffer" : 0,
         "byteLength" : 6756,
         "byteOffset" : 43808,
         "byteStride" : 12
      },
      {
         "buffer" : 0,
         "byteLength" : 6756,
         "byteOffset" : 50564,
         "byteStride" : 12
      },
      {
         "buffer" : 0,
         "byteLength" : 4504,
         "byteOffset" : 57320,
         "byteStride" : 8
      },
      {
         "buffer" : 0,
         "byteLength" : 180,
         "byteOffset" : 61824
      },
      {
         "buffer" : 0,
         "byteLength" : 384,
         "byteOffset" : 62004,
         "byteStride" : 12
      },
      {
         "buffer" : 0,
         "byteLength" : 384,
         "byteOffset" : 62388,
         "byteStride" : 12
      },
      {
         "buffer" : 0,
         "byteLength" : 256,
         "byteOffset" : 62772,
         "byteStride" : 8
      },
      {
         "buffer" : 0,
         "byteLength" : 1092,
         "byteOffset" : 63028
      },
      {
         "buffer" : 0,
         "byteLength" : 2304,
         "byteOffset" : 64120,
         "byteStride" : 12
      },
      {
         "buffer" : 0,
         "byteLength" : 2304,
         "byteOffset" : 66424,
         "byteStride" : 12
      },
      {
         "buffer" : 0,
         "byteLength" : 1536,
         "byteOffset" : 68728,
         "byteStride" : 8
      },
      {
         "buffer" : 0,
         "byteLength" : 96,
         "byteOffset" : 70264
      },
      {
         "buffer" : 0,
         "byteLength" : 216,
         "byteOffset" : 70360,
         "byteStride" : 12
      },
      {
         "buffer" : 0,
         "byteLength" : 216,
         "byteOffset" : 70576,
         "byteStride" : 12
      },
      {
         "buffer" : 0,
         "byteLength" : 144,
         "byteOffset" : 70792,
         "byteStride" : 8
      },
      {
         "buffer" : 0,
         "byteLength" : 1092,
         "byteOffset" : 70936
      },
      {
         "buffer" : 0,
         "byteLength" : 2304,
         "byteOffset" : 72028,
         "byteStride" : 12
      },
      {
         "buffer" : 0,
         "byteLength" : 2304,
         "byteOffset" : 74332,
         "byteStride" : 12
      },
      {
         "buffer" : 0,
         "byteLength" : 1536,
         "byteOffset" : 76636,
         "byteStride" : 8
      },
      {
         "buffer" : 0,
         "byteLength" : 96,
         "byteOffset" : 78172
      },
      {
         "buffer" : 0,
         "byteLength" : 216,
         "byteOffset" : 78268,
         "byteStride" : 12
      },
      {
         "buffer" : 0,
         "byteLength" : 216,
         "byteOffset" : 78484,
         "byteStride" : 12
      },
      {
         "buffer" : 0,
         "byteLength" : 144,
         "byteOffset" : 78700,
         "byteStride" : 8
      },
      {
         "buffer" : 0,
         "byteLength" : 264,
         "byteOffset" : 78844
      },
      {
         "buffer" : 0,
         "byteLength" : 600,
         "byteOffset" : 79108,
         "byteStride" : 12
      },
      {
         "buffer" : 0,
         "byteLength" : 600,
         "byteOffset" : 79708,
         "byteStride" : 12
      },
      {
         "buffer" : 0,
         "byteLength" : 400,
         "byteOffset" : 80308,
         "byteStride" : 8
      },
      {
         "buffer" : 0,
         "byteLength" : 264,
         "byteOffset" : 80708
      },
      {
         "buffer" : 0,
         "byteLength" : 600,
         "byteOffset" : 80972,
         "byteStride" : 12
      },
      {
         "buffer" : 0,
         "byteLength" : 600,
         "byteOffset" : 81572,
         "byteStride" : 12
      },
      {
         "buffer" : 0,
         "byteLength" : 400,
         "byteOffset" : 82172,
         "byteStride" : 8
      }
   ],
   "buffers" : [
      {
         "byteLength" : 82572,
         "uri" : "factory0.bin"
      }
   ],
   "materials" : [
      {
         "name" : "matPBRPlasticScuffedYellow0",
         "pbrMetallicRoughness" : {
            "baseColorFactor" : [ 1, 1, 1, 1 ],
            "metallicFactor" : 0
         }
      },
      {
         "name" : "floor1",
         "pbrMetallicRoughness" : {
            "baseColorFactor" : [ 1, 1, 1, 1 ],
            "metallicFactor" : 0
         }
      },
      {
         "name" : "matPBRPlasticScuffedYellow2",
         "pbrMetallicRoughness" : {
            "baseColorFactor" : [ 1, 1, 1, 1 ],
            "metallicFactor" : 0
         }
      },
      {
         "name" : "floor3",
         "pbrMetallicRoughness" : {
            "baseColorFactor" : [ 1, 1, 1, 1 ],
            "metallicFactor" : 0
         }
      },
      {
         "name" : "matPBRSteelWorn4",
         "pbrMetallicRoughness" : {
            "baseColorFactor" : [ 1, 1, 1, 1 ],
            "metallicFactor" : 0
         }
      },
      {
         "name" : "matPBRSteelWorn5",
         "pbrMetallicRoughness" : {
            "baseColorFactor" : [ 1, 1, 1, 1 ],
            "metallicFactor" : 0
         }
      },
      {
         "name" : "matPBRPlasticScuffedYellow6",
         "pbrMetallicRoughness" : {
            "baseColorFactor" : [ 1, 1, 1, 1 ],
            "metallicFactor" : 0
         }
      },
      {
         "name" : "matPBRPlasticScuffedYellow7",
         "pbrMetallicRoughness" : {
            "baseColorFactor" : [ 1, 1, 1, 1 ],
            "metallicFactor" : 0
         }
      },
      {
         "name" : "matPBRSteelWorn8",
         "pbrMetallicRoughness" : {
            "baseColorFactor" : [ 1, 1, 1, 1 ],
            "metallicFactor" : 0
         }
      },
      {
         "name" : "matPBRSteelWorn9",
         "pbrMetallicRoughness" : {
            "baseColorFactor" : [ 1, 1, 1, 1 ],
            "metallicFactor" : 0
         }
      },
      {
         "name" : "matPBRSteelWorn10",
         "pbrMetallicRoughness" : {
            "baseColorFactor" : [ 1, 1, 1, 1 ],
            "metallicFactor" : 0
         }
      },
      {
         "name" : "matPBRSteelWorn11",
         "pbrMetallicRoughness" : {
            "baseColorFactor" : [ 1, 1, 1, 1 ],
            "metallicFactor" : 0
         }
      },
      {
         "name" : "matPBRSteelWorn12",
         "pbrMetallicRoughness" : {
            "baseColorFactor" : [ 1, 1, 1, 1 ],
            "metallicFactor" : 0
         }
      },
      {
         "name" : "matPBRSteelWorn13",
         "pbrMetallicRoughness" : {
            "baseColorFactor" : [ 1, 1, 1, 1 ],
            "metallicFactor" : 0
         }
      },
      {
         "name" : "matPBRSteelWorn14",
         "pbrMetallicRoughness" : {
            "baseColorFactor" : [ 1, 1, 1, 1 ],
            "metallicFactor" : 0
         }
      },
      {
         "name" : "matPBRSteelWorn15",
         "pbrMetallicRoughness" : {
            "baseColorFactor" : [ 1, 1, 1, 1 ],
            "metallicFactor" : 0
         }
      },
      {
         "name" : "matPBRSteelWorn16",
         "pbrMetallicRoughness" : {
            "baseColorFactor" : [ 1, 1, 1, 1 ],
            "metallicFactor" : 0
         }
      },
      {
         "name" : "matPBRSteelWorn17",
         "pbrMetallicRoughness" : {
            "baseColorFactor" : [ 1, 1, 1, 1 ],
            "metallicFactor" : 0
         }
      },
      {
         "name" : "floor18",
         "pbrMetallicRoughness" : {
            "baseColorFactor" : [ 1, 1, 1, 1 ],
            "metallicFactor" : 0
         }
      },
      {
         "name" : "concrete_smooth",
         "pbrMetallicRoughness" : {
            "baseColorFactor" : [ 1, 1, 1, 1 ],
            "metallicFactor" : 0
         }
      },
      {
         "name" : "floor19",
         "pbrMetallicRoughness" : {
            "baseColorFactor" : [ 1, 1, 1, 1 ],
            "metallicFactor" : 0
         }
      },
      {
         "name" : "matPBRPlasticScuffedYellow20",
         "pbrMetallicRoughness" : {
            "baseColorFactor" : [ 1, 1, 1, 1 ],
            "metallicFactor" : 0
         }
      },
      {
         "name" : "floor21",
         "pbrMetallicRoughness" : {
            "baseColorFactor" : [ 1, 1, 1, 1 ],
            "metallicFactor" : 0
         }
      },
      {
         "name" : "matPBRPlasticScuffedYellow",
         "pbrMetallicRoughness" : {
            "baseColorFactor" : [ 1, 1, 1, 1 ],
            "metallicFactor" : 0
         }
      },
      {
         "name" : "floor",
         "pbrMetallicRoughness" : {
            "baseColorFactor" : [ 1, 1, 1, 1 ],
            "metallicFactor" : 0
         }
      },
      {
         "name" : "matPBRSteelWorn22",
         "pbrMetallicRoughness" : {
            "baseColorFactor" : [ 1, 1, 1, 1 ],
            "metallicFactor" : 0
         }
      },
      {
         "name" : "matPBRSteelWorn",
         "pbrMetallicRoughness" : {
            "baseColorFactor" : [ 1, 1, 1, 1 ],
            "metallicFactor" : 0
         }
      }
   ],
   "meshes" : [
      {
         "name" : "StaticMesh",
         "primitives" : [
            {
               "attributes" : {
                  "NORMAL" : 2,
                  "POSITION" : 1,
                  "TEXCOORD_0" : 3
               },
               "indices" : 0,
               "material" : 0,
               "mode" : 4
            },
            {
               "attributes" : {
                  "NORMAL" : 6,
                  "POSITION" : 5,
                  "TEXCOORD_0" : 7
               },
               "indices" : 4,
               "material" : 1,
               "mode" : 4
            },
            {
               "attributes" : {
                  "NORMAL" : 10,
                  "POSITION" : 9,
                  "TEXCOORD_0" : 11
               },
               "indices" : 8,
               "material" : 2,
               "mode" : 4
            },
            {
               "attributes" : {
                  "NORMAL" : 14,
                  "POSITION" : 13,
                  "TEXCOORD_0" : 15
               },
               "indices" : 12,
               "material" : 3,
               "mode" : 4
            },
            {
               "attributes" : {
                  "NORMAL" : 18,
                  "POSITION" : 17,
                  "TEXCOORD_0" : 19
               },
               "indices" : 16,
               "material" : 4,
               "mode" : 4
            },
            {
               "attributes" : {
                  "NORMAL" : 22,
                  "POSITION" : 21,
                  "TEXCOORD_0" : 23
               },
               "indices" : 20,
               "material" : 5,
               "mode" : 4
            },
            {
               "attributes" : {
                  "NORMAL" : 26,
                  "POSITION" : 25,
                  "TEXCOORD_0" : 27
               },
               "indices" : 24,
               "material" : 6,
               "mode" : 4
            },
            {
               "attributes" : {
                  "NORMAL" : 30,
                  "POSITION" : 29,
                  "TEXCOORD_0" : 31
               },
               "indices" : 28,
               "material" : 7,
               "mode" : 4
            },
            {
               "attributes" : {
                  "NORMAL" : 34,
                  "POSITION" : 33,
                  "TEXCOORD_0" : 35
               },
               "indices" : 32,
               "material" : 8,
               "mode" : 4
            },
            {
               "attributes" : {
                  "NORMAL" : 38,
                  "POSITION" : 37,
                  "TEXCOORD_0" : 39
               },
               "indices" : 36,
               "material" : 9,
               "mode" : 4
            },
            {
               "attributes" : {
                  "NORMAL" : 42,
                  "POSITION" : 41,
                  "TEXCOORD_0" : 43
               },
               "indices" : 40,
               "material" : 10,
               "mode" : 4
            },
            {
               "attributes" : {
                  "NORMAL" : 46,
                  "POSITION" : 45,
                  "TEXCOORD_0" : 47
               },
               "indices" : 44,
               "material" : 11,
               "mode" : 4
            },
            {
               "attributes" : {
                  "NORMAL" : 50,
                  "POSITION" : 49,
                  "TEXCOORD_0" : 51
               },
               "indices" : 48,
               "material" : 12,
               "mode" : 4
            },
            {
               "attributes" : {
                  "NORMAL" : 54,
                  "POSITION" : 53,
                  "TEXCOORD_0" : 55
               },
               "indices" : 52,
               "material" : 13,
               "mode" : 4
            },
            {
               "attributes" : {
                  "NORMAL" : 58,
                  "POSITION" : 57,
                  "TEXCOORD_0" : 59
               },
               "indices" : 56,
               "material" : 14,
               "mode" : 4
            },
            {
               "attributes" : {
                  "NORMAL" : 62,
                  "POSITION" : 61,
                  "TEXCOORD_0" : 63
               },
               "indices" : 60,
               "material" : 15,
               "mode" : 4
            },
            {
               "attributes" : {
                  "NORMAL" : 66,
                  "POSITION" : 65,
                  "TEXCOORD_0" : 67
               },
               "indices" : 64,
               "material" : 16,
               "mode" : 4
            },
            {
               "attributes" : {
                  "NORMAL" : 70,
                  "POSITION" : 69,
                  "TEXCOORD_0" : 71
               },
               "indices" : 68,
               "material" : 17,
               "mode" : 4
            },
            {
               "attributes" : {
                  "NORMAL" : 74,
                  "POSITION" : 73,
                  "TEXCOORD_0" : 75
               },
               "indices" : 72,
               "material" : 18,
               "mode" : 4
            },
            {
               "attributes" : {
                  "NORMAL" : 78,
                  "POSITION" : 77,
                  "TEXCOORD_0" : 79
               },
               "indices" : 76,
               "material" : 19,
               "mode" : 4
            },
            {
               "attributes" : {
                  "NORMAL" : 82,
                  "POSITION" : 81,
                  "TEXCOORD_0" : 83
               },
               "indices" : 80,
               "material" : 20,
               "mode" : 4
            },
            {
               "attributes" : {
                  "NORMAL" : 86,
                  "POSITION" : 85,
                  "TEXCOORD_0" : 87
               },
               "indices" : 84,
               "material" : 21,
               "mode" : 4
            },
            {
               "attributes" : {
                  "NORMAL" : 90,
                  "POSITION" : 89,
                  "TEXCOORD_0" : 91
               },
               "indices" : 88,
               "material" : 22,
               "mode" : 4
            },
            {
               "attributes" : {
                  "NORMAL" : 94,
                  "POSITION" : 93,
                  "TEXCOORD_0" : 95
               },
               "indices" : 92,
               "material" : 23,
               "mode" : 4
            },
            {
               "attributes" : {
                  "NORMAL" : 98,
                  "POSITION" : 97,
                  "TEXCOORD_0" : 99
               },
               "indices" : 96,
               "material" : 24,
               "mode" : 4
            },
            {
               "attributes" : {
                  "NORMAL" : 102,
                  "POSITION" : 101,
                  "TEXCOORD_0" : 103
               },
               "indices" : 100,
               "material" : 25,
               "mode" : 4
            },
            {
               "attributes" : {
                  "NORMAL" : 106,
                  "POSITION" : 105,
                  "TEXCOORD_0" : 107
               },
               "indices" : 104,
               "material" : 26,
               "mode" : 4
            }
         ]
      }
   ],
   "nodes" : [
      {
         "mesh" : 0,
         "name" : "StaticMesh"
      }
   ],
   "scene" : 0,
   "scenes" : [
      {
         "nodes" : [ 0 ]
      }
   ]
}
