{
   "accessors" : [
      {
         "bufferView" : 0,
         "byteOffset" : 0,
         "componentType" : 5123,
         "count" : 7782,
         "max" : [ 3191 ],
         "min" : [ 0 ],
         "type" : "SCALAR"
      },
      {
         "bufferView" : 1,
         "byteOffset" : 0,
         "componentType" : 5126,
         "count" : 3192,
         "max" : [ 5.081339836120606, 1.004999995231628, 5.081339836120606 ],
         "min" : [ -5.081339836120606, 0, -5.081339836120606 ],
         "type" : "VEC3"
      },
      {
         "bufferView" : 2,
         "byteOffset" : 0,
         "componentType" : 5126,
         "count" : 3192,
         "type" : "VEC3"
      },
      {
         "bufferView" : 3,
         "byteOffset" : 0,
         "componentType" : 5126,
         "count" : 3192,
         "max" : [ 1, 1 ],
         "min" : [ 0, 0 ],
         "type" : "VEC2"
      }
   ],
   "asset" : {
      "extras" : {
         "date" : "Tue Jan 03 08:40:18 2023",
         "website" : "http://www.unwrap3d.com"
      },
      "generator" : "Ultimate Unwrap3D Pro (x64) v3.50.61",
      "version" : "2.0"
   },
   "bufferViews" : [
      {
         "buffer" : 0,
         "byteLength" : 15564,
         "byteOffset" : 0
      },
      {
         "buffer" : 0,
         "byteLength" : 38304,
         "byteOffset" : 15564,
         "byteStride" : 12
      },
      {
         "buffer" : 0,
         "byteLength" : 38304,
         "byteOffset" : 53868,
         "byteStride" : 12
      },
      {
         "buffer" : 0,
         "byteLength" : 25536,
         "byteOffset" : 92172,
         "byteStride" : 8
      }
   ],
   "buffers" : [
      {
         "byteLength" : 117708,
         "uri" : "octagon_fissure0.bin"
      }
   ],
   "materials" : [
      {
         "name" : "matPBRDryDirt",
         "pbrMetallicRoughness" : {
            "baseColorFactor" : [ 1, 1, 1, 1 ],
            "metallicFactor" : 0
         }
      }
   ],
   "meshes" : [
      {
         "name" : "StaticMesh",
         "primitives" : [
            {
               "attributes" : {
                  "NORMAL" : 2,
                  "POSITION" : 1,
                  "TEXCOORD_0" : 3
               },
               "indices" : 0,
               "material" : 0,
               "mode" : 4
            }
         ]
      }
   ],
   "nodes" : [
      {
         "mesh" : 0,
         "name" : "StaticMesh"
      }
   ],
   "scene" : 0,
   "scenes" : [
      {
         "nodes" : [ 0 ]
      }
   ]
}
