{
   "accessors" : [
      {
         "bufferView" : 0,
         "byteOffset" : 0,
         "componentType" : 5123,
         "count" : 120,
         "max" : [ 23 ],
         "min" : [ 0 ],
         "type" : "SCALAR"
      },
      {
         "bufferView" : 1,
         "byteOffset" : 0,
         "componentType" : 5126,
         "count" : 24,
         "max" : [ 5.081016063690186, 0.9997960329055786, 5.081016063690186 ],
         "min" : [ -5.081016063690186, 0, -5.081016063690186 ],
         "type" : "VEC3"
      },
      {
         "bufferView" : 2,
         "byteOffset" : 0,
         "componentType" : 5126,
         "count" : 24,
         "type" : "VEC3"
      },
      {
         "bufferView" : 3,
         "byteOffset" : 0,
         "componentType" : 5126,
         "count" : 24,
         "max" : [ 1, 1 ],
         "min" : [ 0, 0 ],
         "type" : "VEC2"
      },
      {
         "bufferView" : 4,
         "byteOffset" : 0,
         "componentType" : 5123,
         "count" : 36,
         "max" : [ 7 ],
         "min" : [ 0 ],
         "type" : "SCALAR"
      },
      {
         "bufferView" : 5,
         "byteOffset" : 0,
         "componentType" : 5126,
         "count" : 8,
         "max" : [ 2.129863977432251, 0.9997960329055786, 2.129863977432251 ],
         "min" : [ -2.129863977432251, 0, -2.129863977432251 ],
         "type" : "VEC3"
      },
      {
         "bufferView" : 6,
         "byteOffset" : 0,
         "componentType" : 5126,
         "count" : 8,
         "type" : "VEC3"
      },
      {
         "bufferView" : 7,
         "byteOffset" : 0,
         "componentType" : 5126,
         "count" : 8,
         "max" : [ 1.007812976837158, 1.001302003860474 ],
         "min" : [ 0.007812999188899994, 0.001302000018768013 ],
         "type" : "VEC2"
      },
      {
         "bufferView" : 8,
         "byteOffset" : 0,
         "componentType" : 5123,
         "count" : 8640,
         "max" : [ 2699 ],
         "min" : [ 0 ],
         "type" : "SCALAR"
      },
      {
         "bufferView" : 9,
         "byteOffset" : 0,
         "componentType" : 5126,
         "count" : 2700,
         "max" : [ 5.081591129302979, 2.870171070098877, 5.081593990325928 ],
         "min" : [ -5.081591129302979, 0.8226779699325562, -5.081593990325928 ],
         "type" : "VEC3"
      },
      {
         "bufferView" : 10,
         "byteOffset" : 0,
         "componentType" : 5126,
         "count" : 2700,
         "type" : "VEC3"
      },
      {
         "bufferView" : 11,
         "byteOffset" : 0,
         "componentType" : 5126,
         "count" : 2700,
         "max" : [ 1, 1 ],
         "min" : [ 0, 0 ],
         "type" : "VEC2"
      }
   ],
   "asset" : {
      "extras" : {
         "date" : "Tue Jan 03 08:40:29 2023",
         "website" : "http://www.unwrap3d.com"
      },
      "generator" : "Ultimate Unwrap3D Pro (x64) v3.50.61",
      "version" : "2.0"
   },
   "bufferViews" : [
      {
         "buffer" : 0,
         "byteLength" : 240,
         "byteOffset" : 0
      },
      {
         "buffer" : 0,
         "byteLength" : 288,
         "byteOffset" : 240,
         "byteStride" : 12
      },
      {
         "buffer" : 0,
         "byteLength" : 288,
         "byteOffset" : 528,
         "byteStride" : 12
      },
      {
         "buffer" : 0,
         "byteLength" : 192,
         "byteOffset" : 816,
         "byteStride" : 8
      },
      {
         "buffer" : 0,
         "byteLength" : 72,
         "byteOffset" : 1008
      },
      {
         "buffer" : 0,
         "byteLength" : 96,
         "byteOffset" : 1080,
         "byteStride" : 12
      },
      {
         "buffer" : 0,
         "byteLength" : 96,
         "byteOffset" : 1176,
         "byteStride" : 12
      },
      {
         "buffer" : 0,
         "byteLength" : 64,
         "byteOffset" : 1272,
         "byteStride" : 8
      },
      {
         "buffer" : 0,
         "byteLength" : 17280,
         "byteOffset" : 1336
      },
      {
         "buffer" : 0,
         "byteLength" : 32400,
         "byteOffset" : 18616,
         "byteStride" : 12
      },
      {
         "buffer" : 0,
         "byteLength" : 32400,
         "byteOffset" : 51016,
         "byteStride" : 12
      },
      {
         "buffer" : 0,
         "byteLength" : 21600,
         "byteOffset" : 83416,
         "byteStride" : 8
      }
   ],
   "buffers" : [
      {
         "byteLength" : 105016,
         "uri" : "octagon_grass0.bin"
      }
   ],
   "materials" : [
      {
         "name" : "matPBRDryDirt0",
         "pbrMetallicRoughness" : {
            "baseColorFactor" : [ 1, 1, 1, 1 ],
            "metallicFactor" : 0
         }
      },
      {
         "name" : "matPBRDryDirt",
         "pbrMetallicRoughness" : {
            "baseColorFactor" : [ 1, 1, 1, 1 ],
            "metallicFactor" : 0
         }
      },
      {
         "name" : "matGrass",
         "pbrMetallicRoughness" : {
            "baseColorFactor" : [ 1, 1, 1, 1 ],
            "metallicFactor" : 0
         }
      }
   ],
   "meshes" : [
      {
         "name" : "StaticMesh",
         "primitives" : [
            {
               "attributes" : {
                  "NORMAL" : 2,
                  "POSITION" : 1,
                  "TEXCOORD_0" : 3
               },
               "indices" : 0,
               "material" : 0,
               "mode" : 4
            },
            {
               "attributes" : {
                  "NORMAL" : 6,
                  "POSITION" : 5,
                  "TEXCOORD_0" : 7
               },
               "indices" : 4,
               "material" : 1,
               "mode" : 4
            },
            {
               "attributes" : {
                  "NORMAL" : 10,
                  "POSITION" : 9,
                  "TEXCOORD_0" : 11
               },
               "indices" : 8,
               "material" : 2,
               "mode" : 4
            }
         ]
      }
   ],
   "nodes" : [
      {
         "mesh" : 0,
         "name" : "StaticMesh"
      }
   ],
   "scene" : 0,
   "scenes" : [
      {
         "nodes" : [ 0 ]
      }
   ]
}
