{
   "accessors" : [
      {
         "bufferView" : 0,
         "byteOffset" : 0,
         "componentType" : 5123,
         "count" : 144,
         "max" : [ 143 ],
         "min" : [ 0 ],
         "type" : "SCALAR"
      },
      {
         "bufferView" : 1,
         "byteOffset" : 0,
         "componentType" : 5126,
         "count" : 144,
         "max" : [ 5.081339836120606, 1, 5.081339836120606 ],
         "min" : [ -5.081339836120606, 0, -5.081339836120606 ],
         "type" : "VEC3"
      },
      {
         "bufferView" : 2,
         "byteOffset" : 0,
         "componentType" : 5126,
         "count" : 144,
         "type" : "VEC3"
      },
      {
         "bufferView" : 3,
         "byteOffset" : 0,
         "componentType" : 5126,
         "count" : 144,
         "max" : [ 1, 1 ],
         "min" : [ 0, 0 ],
         "type" : "VEC2"
      },
      {
         "bufferView" : 4,
         "byteOffset" : 0,
         "componentType" : 5123,
         "count" : 36,
         "max" : [ 35 ],
         "min" : [ 0 ],
         "type" : "SCALAR"
      },
      {
         "bufferView" : 5,
         "byteOffset" : 0,
         "componentType" : 5126,
         "count" : 36,
         "max" : [ 2.130000114440918, 1, 2.130000114440918 ],
         "min" : [ -2.130000114440918, 0, -2.130000114440918 ],
         "type" : "VEC3"
      },
      {
         "bufferView" : 6,
         "byteOffset" : 0,
         "componentType" : 5126,
         "count" : 36,
         "type" : "VEC3"
      },
      {
         "bufferView" : 7,
         "byteOffset" : 0,
         "componentType" : 5126,
         "count" : 36,
         "max" : [ 1, 1 ],
         "min" : [ 0, 0 ],
         "type" : "VEC2"
      }
   ],
   "asset" : {
      "extras" : {
         "date" : "Tue Jan 03 08:40:56 2023",
         "website" : "http://www.unwrap3d.com"
      },
      "generator" : "Ultimate Unwrap3D Pro (x64) v3.50.61",
      "version" : "2.0"
   },
   "bufferViews" : [
      {
         "buffer" : 0,
         "byteLength" : 288,
         "byteOffset" : 0
      },
      {
         "buffer" : 0,
         "byteLength" : 1728,
         "byteOffset" : 288,
         "byteStride" : 12
      },
      {
         "buffer" : 0,
         "byteLength" : 1728,
         "byteOffset" : 2016,
         "byteStride" : 12
      },
      {
         "buffer" : 0,
         "byteLength" : 1152,
         "byteOffset" : 3744,
         "byteStride" : 8
      },
      {
         "buffer" : 0,
         "byteLength" : 72,
         "byteOffset" : 4896
      },
      {
         "buffer" : 0,
         "byteLength" : 432,
         "byteOffset" : 4968,
         "byteStride" : 12
      },
      {
         "buffer" : 0,
         "byteLength" : 432,
         "byteOffset" : 5400,
         "byteStride" : 12
      },
      {
         "buffer" : 0,
         "byteLength" : 288,
         "byteOffset" : 5832,
         "byteStride" : 8
      }
   ],
   "buffers" : [
      {
         "byteLength" : 6120,
         "uri" : "octagon_plain0.bin"
      }
   ],
   "materials" : [
      {
         "name" : "matPBRDryDirt0",
         "pbrMetallicRoughness" : {
            "baseColorFactor" : [ 1, 1, 1, 1 ],
            "metallicFactor" : 0
         }
      },
      {
         "name" : "matPBRDryDirt",
         "pbrMetallicRoughness" : {
            "baseColorFactor" : [ 1, 1, 1, 1 ],
            "metallicFactor" : 0
         }
      }
   ],
   "meshes" : [
      {
         "name" : "StaticMesh",
         "primitives" : [
            {
               "attributes" : {
                  "NORMAL" : 2,
                  "POSITION" : 1,
                  "TEXCOORD_0" : 3
               },
               "indices" : 0,
               "material" : 0,
               "mode" : 4
            },
            {
               "attributes" : {
                  "NORMAL" : 6,
                  "POSITION" : 5,
                  "TEXCOORD_0" : 7
               },
               "indices" : 4,
               "material" : 1,
               "mode" : 4
            }
         ]
      }
   ],
   "nodes" : [
      {
         "mesh" : 0,
         "name" : "StaticMesh"
      }
   ],
   "scene" : 0,
   "scenes" : [
      {
         "nodes" : [ 0 ]
      }
   ]
}
