{
   "accessors" : [
      {
         "bufferView" : 0,
         "byteOffset" : 0,
         "componentType" : 5123,
         "count" : 36,
         "max" : [ 14 ],
         "min" : [ 0 ],
         "type" : "SCALAR"
      },
      {
         "bufferView" : 1,
         "byteOffset" : 0,
         "componentType" : 5126,
         "count" : 15,
         "max" : [ 2.130000114440918, 1, 2.130000114440918 ],
         "min" : [ -2.130000114440918, 0, -2.130000114440918 ],
         "type" : "VEC3"
      },
      {
         "bufferView" : 2,
         "byteOffset" : 0,
         "componentType" : 5126,
         "count" : 15,
         "type" : "VEC3"
      },
      {
         "bufferView" : 3,
         "byteOffset" : 0,
         "componentType" : 5126,
         "count" : 15,
         "max" : [ 1, 1 ],
         "min" : [ 0, 0 ],
         "type" : "VEC2"
      }
   ],
   "asset" : {
      "extras" : {
         "date" : "Tue Jan 03 08:41:41 2023",
         "website" : "http://www.unwrap3d.com"
      },
      "generator" : "Ultimate Unwrap3D Pro (x64) v3.50.61",
      "version" : "2.0"
   },
   "bufferViews" : [
      {
         "buffer" : 0,
         "byteLength" : 72,
         "byteOffset" : 0
      },
      {
         "buffer" : 0,
         "byteLength" : 180,
         "byteOffset" : 72,
         "byteStride" : 12
      },
      {
         "buffer" : 0,
         "byteLength" : 180,
         "byteOffset" : 252,
         "byteStride" : 12
      },
      {
         "buffer" : 0,
         "byteLength" : 120,
         "byteOffset" : 432,
         "byteStride" : 8
      }
   ],
   "buffers" : [
      {
         "byteLength" : 552,
         "uri" : "square0.bin"
      }
   ],
   "materials" : [
      {
         "name" : "matPBRDryDirt",
         "pbrMetallicRoughness" : {
            "baseColorFactor" : [ 1, 1, 1, 1 ],
            "metallicFactor" : 0
         }
      }
   ],
   "meshes" : [
      {
         "name" : "StaticMesh",
         "primitives" : [
            {
               "attributes" : {
                  "NORMAL" : 2,
                  "POSITION" : 1,
                  "TEXCOORD_0" : 3
               },
               "indices" : 0,
               "material" : 0,
               "mode" : 4
            }
         ]
      }
   ],
   "nodes" : [
      {
         "mesh" : 0,
         "name" : "StaticMesh"
      }
   ],
   "scene" : 0,
   "scenes" : [
      {
         "nodes" : [ 0 ]
      }
   ]
}
